{
.appVersion = "3151";
.formatVersion = 3;
axes = (
{
name = Weight;
tag = wght;
}
);
classes = (
{
code = "one.sansSerifCircled two.sansSerifCircled three.sansSerifCircled four.sansSerifCircled five.sansSerifCircled six.sansSerifCircled seven.sansSerifCircled eight.sansSerifCircled nine.sansSerifCircled";
name = WhiteCircle;
},
{
code = "one.sansSerifBlackCircled two.sansSerifBlackCircled three.sansSerifBlackCircled four.sansSerifBlackCircled five.sansSerifBlackCircled six.sansSerifBlackCircled seven.sansSerifBlackCircled eight.sansSerifBlackCircled nine.sansSerifBlackCircled ";
name = BlackCircle;
},
{
code = "one two three four five six seven eight nine";
name = numeros;
},
{
automatic = 1;
code = "A Aacute Abreve Acaron Acircumflex Adieresis Agrave Amacron Aogonek Aring Atilde AE B C Cacute Ccaron Ccedilla Cdotaccent D Eth Dcaron Dcroat E Eacute Ecaron Ecircumflex Edieresis Edotaccent Egrave Emacron Eogonek Etilde F G Gbreve Gcommaaccent Gdotaccent H Hbar I IJ Iacute Icircumflex Idieresis Idotaccent Igrave Imacron Iogonek J Jacute K Kcommaaccent L Lacute Lcaron Lcommaaccent Lslash M N Nacute Ncaron Ncommaaccent Ntilde Eng O Oacute Ocircumflex Odieresis Ograve Ohungarumlaut Omacron Oslash Otilde OE P Thorn Q R Racute Rcaron Rcommaaccent S Sacute Scaron Scedilla Scommaaccent Germandbls T Tcaron Tcommaaccent U Uacute Ubreve Ucircumflex Udieresis Ugrave Uhungarumlaut Umacron Uogonek Uring V W Wacute Wcircumflex Wdieresis Wgrave X Y Yacute Ycircumflex Ydieresis Ygrave Z Zacute Zcaron Zdotaccent J.alt";
name = Uppercase;
}
);
customParameters = (
{
name = unicodeRanges;
value = (
0,
1,
2,
3
);
},
{
name = "Use Typo Metrics";
value = 1;
},
{
name = "Write lastChange";
value = 0;
},
{
name = "Write DisplayStrings";
value = 0;
},
{
name = fsType;
value = (
);
},
{
name = "meta Table";
value = (
{
data = latn;
tag = dlng;
},
{
data = latn;
tag = slng;
}
);
},
{
name = "Family Alignment Zones";
value = (
{
pos = 681;
size = 15;
},
{
pos = 681;
size = 15;
},
{
pos = 488;

glyphs = (
{
glyphname = A;
kernLeft = A;
kernRight = A;
layers = (
{
anchors = (
{
name = bottom;
pos = (331,0);
},
{
name = ogonek;
pos = (642,0);
},
{
name = top;
pos = (331,681);
}
);
guides = (
{
angle = 70.3355;
pos = (424,-185);
}
);
layerId = "344A0678-763D-4FBD-9EF6-1E94428A847E";
shapes = (
{
closed = 1;
nodes = (
(148,159,l),
(515,159,l),
(515,253,l),
(148,253,l)
);
},
{
closed = 1;
nodes = (
(122,0,l),
(340,611,l),
(322,611,l),
(540,0,l),
(642,0,l),
(399,681,l),
(263,681,l),
(20,0,l)
);
}
);
userData = {
com.typemytype.robofont.guides = (
{
angle = 90;
isGlobal = 0;
magnetic = 5;
x = 362;
y = 349;
},
{
angle = 90;
isGlobal = 0;
magnetic = 5;
x = 321;
y = 335;
}
);
};
width = 662;
},
{
anchors = (
{
name = bottom;
pos = (324,0);
},
{
name = ogonek;
pos = (645,0);
},
{
name = top;
pos = (336,681);
}
);
layerId = "1CA3C852-39F9-4810-8045-E03244E0B506";
shapes = (
{
closed = 1;
nodes = (
(169,102,l),
(454,102,l),
(454,269,l),
(169,269,l)
);
},
{
closed = 1;
nodes = (
(185,0,l),
(372,558,l),
(300,558,l),
(463,0,l),
(645,0,l),
(426,681,l),
(245,681,l),
(4,0,l)
);
}
);
userData = {
com.schriftgestaltung.Glyphs.lastChange = "2017-03-20 13:23:24 +0000";
com.typemytype.robofont.guides = (
{
angle = 90;
isGlobal = 0;
magnetic = 5;
x = 362;
y = 349;
},
{
angle = 90;
isGlobal = 0;
magnetic = 5;
x = 350;
y = 354;
},
{
angle = 90;
isGlobal = 0;
magnetic = 5;
x = 370;
y = 366;
}
);
};
width = 648;
}
);
note = "\012    A\012  ";
unicode = 65;
},
{
glyphname = AE;
kernLeft = A;
kernRight = E;
layers = (
{
anchors = (
{
name = top;
pos = (455,681);
}
);
layerId = "344A0678-763D-4FBD-9EF6-1E94428A847E";
shapes = (
{
closed = 1;
nodes = (
(778,0,l),
(778,94,l),
(494,94,l),
(516,78,l),
(467,619,l),
(437,587,l),
(757,587,l),
(757,681,l),
(360,681,l),
(422,0,l)
);
},
{
closed = 1;
nodes = (
(458,173,l),
(458,267,l),
(131,267,l),
(131,173,l)
);
},
{
closed = 1;
nodes = (
(119,0,l),
(398,681,l),
(291,681,l),
(20,0,l)
);
},
{
closed = 1;
nodes = (
(716,289,l),
(716,383,l),
(462,383,l),
(462,289,l)
);
}
);
userData = {
com.typemytype.robofont.guides = (
{
angle = 90;
isGlobal = 0;
magnetic = 5;
x = 767;
y = 453;
}
);
com.typemytype.robofont.mark = (
0.743,
0.775,
0.772,
1
);
};
width = 833;
},
{
anchors = (
{
name = top;
pos = (491,681);
}
);
layerId = "1CA3C852-39F9-4810-8045-E03244E0B506";
shapes = (
{
closed = 1;
nodes = (
(842,0,l),
(842,176,l),
(519,176,l),
(595,15,l),
(547,611,l),
(469,505,l),
(821,505,l),
(821,681,l),
(360,681,l),
(429,0,l)
);
},
{
closed = 1;
nodes = (
(527,108,l),
(527,275,l),
(145,275,l),
(145,108,l)
);
},
{
closed = 1;
nodes = (
(186,0,l),
(448,681,l),
(263,681,l),
(4,0,l)
);
},
{
closed = 1;
nodes = (
(796,252,l),
(796,429,l),
(509,429,l),
(509,252,l)
);
}
);
userData = {
com.schriftgestaltung.Glyphs.lastChange = "2017-03-13 23:24:44 +0000";
com.typemytype.robofont.guides = (
{
angle = 90;
isGlobal = 0;
magnetic = 5;
x = 448;
y = 61;
},
{
angle = 90;
isGlobal = 0;
magnetic = 5;
x = 828;
y = 537;
}
);
com.typemytype.robofont.layerData = {
background = {
anchors = (
);
components = (
);
contours = (
{
points = (
{
segmentType = curve;
smooth = 1;
x = 530;
y = 329;
},
{
smooth = 0;
x = 585;
y = 329;
},
{
smooth = 0;
x = 630;
y = 374;
},
{
segmentType = curve;
smooth = 1;
x = 630;
y = 430;
},
{
smooth = 0;
x = 630;
y = 485;
},
{
smooth = 0;
x = 585;
y = 530;
},
{
segmentType = curve;
smooth = 1;
x = 530;
y = 530;
},
{
smooth = 0;
x = 475;
y = 530;
},
{
smooth = 0;
x = 430;
y = 485;
},
{
segmentType = curve;
smooth = 1;
x = 430;
y = 430;
},
{
smooth = 0;
x = 430;
y = 374;
},
{
smooth = 0;
x = 475;
y = 329;
}
);
}
);
lib = {
};
name = AE;
unicodes = (
);
width = 968;
};
};
com.typemytype.robofont.mark = (
0.743,
0.775,
0.772,
1
);
};
width = 874;
}
);
metricLeft = A;
metricRight = E;
note = "\012    AE\012  ";
unicode = 198;
},
{
glyphname = B;
kernLeft = H;
kernRight = B;
layers = (
{
anchors = (
{
name = bottom;
pos = (300,0);
},
{
name = top;
pos = (292,681);
}
);
layerId = "344A0678-763D-4FBD-9EF6-1E94428A847E";
shapes = (
{
closed = 1;
nodes = (
(328,0,ls),
(471,0,o),
(550,67,o),
(550,191,cs),
(550,309,o),
(467,375,o),
(346,375,c),
(339,323,l),
(437,323,o),
(525,394,o),
(525,499,cs),
(525,623,o),
(449,681,o),
(311,681,cs),
(85,681,l),
(85,0,l)
);
},
{
closed = 1;
nodes = (
(149,585,l),
(314,585,ls),
(383,585,o),
(423,546,o),
(423,491,cs),
(423,431,o),
(384,399,o),
(314,399,cs),
(145,399,l),
(145,307,l),
(333,307,ls),
(407,307,o),
(448,270,o),
(448,201,cs),
(448,140,o),
(406,96,o),
(331,96,cs),
(145,96,l),
(185,70,l),
(185,618,l)
);
}
);
userData = {
com.typemytype.robofont.guides = (
{
angle = 90;
isGlobal = 0;
magnetic = 5;
x = 327;
y = 459;
},
{
angle = 0;
isGlobal = 0;
magnetic = 5;
x = 1026;
y = 875;
},
{
angle = 0;
isGlobal = 0;
magnetic = 5;
x = 268;
y = 353;
},
{
angle = 0;
isGlobal = 0;
magnetic = 5;
x = 218;
y = 201;
},
{
angle = 0;
isGlobal = 0;
magnetic = 5;
x = 294;
y = 491;
}
);
};
width = 600;
},
{
anchors = (
{
name = bottom;
pos = (291,0);
},
{
name = top;
pos = (284,681);
}
);
layerId = "1CA3C852-39F9-4810-8045-E03244E0B506";
shapes = (
{
closed = 1;
nodes = (
(318,0,ls),
(477,0,o),
(555,63,o),
(555,192,cs),
(555,272,o),
(515,349,o),
(399,349,c),
(399,332,l),
(489,332,o),
(546,396,o),
(546,490,cs),
(546,613,o),
(489,681,o),
(299,681,cs),
(41,681,l),
(41,0,l)
);
},
{
closed = 1;
nodes = (
(164,508,l),
(301,508,ls),
(341,508,o),
(360,494,o),
(360,462,cs),
(360,430,o),
(341,416,o),
(301,416,cs),
(161,416,l),
(161,265,l),
(314,265,ls),
(347,265,o),
(371,251,o),
(371,219,cs),
(371,187,o),
(347,173,o),
(312,173,cs),
(161,173,l),
(222,91,l),
(222,597,l)
);
}
);
userData = {
com.schriftgestaltung.Glyphs.lastChange = "2017-03-20 13:25:33 +0000";
com.typemytype.robofont.guides = (
{
angle = 90;
isGlobal = 0;
magnetic = 5;
x = 327;
y = 459;
},
{
angle = 90;
isGlobal = 0;
magnetic = 5;
x = 411;
y = 465;
},
{
angle = 90;
isGlobal = 0;
magnetic = 5;
x = 596;
y = 444;
},
{
angle = 0;
isGlobal = 0;
magnetic = 5;
x = 361;
y = 241;
},
{
angle = 0;
isGlobal = 0;
magnetic = 5;
x = 361;
y = 509;
}
);
};
width = 582;
}
);
metricLeft = H;
note = "\012    B\012  ";
unicode = 66;
},
{
glyphname = C;
kernLeft = O;
kernRight = C;
layers = (
{
anchors = (
{
name = bottom;
pos = (372,0);
},
{
name = top;
pos = (372,681);
}
);
layerId = "344A0678-763D-4FBD-9EF6-1E94428A847E";
shapes = (
{
closed = 1;
nodes = (
(529,-10,o),
(622,58,o),
(685,165,c),
(587,194,l),
(526,110,o),
(456,86,o),
(374,86,cs),
(236,86,o),
(132,193,o),
(132,340,cs),
(132,487,o),
(236,594,o),
(374,594,cs),
(456,594,o),
(526,570,o),
(587,486,c),
(685,515,l),
(622,622,o),
(529,690,o),
(374,690,cs),
(177,690,o),
(30,542,o),
(30,340,cs),
(30,139,o),
(167,-10,o),
(374,-10,cs)
);
}
);
userData = {
com.typemytype.robofont.guides = (
{
angle = 90;
isGlobal = 0;
magnetic = 5;
x = 727;
y = 444;
},
{
angle = 90;
isGlobal = 0;
magnetic = 5;
x = 444;
y = 723;
}
);
com.typemytype.robofont.layerData = {
background = {
anchors = (
{
name = bottom;
x = 404;
y = 0;
}
);
components = (
);
contours = (
);
lib = {
};
name = C;
unicodes = (
);
width = 760;
};
};
};
width = 710;
},
{
anchors = (
{
name = bottom;
pos = (363,0);
},
{
name = top;
pos = (360,681);
}
);
layerId = "1CA3C852-39F9-4810-8045-E03244E0B506";
shapes = (
{
closed = 1;
nodes = (
(524,-14,o),
(632,61,o),
(680,206,c),
(520,274,l),
(489,202,o),
(440,163,o),
(362,163,cs),
(265,163,o),
(199,227,o),
(199,340,cs),
(199,452,o),
(265,518,o),
(362,518,cs),
(440,518,o),
(489,478,o),
(520,406,c),
(680,474,l),
(632,619,o),
(524,694,o),
(362,694,cs),
(154,694,o),
(14,549,o),
(14,340,cs),
(14,131,o),
(145,-14,o),
(362,-14,cs)
);
}
);
userData = {
com.schriftgestaltung.Glyphs.lastChange = "2017-03-13 23:27:29 +0000";
com.typemytype.robofont.layerData = {
background = {
anchors = (
{
name = bottom;
x = 400;
y = 0;
},
{
name = top;
x = 396;
y = 750;
}
);
components = (
);
contours = (
{
points = (
{
segmentType = curve;
smooth = 1;
x = 397;
y = -15;
},
{
smooth = 0;
x = 557;
y = -15;
},
{
smooth = 0;
x = 688;
y = 69;
},
{
segmentType = curve;
smooth = 0;
x = 723;
y = 212;
},
{
segmentType = line;
smooth = 0;
x = 587;
y = 253;
},
{
smooth = 0;
x = 564;
y = 171;
},
{
smooth = 0;
x = 487;
y = 121;
},
{
segmentType = curve;
smooth = 1;
x = 399;
y = 121;
},
{
smooth = 0;
x = 260;
y = 121;
},
{
smooth = 0;
x = 186;
y = 237;
},
{
segmentType = curve;
smooth = 0;
x = 186;
y = 350;
},
{
smooth = 0;
x = 186;
y = 463;
},
{
smooth = 0;
x = 260;
y = 579;
},
{
segmentType = curve;
smooth = 1;
x = 399;
y = 579;
},
{
smooth = 0;
x = 487;
y = 579;
},
{
smooth = 0;
x = 564;
y = 529;
},
{
segmentType = curve;
smooth = 0;
x = 587;
y = 447;
},
{
segmentType = line;
smooth = 0;
x = 723;
y = 488;
},
{
smooth = 0;
x = 688;
y = 631;
},
{
smooth = 0;
x = 557;
y = 715;
},
{
segmentType = curve;
smooth = 1;
x = 397;
y = 715;
},
{
smooth = 0;
x = 197;
y = 715;
},
{
smooth = 0;
x = 40;
y = 563;
},
{
segmentType = curve;
smooth = 0;
x = 40;
y = 350;
},
{
smooth = 0;
x = 40;
y = 137;
},
{
smooth = 0;
x = 197;
y = -15;
}
);
}
);
lib = {
};
name = C;
unicodes = (
);
width = 769;
};
};
};
width = 685;
},
{
anchors = (
{
name = bottom;
pos = (372,0);
},
{
name = top;
pos = (374,730);
}
);
associatedMasterId = "344A0678-763D-4FBD-9EF6-1E94428A847E";
layerId = "467AD1CD-0D97-4724-B44F-7715C768D0F9";
name = "Nov 18 20, 09:41";
shapes = (
{
closed = 1;
nodes = (
(177,690,o),
(30,542,o),
(30,340,cs),
(30,139,o),
(177,-10,o),
(374,-10,c),
(529,-10,o),
(622,58,o),
(685,165,c),
(587,194,l),
(526,110,o),
(456,86,o),
(374,86,c),
(236,86,o),
(132,193,o),
(132,340,cs),
(132,487,o),
(236,594,o),
(374,594,cs),
(456,594,o),
(526,570,o),
(587,486,c),
(685,515,l),
(622,622,o),
(529,690,o),
(374,690,cs)
);
}
);
userData = {
com.schriftgestaltung.Glyphs.lastChange = "2017-03-13 23:27:29 +0000";
com.typemytype.robofont.guides = (
{
angle = 90;
isGlobal = 0;
magnetic = 5;
x = 727;
y = 444;
},
{
angle = 90;
isGlobal = 0;
magnetic = 5;
x = 444;
y = 723;
}
);
com.typemytype.robofont.layerData = {
background = {
anchors = (
{
name = bottom;
x = 404;
y = 0;
}
);
components = (
);
contours = (
);
lib = {
};
name = C;
unicodes = (
);
width = 760;
};
};
};
width = 710;
}
);
metricLeft = O;
note = "\012    C\012  ";
unicode = 67;
},
{
glyphname = D;
kernLeft = H;
kernRight = O;
layers = (
{
anchors = (
{
name = bottom;
pos = (340,0);
},
{
name = center;
pos = (340,341);
},
{
name = top;
pos = (332,681);
}
);
layerId = "344A0678-763D-4FBD-9EF6-1E94428A847E";
shapes = (
{
closed = 1;
nodes = (
(308,0,ls),
(504,0,o),
(649,121,o),
(649,339,cs),
(649,552,o),
(505,681,o),
(309,681,cs),
(85,681,l),
(85,0,l)
);
},
{
closed = 1;
nodes = (
(185,623,l),
(148,587,l),
(304,587,ls),
(437,587,o),
(545,501,o),
(545,339,cs),
(545,171,o),
(436,94,o),
(303,94,cs),
(155,94,l),
(185,72,l)
);
}
);
width = 679;
},
{
anchors = (
{
name = bottom;
pos = (324,0);
},
{
name = center;
pos = (324,341);
},
{
name = top;
pos = (313,681);
}
);
layerId = "1CA3C852-39F9-4810-8045-E03244E0B506";
shapes = (
{
closed = 1;
nodes = (
(289,0,ls),
(510,0,o),
(634,127,o),
(634,341,cs),
(634,554,o),
(511,681,o),
(290,681,cs),
(41,681,l),
(41,0,l)
);
},
{
closed = 1;
nodes = (
(222,552,l),
(136,505,l),
(276,505,ls),
(387,505,o),
(449,459,o),
(449,341,cs),
(449,222,o),
(386,176,o),
(275,176,cs),
(143,176,l),
(222,96,l)
);
}
);
userData = {
com.schriftgestaltung.Glyphs.lastChange = "2017-03-20 13:26:16 +0000";
com.typemytype.robofont.guides = (
{
angle = 90;
isGlobal = 0;
magnetic = 5;
x = 151;
y = 346;
}
);
com.typemytype.robofont.layerData = {
background = {
anchors = (
{
name = top;
x = 300;
y = 750;
}
);
components = (
);
contours = (
{
points = (
{
segmentType = curve;
smooth = 1;
x = -66;
y = 374;
},
{
smooth = 0;
x = -66;
y = 139;
},
{
smooth = 0;
x = 89;
y = -15;
},
{
segmentType = curve;
smooth = 1;
x = 318;
y = -15;
},
{
smooth = 0;
x = 548;
y = -15;
},
{
smooth = 0;
x = 703;
y = 139;
},
{
segmentType = curve;
smooth = 1;
x = 703;
y = 374;
},
{
smooth = 0;
x = 703;
y = 610;
},
{
smooth = 0;
x = 548;
y = 764;
},
{
segmentType = curve;
smooth = 1;
x = 318;
y = 764;
},
{
smooth = 0;
x = 89;
y = 764;
},
{
smooth = 0;
x = -66;
y = 610;
}
);
},
{
points = (
{
segmentType = curve;
smooth = 0;
x = 138;
y = 374;
},
{
smooth = 0;
x = 138;
y = 498;
},
{
smooth = 0;
x = 211;
y = 570;
},
{
segmentType = curve;
smooth = 1;
x = 318;
y = 570;
},
{
smooth = 0;
x = 426;
y = 570;
},
{
smooth = 0;
x = 499;
y = 499;
},
{
segmentType = curve;
smooth = 0;
x = 499;
y = 375;
},
{
smooth = 0;
x = 499;
y = 251;
},
{
smooth = 0;
x = 426;
y = 179;
},
{
segmentType = curve;
smooth = 0;
x = 318;
y = 179;
},
{
smooth = 0;
x = 211;
y = 179;
},
{
smooth = 0;
x = 138;
y = 250;
}
);
}
);
lib = {
};
name = D;
unicodes = (
);
width = 733;
};
};
};
width = 647;
}
);
metricLeft = H;
metricRight = O;
note = "\012    D\012  ";
unicode = 68;
},
{
glyphname = Eth;
kernLeft = Eth;
kernRight = O;
layers = (
{
anchors = (
{
name = top;
pos = (355,681);
}
);
layerId = "344A0678-763D-4FBD-9EF6-1E94428A847E";
shapes = (
{
closed = 1;
nodes = (
(329,0,ls),
(525,0,o),
(670,121,o),
(670,339,cs),
(670,552,o),
(526,681,o),
(330,681,cs),
(106,681,l),
(106,0,l)
);
},
{
closed = 1;
nodes = (
(361,294,l),
(361,386,l),
(26,386,l),
(26,294,l)
);
},
{
closed = 1;
nodes = (
(206,623,l),
(169,587,l),
(325,587,ls),
(458,587,o),
(566,501,o),
(566,339,cs),
(566,171,o),
(457,94,o),
(324,94,cs),
(176,94,l),
(206,72,l)
);
}
);
userData = {
com.typemytype.robofont.guides = (
{
angle = 0;
isGlobal = 0;
magnetic = 5;
x = 316;
y = 340;
},
{
angle = 90;
isGlobal = 0;
magnetic = 5;
x = 23;
y = 397;
}
);
com.typemytype.robofont.mark = (
0.743,
0.775,
0.772,
1
);
};
width = 721;
},
{
anchors = (
{
name = top;
pos = (323,681);
}
);
layerId = "1CA3C852-39F9-4810-8045-E03244E0B506";
shapes = (
{
closed = 1;
nodes = (
(320,0,ls),
(541,0,o),
(665,127,o),
(665,341,cs),
(665,554,o),
(542,681,o),
(321,681,cs),
(72,681,l),
(72,0,l)
);
},
{
closed = 1;
nodes = (
(352,257,l),
(352,422,l),
(8,422,l),
(8,257,l)
);
},
{
closed = 1;
nodes = (
(253,552,l),
(167,505,l),
(307,505,ls),
(418,505,o),
(479,459,o),
(479,341,cs),
(479,222,o),
(417,176,o),
(306,176,cs),
(173,176,l),
(253,96,l)
);
}
);
userData = {
com.schriftgestaltung.Glyphs.lastChange = "2017-03-13 23:24:44 +0000";
com.typemytype.robofont.guides = (
{
angle = 0;
isGlobal = 0;
magnetic = 5;
x = 342;
y = 350;
}
);
com.typemytype.robofont.mark = (
0.743,
0.775,
0.772,
1
);
};
width = 686;
}
);
note = "\012    Eth\012  ";
unicode = 208;
},
{
glyphname = E;
kernLeft = H;
kernRight = E;
layers = (
{
anchors = (
{
name = bottom;
pos = (292,0);
},
{
name = ogonek;
pos = (499,0);
},
{
name = top;
pos = (292,681);
}
);
layerId = "344A0678-763D-4FBD-9EF6-1E94428A847E";
shapes = (
{
closed = 1;
nodes = (
(440,295,l),
(440,389,l),
(165,389,l),
(165,295,l)
);
},
{
closed = 1;
nodes = (
(499,587,l),
(499,681,l),
(85,681,l),
(85,0,l),
(499,0,l),
(499,95,l),
(157,95,l),
(185,79,l),
(185,619,l),
(162,587,l)
);
}
);
userData = {
com.typemytype.robofont.guides = (
{
angle = 90;
isGlobal = 0;
magnetic = 5;
x = 312;
y = 343;
},
{
angle = 90;
isGlobal = 0;
magnetic = 5;
x = 287;
y = 339;
}
);
};
width = 554;
},
{
anchors = (
{
name = bottom;
pos = (265,0);
},
{
name = ogonek;
pos = (489,0);
},
{
name = top;
pos = (265,681);
}
);
layerId = "1CA3C852-39F9-4810-8045-E03244E0B506";
shapes = (
{
closed = 1;
nodes = (
(436,254,l),
(436,427,l),
(152,427,l),
(152,254,l)
);
},
{
closed = 1;
nodes = (
(489,508,l),
(489,681,l),
(41,681,l),
(41,0,l),
(489,0,l),
(489,173,l),
(144,173,l),
(222,80,l),
(222,588,l),
(149,508,l)
);
}
);
userData = {
com.schriftgestaltung.Glyphs.lastChange = "2017-03-20 13:29:38 +0000";
com.typemytype.robofont.guides = (
{
angle = 90;
isGlobal = 0;
magnetic = 5;
x = 312;
y = 343;
},
{
angle = 90;
isGlobal = 0;
magnetic = 5;
x = 297;
y = 733;
}
);
com.typemytype.robofont.layerData = {
background = {
anchors = (
);
components = (
);
contours = (
{
points = (
{
segmentType = line;
smooth = 0;
x = 202;
y = 284;
},
{
segmentType = line;
smooth = 0;
x = 465;
y = 284;
},
{
segmentType = line;
smooth = 0;
x = 465;
y = 418;
},
{
segmentType = line;
smooth = 0;
x = 202;
y = 418;
}
);
}
);
lib = {
};
name = E;
unicodes = (
);
width = 584;
};
};
};
width = 521;
}
);
metricLeft = H;
note = "\012    E\012  ";
unicode = 69;
},
{
glyphname = F;
kernLeft = H;
kernRight = F;
layers = (
{
anchors = (
{
name = bottom;
pos = (135,0);
},
{
name = top;
pos = (283,681);
}
);
layerId = "344A0678-763D-4FBD-9EF6-1E94428A847E";
shapes = (
{
closed = 1;
nodes = (
(430,295,l),
(430,389,l),
(165,389,l),
(165,295,l)
);
},
{
closed = 1;
nodes = (
(185,619,l),
(162,587,l),
(489,587,l),
(489,681,l),
(85,681,l),
(85,0,l),
(185,0,l)
);
}
);
width = 519;
},
{
anchors = (
{
name = bottom;
pos = (132,0);
},
{
name = top;
pos = (266,681);
}
);
layerId = "1CA3C852-39F9-4810-8045-E03244E0B506";
shapes = (
{
closed = 1;
nodes = (
(445,229,l),
(445,405,l),
(161,405,l),
(161,229,l)
);
},
{
closed = 1;
nodes = (
(222,588,l),
(149,505,l),
(489,505,l),
(489,681,l),
(41,681,l),
(41,0,l),
(222,0,l)
);
}
);
userData = {
com.schriftgestaltung.Glyphs.lastChange = "2017-03-20 13:30:28 +0000";
com.typemytype.robofont.layerData = {
background = {
anchors = (
);
components = (
);
contours = (
{
points = (
{
segmentType = line;
smooth = 0;
x = 80;
y = 0;
},
{
segmentType = line;
smooth = 0;
x = 222;
y = 0;
},
{
segmentType = line;
smooth = 0;
x = 222;
y = 598;
},
{
segmentType = line;
smooth = 0;
x = 196;
y = 566;
},
{
segmentType = line;
smooth = 0;
x = 524;
y = 566;
},
{
segmentType = line;
smooth = 0;
x = 524;
y = 700;
},
{
segmentType = line;
smooth = 0;
x = 80;
y = 700;
}
);
},
{
points = (
{
segmentType = line;
smooth = 0;
x = 178;
y = 278;
},
{
segmentType = line;
smooth = 0;
x = 485;
y = 278;
},
{
segmentType = line;
smooth = 0;
x = 485;
y = 412;
},
{
segmentType = line;
smooth = 0;
x = 178;
y = 412;
}
);
}
);
lib = {
};
name = F;
unicodes = (
);
width = 564;
};
};
};
width = 508;
}
);
metricLeft = H;
note = "\012    F\012  ";
unicode = 70;
},
{
glyphname = G;
kernLeft = O;
kernRight = O;
layers = (
{
anchors = (
{
name = bottom;
pos = (374,0);
},
{
name = top;
pos = (376,681);
}
);
layerId = "344A0678-763D-4FBD-9EF6-1E94428A847E";
shapes = (
{
closed = 1;
nodes = (
(565,-10,o),
(708,130,o),
(708,300,cs),
(708,316,o),
(706,335,o),
(702,348,c),
(368,348,l),
(368,254,l),
(628,254,l),
(613,312,l),
(613,182,o),
(506,86,o),
(374,86,cs),
(236,86,o),
(132,193,o),
(132,340,cs),
(132,487,o),
(236,594,o),
(374,594,cs),
(456,594,o),
(526,570,o),
(587,486,c),
(685,515,l),
(622,622,o),
(529,690,o),
(374,690,cs),
(177,690,o),
(30,542,o),
(30,340,cs),
(30,139,o),
(167,-10,o),
(374,-10,cs)
);
}
);
width = 728;
},
{
anchors = (
{
name = bottom;
pos = (362,0);
},
{
name = top;
pos = (362,681);
}
);
layerId = "1CA3C852-39F9-4810-8045-E03244E0B506";
shapes = (
{
closed = 1;
nodes = (
(528,-14,o),
(686,100,o),
(686,300,cs),
(686,331,o),
(683,360,o),
(677,386,c),
(346,386,l),
(346,228,l),
(574,228,l),
(511,274,l),
(498,194,o),
(449,154,o),
(361,154,cs),
(264,154,o),
(199,222,o),
(199,331,cs),
(199,452,o),
(265,518,o),
(362,518,cs),
(435,518,o),
(483,483,o),
(514,419,c),
(674,491,l),
(624,624,o),
(518,694,o),
(362,694,cs),
(154,694,o),
(14,549,o),
(14,331,cs),
(14,131,o),
(154,-14,o),
(362,-14,cs)
);
}
);
userData = {
com.schriftgestaltung.Glyphs.lastChange = "2017-03-20 13:30:53 +0000";
com.typemytype.robofont.guides = (
{
angle = 90;
isGlobal = 0;
magnetic = 5;
x = 787;
y = 374;
}
);
com.typemytype.robofont.layerData = {
background = {
anchors = (
{
name = top;
x = 395;
y = 750;
},
{
name = bottom;
x = 395;
y = 0;
}
);
components = (
);
contours = (
{
points = (
{
segmentType = curve;
smooth = 0;
x = 599;
y = 266;
},
{
segmentType = line;
smooth = 0;
x = 632;
y = 241;
},
{
segmentType = line;
smooth = 0;
x = 381;
y = 241;
},
{
segmentType = line;
smooth = 0;
x = 381;
y = 365;
},
{
segmentType = line;
smooth = 0;
x = 731;
y = 365;
},
{
smooth = 0;
x = 737;
y = 345;
},
{
smooth = 0;
x = 738;
y = 329;
},
{
segmentType = curve;
smooth = 0;
x = 738;
y = 310;
},
{
smooth = 0;
x = 738;
y = 97;
},
{
smooth = 0;
x = 574;
y = -15;
},
{
segmentType = curve;
smooth = 0;
x = 397;
y = -15;
},
{
smooth = 0;
x = 197;
y = -15;
},
{
smooth = 0;
x = 40;
y = 137;
},
{
segmentType = curve;
smooth = 0;
x = 40;
y = 350;
},
{
smooth = 0;
x = 40;
y = 563;
},
{
smooth = 0;
x = 197;
y = 715;
},
{
segmentType = curve;
smooth = 1;
x = 397;
y = 715;
},
{
smooth = 0;
x = 557;
y = 715;
},
{
smooth = 0;
x = 688;
y = 631;
},
{
segmentType = curve;
smooth = 0;
x = 723;
y = 488;
},
{
segmentType = line;
smooth = 0;
x = 587;
y = 447;
},
{
smooth = 0;
x = 564;
y = 529;
},
{
smooth = 0;
x = 487;
y = 579;
},
{
segmentType = curve;
smooth = 1;
x = 399;
y = 579;
},
{
smooth = 0;
x = 260;
y = 579;
},
{
smooth = 0;
x = 186;
y = 463;
},
{
segmentType = curve;
smooth = 0;
x = 186;
y = 350;
},
{
smooth = 0;
x = 186;
y = 237;
},
{
smooth = 0;
x = 260;
y = 114;
},
{
segmentType = curve;
smooth = 1;
x = 399;
y = 114;
},
{
smooth = 0;
x = 507;
y = 114;
},
{
smooth = 0;
x = 599;
y = 173;
}
);
}
);
lib = {
};
name = G;
unicodes = (
);
width = 781;
};
};
};
width = 705;
}
);
metricLeft = O;
note = "\012    G\012  ";
unicode = 71;
},
{
glyphname = H;
kernLeft = H;
kernRight = H;
layers = (
{
anchors = (
{
name = bottom;
pos = (349,0);
},
{
name = center;
pos = (349,542);
},
{
name = top;
pos = (349,681);
},
{
name = topleft;
pos = (20,681);
}
);
layerId = "344A0678-763D-4FBD-9EF6-1E94428A847E";
shapes = (
{
closed = 1;
nodes = (
(613,0,l),
(613,681,l),
(513,681,l),
(513,0,l)
);
},
{
closed = 1;
nodes = (
(185,0,l),
(185,681,l),
(85,681,l),
(85,0,l)
);
},
{
closed = 1;
nodes = (
(543,286,l),
(543,380,l),
(151,380,l),
(151,286,l)
);
}
);
userData = {
com.typemytype.robofont.guides = (
{
angle = 90;
isGlobal = 0;
magnetic = 5;
x = 344;
y = 337;
}
);
com.typemytype.robofont.layerData = {
background = {
anchors = (
);
components = (
);
contours = (
{
points = (
{
smooth = 0;
x = 527;
y = 395;
},
{
smooth = 0;
x = 517;
y = 498;
},
{
segmentType = curve;
smooth = 1;
x = 379;
y = 498;
},
{
smooth = 0;
x = 301;
y = 498;
},
{
smooth = 0;
x = 228;
y = 462;
},
{
segmentType = curve;
smooth = 0;
x = 172;
y = 399;
},
{
segmentType = line;
smooth = 0;
x = 197;
y = 402;
},
{
segmentType = line;
smooth = 0;
x = 176;
y = 488;
},
{
segmentType = line;
smooth = 0;
x = 100;
y = 488;
},
{
segmentType = line;
smooth = 0;
x = 100;
y = 0;
},
{
segmentType = line;
smooth = 0;
x = 200;
y = 0;
},
{
segmentType = line;
smooth = 0;
x = 200;
y = 359;
},
{
segmentType = line;
smooth = 0;
x = 184;
y = 359;
},
{
segmentType = line;
smooth = 0;
x = 184;
y = 303;
},
{
smooth = 0;
x = 211;
y = 356;
},
{
smooth = 0;
x = 283;
y = 400;
},
{
segmentType = curve;
smooth = 1;
x = 348;
y = 400;
},
{
smooth = 0;
x = 391;
y = 400;
},
{
smooth = 0;
x = 427;
y = 381;
},
{
segmentType = curve;
smooth = 1;
x = 427;
y = 312;
},
{
segmentType = line;
smooth = 0;
x = 427;
y = 0;
},
{
segmentType = line;
smooth = 0;
x = 527;
y = 0;
},
{
segmentType = line;
smooth = 1;
x = 527;
y = 291;
}
);
}
);
lib = {
};
name = H;
unicodes = (
);
width = 728;
};
};
};
width = 698;
},
{
anchors = (
{
name = bottom;
pos = (331,0);
},
{
name = center;
pos = (331,559);
},
{
name = top;
pos = (331,681);
},
{
name = topleft;
pos = (18,681);
}
);
layerId = "1CA3C852-39F9-4810-8045-E03244E0B506";
shapes = (
{
closed = 1;
nodes = (
(622,0,l),
(622,681,l),
(440,681,l),
(440,0,l)
);
},
{
closed = 1;
nodes = (
(222,0,l),
(222,681,l),
(41,681,l),
(41,0,l)
);
},
{
closed = 1;
nodes = (
(504,246,l),
(504,422,l),
(157,422,l),
(157,246,l)
);
}
);
userData = {
com.schriftgestaltung.Glyphs.lastChange = "2017-03-20 13:32:14 +0000";
com.typemytype.robofont.guides = (
{
angle = 90;
isGlobal = 0;
magnetic = 5;
x = 366;
y = 345;
}
);
com.typemytype.robofont.layerData = {
background = {
anchors = (
{
name = top;
x = 371;
y = 750;
}
);
components = (
);
contours = (
{
points = (
{
segmentType = curve;
smooth = 1;
x = 590;
y = 349;
},
{
smooth = 0;
x = 645;
y = 349;
},
{
smooth = 0;
x = 690;
y = 394;
},
{
segmentType = curve;
smooth = 1;
x = 690;
y = 450;
},
{
smooth = 0;
x = 690;
y = 505;
},
{
smooth = 0;
x = 645;
y = 550;
},
{
segmentType = curve;
smooth = 1;
x = 590;
y = 550;
},
{
smooth = 0;
x = 535;
y = 550;
},
{
smooth = 0;
x = 490;
y = 505;
},
{
segmentType = curve;
smooth = 1;
x = 490;
y = 450;
},
{
smooth = 0;
x = 490;
y = 394;
},
{
smooth = 0;
x = 535;
y = 349;
}
);
}
);
lib = {
};
name = H;
unicodes = (
);
width = 740;
};
};
};
width = 663;
}
);
note = "\012    H\012  ";
unicode = 72;
},
{
glyphname = I;
kernLeft = H;
kernRight = H;
layers = (
{
anchors = (
{
name = bottom;
pos = (135,0);
},
{
name = ogonek;
pos = (185,0);
},
{
name = top;
pos = (135,681);
}
);
layerId = "344A0678-763D-4FBD-9EF6-1E94428A847E";
shapes = (
{
closed = 1;
nodes = (
(185,681,l),
(85,681,l),
(85,0,l),
(185,0,l)
);
}
);
userData = {
com.typemytype.robofont.guides = (
{
angle = 0;
isGlobal = 0;
magnetic = 5;
showMeasurements = 1;
x = 337;
y = 550;
},
{
angle = 90;
isGlobal = 0;
magnetic = 5;
x = 152;
y = 399;
}
);
};
width = 270;
},
{
anchors = (
{
name = bottom;
pos = (132,0);
},
{
name = ogonek;
pos = (222,0);
},
{
name = top;
pos = (132,681);
}
);
layerId = "1CA3C852-39F9-4810-8045-E03244E0B506";
shapes = (
{
closed = 1;
nodes = (
(222,681,l),
(41,681,l),
(41,0,l),
(222,0,l)
);
}
);
userData = {
com.schriftgestaltung.Glyphs.lastChange = "2017-03-20 18:18:23 +0000";
com.typemytype.robofont.guides = (
{
angle = 0;
isGlobal = 0;
magnetic = 5;
showMeasurements = 1;
x = 337;
y = 550;
},
{
angle = 90;
isGlobal = 0;
magnetic = 5;
x = 150;
y = 390;
}
);
};
width = 263;
}
);
metricLeft = H;
metricRight = H;
note = "\012    I\012  ";
unicode = 73;
},
{
glyphname = J;
kernLeft = J;
kernRight = U;
layers = (
{
anchors = (
{
name = top;
pos = (399,681);
}
);
layerId = "344A0678-763D-4FBD-9EF6-1E94428A847E";
shapes = (
{
closed = 1;
nodes = (
(185,79,o),
(149,113,o),
(149,192,cs),
(149,227,l),
(47,227,l),
(47,186,ls),
(47,55,o),
(127,-15,o),
(249,-15,cs),
(369,-15,o),
(450,67,o),
(450,189,cs),
(450,681,l),
(348,681,l),
(348,189,ls),
(348,121,o),
(313,79,o),
(248,79,cs)
);
}
);
userData = {
com.typemytype.robofont.guides = (
{
angle = 90;
isGlobal = 0;
magnetic = 5;
x = 251;
y = 178;
},
{
angle = 90;
isGlobal = 0;
magnetic = 5;
x = 392;
y = 674;
}
);
};
width = 530;
},
{
anchors = (
{
name = top;
pos = (435,681);
}
);
layerId = "1CA3C852-39F9-4810-8045-E03244E0B506";
shapes = (
{
closed = 1;
nodes = (
(225,163,o),
(197,191,o),
(197,239,cs),
(197,276,l),
(15,276,l),
(15,239,ls),
(15,90,o),
(94,-14,o),
(271,-14,cs),
(448,-14,o),
(526,95,o),
(526,245,cs),
(526,681,l),
(344,681,l),
(344,241,ls),
(344,191,o),
(316,163,o),
(271,163,cs)
);
}
);
userData = {
com.schriftgestaltung.Glyphs.lastChange = "2017-03-13 23:31:04 +0000";
com.typemytype.robofont.guides = (
{
angle = 90;
isGlobal = 0;
magnetic = 5;
x = 251;
y = 178;
},
{
angle = 90;
isGlobal = 0;
magnetic = 5;
x = 382;
y = 683;
},
{
angle = 90;
isGlobal = 0;
magnetic = 5;
x = 232;
y = 216;
},
{
angle = 90;
isGlobal = 0;
magnetic = 5;
x = 301;
y = 194;
}
);
com.typemytype.robofont.layerData = {
background = {
anchors = (
{
name = top;
x = 482;
y = 780;
}
);
components = (
);
contours = (
{
points = (
{
segmentType = line;
smooth = 0;
x = 286;
y = -155;
},
{
smooth = 0;
x = 491;
y = -155;
},
{
smooth = 0;
x = 582;
y = -35;
},
{
segmentType = curve;
smooth = 1;
x = 582;
y = 130;
},
{
segmentType = line;
smooth = 0;
x = 582;
y = 750;
},
{
segmentType = line;
smooth = 0;
x = 382;
y = 750;
},
{
segmentType = line;
smooth = 1;
x = 382;
y = 125;
},
{
smooth = 0;
x = 382;
y = 68;
},
{
smooth = 0;
x = 350;
y = 39;
},
{
segmentType = curve;
smooth = 0;
x = 286;
y = 39;
}
);
}
);
lib = {
};
name = J;
unicodes = (
);
width = 622;
};
mask = {
anchors = (
);
components = (
);
contours = (
{
points = (
{
segmentType = line;
smooth = 0;
x = 572;
y = 0;
},
{
segmentType = line;
smooth = 0;
x = 572;
y = 750;
},
{
segmentType = line;
smooth = 0;
x = 372;
y = 750;
},
{
segmentType = line;
smooth = 0;
x = 372;
y = 0;
}
);
}
);
lib = {
};
name = J;
unicodes = (
);
width = 622;
};
};
};
width = 565;
}
);
metricRight = U;
note = "\012    J\012  ";
unicode = 74;
},
{
glyphname = K;
kernLeft = H;
kernRight = K;
layers = (
{
anchors = (
{
name = bottom;
pos = (329,0);
},
{
name = top;
pos = (325,681);
}
);
layerId = "344A0678-763D-4FBD-9EF6-1E94428A847E";
shapes = (
{
closed = 1;
nodes = (
(185,0,l),
(185,681,l),
(85,681,l),
(85,0,l)
);
},
{
closed = 1;
nodes = (
(606,0,l),
(249,369,l),
(239,310,l),
(600,681,l),
(475,681,l),
(148,345,l),
(148,334,l),
(471,0,l)
);
}
);
userData = {
com.typemytype.robofont.guides = (
{
angle = 0;
isGlobal = 0;
magnetic = 5;
x = 489.892;
y = 404.141;
},
{
angle = 90;
isGlobal = 0;
magnetic = 5;
x = 620;
y = 16;
}
);
};
width = 611;
},
{
anchors = (
{
name = bottom;
pos = (319,0);
},
{
name = top;
pos = (324,681);
}
);
layerId = "1CA3C852-39F9-4810-8045-E03244E0B506";
shapes = (
{
closed = 1;
nodes = (
(222,0,l),
(222,681,l),
(41,681,l),
(41,0,l)
);
},
{
closed = 1;
nodes = (
(640,0,l),
(357,357,l),
(357,324,l),
(644,681,l),
(420,681,l),
(159,356,l),
(159,324,l),
(408,0,l)
);
}
);
userData = {
com.schriftgestaltung.Glyphs.lastChange = "2017-03-20 13:32:47 +0000";
com.typemytype.robofont.guides = (
{
angle = 0;
isGlobal = 0;
magnetic = 5;
x = 489.892;
y = 404.141;
}
);
com.typemytype.robofont.layerData = {
background = {
anchors = (
{
name = bottom;
x = 334;
y = 0;
}
);
components = (
);
contours = (
{
points = (
{
segmentType = line;
smooth = 0;
x = 230;
y = 0;
},
{
segmentType = line;
smooth = 0;
x = 88;
y = 0;
},
{
segmentType = line;
smooth = 0;
x = 88;
y = 700;
},
{
segmentType = line;
smooth = 0;
x = 230;
y = 700;
}
);
},
{
points = (
{
segmentType = line;
smooth = 0;
x = 191;
y = 355;
},
{
segmentType = line;
smooth = 0;
x = 468;
y = 700;
},
{
segmentType = line;
smooth = 0;
x = 637;
y = 700;
},
{
segmentType = line;
smooth = 0;
x = 332;
y = 320;
},
{
segmentType = line;
smooth = 0;
x = 332;
y = 380;
},
{
segmentType = line;
smooth = 0;
x = 633;
y = 0;
},
{
segmentType = line;
smooth = 0;
x = 464;
y = 0;
},
{
segmentType = line;
smooth = 0;
x = 191;
y = 344;
}
);
},
{
points = (
{
segmentType = line;
smooth = 0;
x = 426;
y = 392;
},
{
segmentType = line;
smooth = 0;
x = 714;
y = 750;
},
{
segmentType = line;
smooth = 0;
x = 930;
y = 750;
},
{
segmentType = line;
smooth = 0;
x = 625;
y = 357;
},
{
segmentType = line;
smooth = 0;
x = 625;
y = 393;
},
{
segmentType = line;
smooth = 0;
x = 926;
y = 0;
},
{
segmentType = line;
smooth = 0;
x = 700;
y = 0;
},
{
segmentType = line;
smooth = 0;
x = 426;
y = 357;
}
);
}
);
lib = {
};
name = K;
unicodes = (
);
width = 719;
};
};
};
width = 647;
}
);
metricLeft = H;
note = "\012    K\012  ";
unicode = 75;
},
{
glyphname = L;
kernLeft = H;
kernRight = L;
layers = (
{
anchors = (
{
name = bottom;
pos = (290,0);
},
{
name = center;
pos = (252,341);
},
{
name = top;
pos = (135,681);
},
{
name = topright;
pos = (271,681);
}
);
layerId = "344A0678-763D-4FBD-9EF6-1E94428A847E";
shapes = (
{
closed = 1;
nodes = (
(479,94,l),
(173,94,l),
(185,80,l),
(185,681,l),
(85,681,l),
(85,0,l),
(479,0,l)
);
}
);
userData = {
com.typemytype.robofont.guides = (
{
angle = 90;
isGlobal = 0;
magnetic = 5;
x = 130;
y = 694;
}
);
};
width = 504;
},
{
anchors = (
{
name = bottom;
pos = (263,0);
},
{
name = center;
pos = (245,341);
},
{
name = top;
pos = (132,681);
},
{
name = topright;
pos = (281,681);
}
);
layerId = "1CA3C852-39F9-4810-8045-E03244E0B506";
shapes = (
{
closed = 1;
nodes = (
(471,176,l),
(166,176,l),
(222,91,l),
(222,681,l),
(41,681,l),
(41,0,l),
(471,0,l)
);
}
);
userData = {
com.schriftgestaltung.Glyphs.lastChange = "2017-03-13 23:23:55 +0000";
com.typemytype.robofont.guides = (
{
angle = 90;
isGlobal = 0;
magnetic = 5;
x = 150;
y = 793;
},
{
angle = 90;
isGlobal = 0;
magnetic = 5;
x = 287;
y = -2;
}
);
};
width = 489;
}
);
metricLeft = H;
note = "\012    L\012  ";
unicode = 76;
},
{
glyphname = Lslash;
kernLeft = Lslash;
kernRight = L;
layers = (
{
anchors = (
{
name = bottom;
pos = (293,0);
},
{
name = top;
pos = (134,681);
}
);
layerId = "344A0678-763D-4FBD-9EF6-1E94428A847E";
shapes = (
{
closed = 1;
nodes = (
(426,437,l),
(391,498,l),
(4,313,l),
(39,252,l)
);
},
{
closed = 1;
nodes = (
(478,94,l),
(172,94,l),
(184,80,l),
(184,681,l),
(84,681,l),
(84,0,l),
(478,0,l)
);
}
);
userData = {
com.typemytype.robofont.layerData = {
background = {
anchors = (
);
components = (
);
contours = (
{
points = (
{
segmentType = line;
smooth = 0;
x = 40;
y = 252;
},
{
segmentType = line;
smooth = 0;
x = 318;
y = 418;
},
{
segmentType = line;
smooth = 0;
x = 283;
y = 479;
},
{
segmentType = line;
smooth = 0;
x = 5;
y = 313;
}
);
},
{
points = (
{
segmentType = line;
smooth = 0;
x = 494;
y = 0;
},
{
segmentType = line;
smooth = 0;
x = 494;
y = 94;
},
{
segmentType = line;
smooth = 0;
x = 188;
y = 94;
},
{
segmentType = line;
smooth = 0;
x = 200;
y = 80;
},
{
segmentType = line;
smooth = 0;
x = 200;
y = 680;
},
{
segmentType = line;
smooth = 0;
x = 100;
y = 680;
},
{
segmentType = line;
smooth = 0;
x = 100;
y = 0;
}
);
}
);
lib = {
};
name = Lslash;
unicodes = (
);
width = 504;
};
};
};
width = 503;
},
{
anchors = (
{
name = bottom;
pos = (317,1);
},
{
name = top;
pos = (192,681);
}
);
layerId = "1CA3C852-39F9-4810-8045-E03244E0B506";
shapes = (
{
closed = 1;
nodes = (
(495,412,l),
(434,531,l),
(12,335,l),
(68,212,l)
);
},
{
closed = 1;
nodes = (
(532,176,l),
(227,176,l),
(283,91,l),
(283,681,l),
(102,681,l),
(102,0,l),
(532,0,l)
);
}
);
width = 550;
}
);
metricRight = L;
unicode = 321;
},
{
glyphname = M;
kernLeft = M;
kernRight = M;
layers = (
{
anchors = (
{
name = bottom;
pos = (439,0);
},
{
name = top;
pos = (439,681);
}
);
layerId = "344A0678-763D-4FBD-9EF6-1E94428A847E";
shapes = (
{
closed = 1;
nodes = (
(141,0,l),
(196,324,ls),
(212,417,o),
(223,508,o),
(226,600,c),
(201,600,l),
(225,489,o),
(249,414,o),
(283,324,cs),
(400,11,l),
(477,11,l),
(594,324,ls),
(627,413,o),
(652,489,o),
(676,600,c),
(651,600,l),
(654,508,o),
(665,417,o),
(681,324,cs),
(736,0,l),
(841,0,l),
(716,681,l),
(627,681,l),
(440,184,l),
(437,184,l),
(250,681,l),
(161,681,l),
(36,0,l)
);
}
);
width = 877;
},
{
anchors = (
{
name = bottom;
pos = (427,0);
},
{
name = top;
pos = (427,681);
}
);
guides = (
{
angle = 251.8366;
pos = (461,263);
}
);
layerId = "1CA3C852-39F9-4810-8045-E03244E0B506";
shapes = (
{
closed = 1;
nodes = (
(187,0,l),
(228,289,ls),
(238,361,o),
(247,434,o),
(256,507,c),
(203,507,l),
(222,436,o),
(236,363,o),
(260,293,cs),
(355,5,l),
(498,5,l),
(593,293,ls),
(616,363,o),
(630,436,o),
(649,507,c),
(597,507,l),
(606,434,o),
(615,361,o),
(625,289,cs),
(666,0,l),
(844,0,l),
(726,681,l),
(564,681,l),
(419,239,l),
(434,239,l),
(289,681,l),
(126,681,l),
(9,0,l)
);
}
);
userData = {
com.schriftgestaltung.Glyphs.lastChange = "2017-03-13 23:23:55 +0000";
com.typemytype.robofont.layerData = {
background = {
anchors = (
);
components = (
);
contours = (
{
points = (
{
segmentType = line;
smooth = 0;
x = 51;
y = 0;
},
{
segmentType = line;
smooth = 0;
x = 191;
y = 0;
},
{
segmentType = line;
smooth = 0;
x = 244;
y = 324;
},
{
segmentType = line;
smooth = 0;
x = 262;
y = 508;
},
{
segmentType = line;
smooth = 0;
x = 243;
y = 508;
},
{
smooth = 0;
x = 243;
y = 508;
},
{
smooth = 0;
x = 288;
y = 366;
},
{
segmentType = curve;
smooth = 1;
x = 298;
y = 339;
},
{
segmentType = line;
smooth = 0;
x = 418;
y = 11;
},
{
segmentType = line;
smooth = 0;
x = 521;
y = 11;
},
{
segmentType = line;
smooth = 1;
x = 641;
y = 339;
},
{
smooth = 0;
x = 651;
y = 366;
},
{
smooth = 0;
x = 696;
y = 508;
},
{
segmentType = curve;
smooth = 0;
x = 696;
y = 508;
},
{
segmentType = line;
smooth = 0;
x = 677;
y = 508;
},
{
segmentType = line;
smooth = 0;
x = 695;
y = 324;
},
{
segmentType = line;
smooth = 0;
x = 748;
y = 0;
},
{
segmentType = line;
smooth = 0;
x = 888;
y = 0;
},
{
segmentType = line;
smooth = 0;
x = 773;
y = 700;
},
{
segmentType = line;
smooth = 0;
x = 645;
y = 700;
},
{
segmentType = line;
smooth = 0;
x = 471;
y = 251;
},
{
segmentType = line;
smooth = 0;
x = 468;
y = 251;
},
{
segmentType = line;
smooth = 0;
x = 294;
y = 700;
},
{
segmentType = line;
smooth = 0;
x = 166;
y = 700;
}
);
}
);
lib = {
};
name = M;
unicodes = (
);
width = 939;
};
mask = {
anchors = (
);
components = (
);
contours = (
{
points = (
{
segmentType = line;
smooth = 0;
x = 206;
y = 0;
},
{
segmentType = line;
smooth = 0;
x = 263;
y = 400;
},
{
segmentType = line;
smooth = 0;
x = 287;
y = 307;
},
{
segmentType = line;
smooth = 0;
x = 393;
y = 0;
}
);
},
{
points = (
{
segmentType = line;
smooth = 0;
x = 733;
y = 0;
},
{
segmentType = line;
smooth = 0;
x = 546;
y = 0;
},
{
segmentType = line;
smooth = 0;
x = 652;
y = 307;
},
{
segmentType = line;
smooth = 0;
x = 676;
y = 400;
}
);
},
{
points = (
{
segmentType = line;
smooth = 0;
x = 382;
y = 750;
},
{
segmentType = line;
smooth = 0;
x = 569;
y = 750;
},
{
segmentType = line;
smooth = 0;
x = 493;
y = 443;
},
{
segmentType = line;
smooth = 0;
x = 469;
y = 350;
}
);
}
);
lib = {
};
name = M;
unicodes = (
);
width = 939;
};
};
};
width = 853;
}
);
note = "\012    M\012  ";
unicode = 77;
},
{
glyphname = N;
kernLeft = H;
kernRight = H;
layers = (
{
anchors = (
{
name = bottom;
pos = (372,0);
},
{
name = top;
pos = (372,681);
}
);
layerId = "344A0678-763D-4FBD-9EF6-1E94428A847E";
shapes = (
{
closed = 1;
nodes = (
(654,0,l),
(654,681,l),
(554,681,l),
(554,130,l),
(595,130,l),
(170,681,l),
(85,681,l),
(85,0,l),
(185,0,l),
(185,587,l),
(129,571,l),
(569,0,l)
);
}
);
userData = {
com.typemytype.robofont.guides = (
{
angle = 90;
isGlobal = 0;
magnetic = 5;
x = 385;
y = 351;
}
);
};
width = 739;
},
{
anchors = (
{
name = bottom;
pos = (354,0);
},
{
name = top;
pos = (347,681);
}
);
layerId = "1CA3C852-39F9-4810-8045-E03244E0B506";
shapes = (
{
closed = 1;
nodes = (
(644,0,l),
(644,681,l),
(462,681,l),
(462,209,l),
(530,227,l),
(210,681,l),
(41,681,l),
(41,0,l),
(222,0,l),
(222,472,l),
(154,454,l),
(475,0,l)
);
}
);
userData = {
com.schriftgestaltung.Glyphs.lastChange = "2017-03-20 13:33:33 +0000";
com.typemytype.robofont.guides = (
{
angle = 90;
isGlobal = 0;
magnetic = 5;
x = 387;
y = 368;
},
{
angle = 90;
isGlobal = 0;
magnetic = 5;
x = 240;
y = 449;
}
);
};
width = 685;
}
);
metricLeft = H;
metricRight = H;
note = "\012    N\012  ";
unicode = 78;
},
{
glyphname = Eng;
kernLeft = H;
kernRight = H;
layers = (
{
layerId = "344A0678-763D-4FBD-9EF6-1E94428A847E";
shapes = (
{
closed = 1;
nodes = (
(185,0,l),
(185,498,l),
(554,19,l),
(554,-40,ls),
(554,-70,o),
(541,-88,o),
(514,-88,cs),
(501,-88,o),
(490,-85,o),
(483,-83,c),
(483,-167,l),
(489,-170,o),
(509,-178,o),
(543,-178,cs),
(621,-178,o),
(654,-114,o),
(654,-37,cs),
(654,681,l),
(554,681,l),
(554,183,l),
(170,681,l),
(85,681,l),
(85,0,l)
);
}
);
width = 739;
},
{
layerId = "1CA3C852-39F9-4810-8045-E03244E0B506";
shapes = (
{
closed = 1;
nodes = (
(222,0,l),
(222,358,l),
(462,18,l),
(462,-9,ls),
(462,-42,o),
(449,-62,o),
(426,-62,cs),
(409,-62,o),
(401,-61,o),
(393,-59,c),
(393,-212,l),
(400,-215,o),
(426,-222,o),
(461,-222,cs),
(591,-222,o),
(644,-143,o),
(644,-57,cs),
(644,681,l),
(462,681,l),
(462,323,l),
(210,681,l),
(41,681,l),
(41,0,l)
);
}
);
width = 685;
}
);
metricLeft = H;
metricRight = H;
unicode = 330;
},
{
glyphname = O;
kernLeft = O;
kernRight = O;
layers = (
{
anchors = (
{
name = bottom;
pos = (401,0);
},
{
name = center;
pos = (383,341);
},
{
name = ogonek;
pos = (470,0);
},
{
name = top;
pos = (382,681);
},
{
name = topleft;
pos = (20,681);
},
{
name = topright;
pos = (745,681);
}
);
layerId = "344A0678-763D-4FBD-9EF6-1E94428A847E";
shapes = (
{
closed = 1;
nodes = (
(30,139,o),
(181,-10,o),
(384,-10,cs),
(585,-10,o),
(735,139,o),
(735,340,cs),
(735,542,o),
(585,690,o),
(384,690,cs),
(181,690,o),
(30,542,o),
(30,340,cs)
);
},
{
closed = 1;
nodes = (
(132,487,o),
(240,594,o),
(384,594,cs),
(527,594,o),
(633,487,o),
(633,340,cs),
(633,193,o),
(527,86,o),
(384,86,cs),
(240,86,o),
(132,193,o),
(132,340,cs)
);
}
);
userData = {
com.typemytype.robofont.guides = (
{
angle = 90;
isGlobal = 0;
magnetic = 5;
x = 403;
y = 369;
},
{
angle = 0;
isGlobal = 0;
magnetic = 5;
x = 408;
y = 340;
}
);
};
width = 765;
},
{
anchors = (
{
name = bottom;
pos = (362,0);
},
{
name = center;
pos = (363,341);
},
{
name = ogonek;
pos = (453,0);
},
{
name = top;
pos = (362,681);
},
{
name = topleft;
pos = (18,681);
},
{
name = topright;
pos = (707,681);
}
);
layerId = "1CA3C852-39F9-4810-8045-E03244E0B506";
shapes = (
{
closed = 1;
nodes = (
(14,131,o),
(154,-14,o),
(362,-14,cs),
(571,-14,o),
(712,131,o),
(712,340,cs),
(712,549,o),
(571,695,o),
(362,695,cs),
(154,695,o),
(14,549,o),
(14,340,cs)
);
},
{
closed = 1;
nodes = (
(199,452,o),
(265,515,o),
(362,515,cs),
(460,515,o),
(527,453,o),
(527,341,cs),
(527,228,o),
(460,166,o),
(362,166,cs),
(265,166,o),
(199,227,o),
(199,340,cs)
);
}
);
userData = {
com.schriftgestaltung.Glyphs.lastChange = "2017-03-13 23:23:55 +0000";
com.typemytype.robofont.guides = (
{
angle = 90;
isGlobal = 0;
magnetic = 5;
x = 572;
y = 833;
}
);
com.typemytype.robofont.layerData = {
background = {
anchors = (
{
name = top;
x = 399;
y = 750;
},
{
name = ogonek;
x = 493;
y = 0;
},
{
name = bottom;
x = 399;
y = 0;
}
);
components = (
);
contours = (
{
points = (
{
segmentType = curve;
smooth = 0;
x = 186;
y = 376;
},
{
smooth = 0;
x = 186;
y = 536;
},
{
smooth = 0;
x = 290;
y = 606;
},
{
segmentType = curve;
smooth = 0;
x = 399;
y = 604;
},
{
smooth = 0;
x = 504;
y = 606;
},
{
smooth = 0;
x = 613;
y = 536;
},
{
segmentType = curve;
smooth = 1;
x = 613;
y = 374;
},
{
smooth = 0;
x = 613;
y = 216;
},
{
smooth = 0;
x = 504;
y = 147;
},
{
segmentType = curve;
smooth = 1;
x = 399;
y = 147;
},
{
smooth = 0;
x = 290;
y = 147;
},
{
smooth = 0;
x = 186;
y = 216;
}
);
},
{
points = (
{
segmentType = curve;
smooth = 0;
x = 40;
y = 375;
},
{
smooth = 0;
x = 40;
y = 147;
},
{
smooth = 0;
x = 207;
y = 11;
},
{
segmentType = curve;
smooth = 0;
x = 399;
y = 11;
},
{
smooth = 0;
x = 587;
y = 11;
},
{
smooth = 0;
x = 759;
y = 147;
},
{
segmentType = curve;
smooth = 1;
x = 759;
y = 375;
},
{
smooth = 0;
x = 759;
y = 605;
},
{
smooth = 0;
x = 587;
y = 740;
},
{
segmentType = curve;
smooth = 1;
x = 399;
y = 740;
},
{
smooth = 0;
x = 207;
y = 740;
},
{
smooth = 0;
x = 40;
y = 605;
}
);
}
);
lib = {
};
name = O;
unicodes = (
);
width = 799;
};
};
};
width = 725;
}
);
note = "\012    O\012  ";
unicode = 79;
},
{
glyphname = Oslash;
kernLeft = O;
kernRight = O;
layers = (
{
anchors = (
{
name = bottom;
pos = (401,0);
},
{
name = ogonek;
pos = (470,0);
},
{
name = top;
pos = (407,730);
}
);
layerId = "344A0678-763D-4FBD-9EF6-1E94428A847E";
shapes = (
{
closed = 1;
nodes = (
(628,724,l),
(55,8,l),
(125,-43,l),
(696,672,l)
);
},
{
closed = 1;
nodes = (
(30,139,o),
(181,-10,o),
(384,-10,cs),
(585,-10,o),
(735,139,o),
(735,340,cs),
(735,542,o),
(585,690,o),
(384,690,cs),
(181,690,o),
(30,542,o),
(30,340,cs)
);
},
{
closed = 1;
nodes = (
(132,487,o),
(240,594,o),
(384,594,cs),
(527,594,o),
(633,487,o),
(633,340,cs),
(633,193,o),
(527,86,o),
(384,86,cs),
(240,86,o),
(132,193,o),
(132,340,cs)
);
}
);
userData = {
com.typemytype.robofont.guides = (
{
angle = 90;
isGlobal = 0;
magnetic = 5;
x = 283;
y = 416;
},
{
angle = 0;
isGlobal = 0;
magnetic = 5;
x = 413;
y = 340;
},
{
angle = 90;
isGlobal = 0;
magnetic = 5;
x = 412;
y = 340;
}
);
com.typemytype.robofont.layerData = {
background = {
anchors = (
);
components = (
);
contours = (
{
points = (
{
segmentType = curve;
smooth = 1;
x = 162;
y = 340;
},
{
smooth = 0;
x = 162;
y = 487;
},
{
smooth = 0;
x = 270;
y = 594;
},
{
segmentType = curve;
smooth = 1;
x = 414;
y = 594;
},
{
smooth = 0;
x = 557;
y = 594;
},
{
smooth = 0;
x = 663;
y = 487;
},
{
segmentType = curve;
smooth = 1;
x = 663;
y = 340;
},
{
smooth = 0;
x = 663;
y = 193;
},
{
smooth = 0;
x = 557;
y = 86;
},
{
segmentType = curve;
smooth = 1;
x = 414;
y = 86;
},
{
smooth = 0;
x = 270;
y = 86;
},
{
smooth = 0;
x = 162;
y = 193;
}
);
},
{
points = (
{
segmentType = curve;
smooth = 1;
x = 60;
y = 340;
},
{
smooth = 0;
x = 60;
y = 139;
},
{
smooth = 0;
x = 211;
y = -10;
},
{
segmentType = curve;
smooth = 1;
x = 414;
y = -10;
},
{
smooth = 0;
x = 615;
y = -10;
},
{
smooth = 0;
x = 765;
y = 139;
},
{
segmentType = curve;
smooth = 0;
x = 765;
y = 340;
},
{
smooth = 0;
x = 765;
y = 542;
},
{
smooth = 0;
x = 615;
y = 690;
},
{
segmentType = curve;
smooth = 1;
x = 414;
y = 690;
},
{
smooth = 0;
x = 211;
y = 690;
},
{
smooth = 0;
x = 60;
y = 542;
}
);
}
);
lib = {
};
name = Oslash;
unicodes = (
);
width = 825;
};
};
com.typemytype.robofont.mark = (
0.743,
0.775,
0.772,
1
);
};
width = 765;
},
{
anchors = (
{
name = bottom;
pos = (362,0);
},
{
name = ogonek;
pos = (453,0);
},
{
name = top;
pos = (366,681);
}
);
layerId = "1CA3C852-39F9-4810-8045-E03244E0B506";
shapes = (
{
closed = 1;
nodes = (
(546,713,l),
(48,68,l),
(186,-32,l),
(684,613,l)
);
},
{
closed = 1;
nodes = (
(14,131,o),
(154,-14,o),
(362,-14,cs),
(571,-14,o),
(712,131,o),
(712,340,cs),
(712,549,o),
(571,695,o),
(362,695,cs),
(154,695,o),
(14,549,o),
(14,340,cs)
);
},
{
closed = 1;
nodes = (
(199,452,o),
(265,515,o),
(362,515,cs),
(460,515,o),
(527,453,o),
(527,341,cs),
(527,228,o),
(460,166,o),
(362,166,cs),
(265,166,o),
(199,227,o),
(199,340,cs)
);
}
);
userData = {
com.schriftgestaltung.Glyphs.lastChange = "2017-03-13 23:24:44 +0000";
com.typemytype.robofont.guides = (
{
angle = 90;
isGlobal = 0;
magnetic = 5;
x = 403;
y = 369;
},
{
angle = 0;
isGlobal = 0;
magnetic = 5;
x = 433;
y = 765;
}
);
com.typemytype.robofont.layerData = {
background = {
anchors = (
);
components = (
);
contours = (
{
points = (
{
segmentType = line;
smooth = 0;
x = 615;
y = 801;
},
{
segmentType = line;
smooth = 0;
x = 15;
y = 26;
},
{
segmentType = line;
smooth = 0;
x = 166;
y = -84;
},
{
segmentType = line;
smooth = 0;
x = 766;
y = 691;
}
);
}
);
lib = {
};
name = Oslash;
unicodes = (
);
width = 799;
};
};
com.typemytype.robofont.mark = (
0.743,
0.775,
0.772,
1
);
};
width = 725;
}
);
metricLeft = O;
metricRight = O;
note = "\012    Oslash\012  ";
unicode = 216;
},
{
glyphname = OE;
kernLeft = O;
kernRight = E;
layers = (
{
anchors = (
{
name = bottom;
pos = (521,0);
},
{
name = top;
pos = (538,681);
}
);
layerId = "344A0678-763D-4FBD-9EF6-1E94428A847E";
shapes = (
{
closed = 1;
nodes = (
(522,-10,o),
(655,139,o),
(655,340,cs),
(655,543,o),
(522,691,o),
(344,691,cs),
(164,691,o),
(30,543,o),
(30,340,cs),
(30,139,o),
(164,-10,o),
(344,-10,cs)
);
},
{
closed = 1;
nodes = (
(227,86,o),
(132,193,o),
(132,340,cs),
(132,488,o),
(227,595,o),
(354,595,cs),
(485,595,o),
(583,488,o),
(583,340,cs),
(583,193,o),
(485,86,o),
(354,86,cs)
);
},
{
closed = 1;
nodes = (
(987,0,l),
(987,94,l),
(655,94,l),
(683,78,l),
(683,619,l),
(660,587,l),
(987,587,l),
(987,681,l),
(587,681,l),
(587,0,l)
);
},
{
closed = 1;
nodes = (
(928,295,l),
(928,389,l),
(663,389,l),
(663,295,l)
);
}
);
userData = {
com.typemytype.robofont.mark = (
0.743,
0.775,
0.772,
1
);
};
width = 1042;
},
{
anchors = (
{
name = bottom;
pos = (499,0);
},
{
name = top;
pos = (521,681);
}
);
layerId = "1CA3C852-39F9-4810-8045-E03244E0B506";
shapes = (
{
closed = 1;
nodes = (
(537,-14,o),
(666,176,o),
(666,340,cs),
(666,504,o),
(537,695,o),
(344,695,cs),
(147,695,o),
(14,549,o),
(14,340,cs),
(14,131,o),
(147,-14,o),
(344,-14,cs)
);
},
{
closed = 1;
nodes = (
(265,166,o),
(199,227,o),
(199,340,cs),
(199,452,o),
(265,515,o),
(362,515,cs),
(460,515,o),
(527,453,o),
(527,341,cs),
(527,228,o),
(460,166,o),
(362,166,cs)
);
},
{
closed = 1;
nodes = (
(966,0,l),
(966,176,l),
(630,176,l),
(699,80,l),
(699,588,l),
(635,505,l),
(966,505,l),
(966,681,l),
(527,681,l),
(527,0,l)
);
},
{
closed = 1;
nodes = (
(913,252,l),
(913,429,l),
(637,429,l),
(637,252,l)
);
}
);
userData = {
com.typemytype.robofont.guides = (
);
com.typemytype.robofont.layerData = {
background = {
anchors = (
);
components = (
);
contours = (
{
points = (
{
segmentType = curve;
smooth = 1;
x = 180;
y = 350;
},
{
smooth = 0;
x = 180;
y = 510;
},
{
smooth = 0;
x = 274.235;
y = 580;
},
{
segmentType = curve;
smooth = 0;
x = 373;
y = 578;
},
{
smooth = 0;
x = 468.187;
y = 580;
},
{
smooth = 0;
x = 567;
y = 510;
},
{
segmentType = curve;
smooth = 1;
x = 567;
y = 348;
},
{
smooth = 0;
x = 567;
y = 190;
},
{
smooth = 0;
x = 468.187;
y = 121;
},
{
segmentType = curve;
smooth = 1;
x = 373;
y = 121;
},
{
smooth = 0;
x = 274.235;
y = 121;
},
{
smooth = 0;
x = 180;
y = 190;
}
);
},
{
points = (
{
segmentType = curve;
smooth = 1;
x = 34;
y = 349;
},
{
smooth = 0;
x = 34;
y = 121;
},
{
smooth = 0;
x = 186;
y = -15;
},
{
segmentType = curve;
smooth = 1;
x = 357;
y = -15;
},
{
smooth = 0;
x = 524;
y = -15;
},
{
smooth = 0;
x = 673;
y = 121;
},
{
segmentType = curve;
smooth = 1;
x = 673;
y = 349;
},
{
smooth = 0;
x = 673;
y = 579;
},
{
smooth = 0;
x = 524;
y = 716;
},
{
segmentType = curve;
smooth = 0;
x = 357;
y = 714;
},
{
smooth = 0;
x = 186;
y = 716;
},
{
smooth = 0;
x = 34;
y = 579;
}
);
},
{
points = (
{
segmentType = line;
smooth = 0;
x = 689;
y = 284;
},
{
segmentType = line;
smooth = 0;
x = 941;
y = 284;
},
{
segmentType = line;
smooth = 0;
x = 941;
y = 418;
},
{
segmentType = line;
smooth = 0;
x = 689;
y = 418;
}
);
},
{
points = (
{
segmentType = line;
smooth = 0;
x = 675;
y = 566;
},
{
segmentType = line;
smooth = 0;
x = 1000;
y = 566;
},
{
segmentType = line;
smooth = 0;
x = 1000;
y = 700;
},
{
segmentType = line;
smooth = 0;
x = 567;
y = 700;
},
{
segmentType = line;
smooth = 0;
x = 567;
y = 0;
},
{
segmentType = line;
smooth = 0;
x = 1000;
y = 0;
},
{
segmentType = line;
smooth = 0;
x = 1000;
y = 134;
},
{
segmentType = line;
smooth = 0;
x = 670;
y = 134;
},
{
segmentType = line;
smooth = 0;
x = 698;
y = 88;
},
{
segmentType = line;
smooth = 0;
x = 698;
y = 628;
}
);
}
);
lib = {
};
name = OE;
unicodes = (
);
width = 1104;
};
};
com.typemytype.robofont.mark = (
0.743,
0.775,
0.772,
1
);
};
width = 998;
}
);
metricLeft = O;
metricRight = E;
unicode = 338;
},
{
glyphname = P;
kernLeft = H;
kernRight = P;
layers = (
{
anchors = (
{
name = bottom;
pos = (135,0);
},
{
name = top;
pos = (306,681);
}
);
layerId = "344A0678-763D-4FBD-9EF6-1E94428A847E";
shapes = (
{
closed = 1;
nodes = (
(167,220,l),
(325,220,ls),
(465,220,o),
(558,321,o),
(558,450,cs),
(558,579,o),
(466,681,o),
(326,681,cs),
(85,681,l),
(85,0,l),
(185,0,l),
(185,610,l),
(167,587,l),
(309,587,ls),
(397,587,o),
(454,541,o),
(454,450,cs),
(454,364,o),
(396,314,o),
(308,314,cs),
(167,314,l)
);
}
);
userData = {
com.typemytype.robofont.guides = (
{
angle = 0;
isGlobal = 0;
magnetic = 5;
x = 364;
y = 470;
}
);
};
width = 588;
},
{
anchors = (
{
name = bottom;
pos = (132,0);
},
{
name = top;
pos = (291,681);
}
);
layerId = "1CA3C852-39F9-4810-8045-E03244E0B506";
shapes = (
{
closed = 1;
nodes = (
(179,163,l),
(293,163,ls),
(455,163,o),
(564,252,o),
(564,422,cs),
(564,592,o),
(455,681,o),
(293,681,cs),
(41,681,l),
(41,0,l),
(222,0,l),
(222,544,l),
(178,505,l),
(287,505,ls),
(348,505,o),
(380,477,o),
(380,422,cs),
(380,368,o),
(348,340,o),
(287,340,cs),
(179,340,l)
);
}
);
userData = {
com.schriftgestaltung.Glyphs.lastChange = "2017-03-20 13:34:42 +0000";
com.typemytype.robofont.guides = (
{
angle = 0;
isGlobal = 0;
magnetic = 5;
x = 364;
y = 470;
},
{
angle = 0;
isGlobal = 0;
magnetic = 5;
x = 396;
y = 465;
},
{
angle = 90;
isGlobal = 0;
magnetic = 5;
x = 313;
y = 452;
}
);
};
width = 573;
}
);
metricLeft = H;
note = "\012    P\012  ";
unicode = 80;
},
{
glyphname = Thorn;
kernLeft = H;
kernRight = Thorn;
layers = (
{
layerId = "344A0678-763D-4FBD-9EF6-1E94428A847E";
shapes = (
{
closed = 1;
nodes = (
(185,0,l),
(185,681,l),
(85,681,l),
(85,0,l)
);
},
{
closed = 1;
nodes = (
(325,110,ls),
(465,110,o),
(558,211,o),
(558,340,cs),
(558,468,o),
(465,570,o),
(325,570,cs),
(166,570,l),
(166,476,l),
(308,476,ls),
(396,476,o),
(454,430,o),
(454,340,cs),
(454,254,o),
(396,204,o),
(308,204,cs),
(167,204,l),
(167,110,l)
);
}
);
userData = {
com.typemytype.robofont.guides = (
{
angle = 0;
isGlobal = 0;
magnetic = 5;
x = 364;
y = 470;
},
{
angle = 0;
isGlobal = 0;
magnetic = 5;
x = 138;
y = 340;
}
);
com.typemytype.robofont.mark = (
0.743,
0.775,
0.772,
1
);
};
width = 588;
},
{
layerId = "1CA3C852-39F9-4810-8045-E03244E0B506";
shapes = (
{
closed = 1;
nodes = (
(222,0,l),
(222,681,l),
(41,681,l),
(41,0,l)
);
},
{
closed = 1;
nodes = (
(293,82,ls),
(455,82,o),
(564,171,o),
(564,341,cs),
(564,510,o),
(455,599,o),
(293,599,cs),
(178,599,l),
(178,423,l),
(287,423,ls),
(348,423,o),
(380,395,o),
(380,341,cs),
(380,286,o),
(348,258,o),
(287,258,cs),
(179,258,l),
(179,82,l)
);
}
);
userData = {
com.schriftgestaltung.Glyphs.lastChange = "2017-03-20 13:34:42 +0000";
com.typemytype.robofont.guides = (
{
angle = 0;
isGlobal = 0;
magnetic = 5;
x = 364;
y = 470;
}
);
com.typemytype.robofont.mark = (
0.743,
0.775,
0.772,
1
);
};
width = 573;
}
);
metricLeft = H;
metricRight = P;
note = "\012    P\012  ";
unicode = 222;
},
{
glyphname = Q;
kernLeft = O;
kernRight = O;
layers = (
{
anchors = (
{
name = bottom;
pos = (401,0);
},
{
name = ogonek;
pos = (470,0);
},
{
name = top;
pos = (382,681);
}
);
layerId = "344A0678-763D-4FBD-9EF6-1E94428A847E";
shapes = (
{
closed = 1;
nodes = (
(704,-40,l),
(513,283,l),
(408,283,l),
(599,-40,l)
);
},
{
closed = 1;
nodes = (
(30,139,o),
(181,-10,o),
(384,-10,cs),
(585,-10,o),
(735,139,o),
(735,340,cs),
(735,542,o),
(585,690,o),
(384,690,cs),
(181,690,o),
(30,542,o),
(30,340,cs)
);
},
{
closed = 1;
nodes = (
(132,487,o),
(240,594,o),
(384,594,cs),
(527,594,o),
(633,487,o),
(633,340,cs),
(633,193,o),
(527,86,o),
(384,86,cs),
(240,86,o),
(132,193,o),
(132,340,cs)
);
}
);
userData = {
com.typemytype.robofont.guides = (
{
angle = 90;
isGlobal = 0;
magnetic = 5;
x = 763;
y = 194;
}
);
com.typemytype.robofont.layerData = {
background = {
anchors = (
);
components = (
);
contours = (
{
points = (
{
segmentType = curve;
smooth = 1;
x = 162;
y = 340;
},
{
smooth = 0;
x = 162;
y = 487;
},
{
smooth = 0;
x = 270;
y = 594;
},
{
segmentType = curve;
smooth = 1;
x = 414;
y = 594;
},
{
smooth = 0;
x = 557;
y = 594;
},
{
smooth = 0;
x = 663;
y = 487;
},
{
segmentType = curve;
smooth = 1;
x = 663;
y = 340;
},
{
smooth = 0;
x = 663;
y = 193;
},
{
smooth = 0;
x = 557;
y = 86;
},
{
segmentType = curve;
smooth = 1;
x = 414;
y = 86;
},
{
smooth = 0;
x = 270;
y = 86;
},
{
smooth = 0;
x = 162;
y = 193;
}
);
},
{
points = (
{
segmentType = curve;
smooth = 1;
x = 60;
y = 340;
},
{
smooth = 0;
x = 60;
y = 139;
},
{
smooth = 0;
x = 211;
y = -10;
},
{
segmentType = curve;
smooth = 1;
x = 414;
y = -10;
},
{
smooth = 0;
x = 615;
y = -10;
},
{
smooth = 0;
x = 765;
y = 139;
},
{
segmentType = curve;
smooth = 0;
x = 765;
y = 340;
},
{
smooth = 0;
x = 765;
y = 542;
},
{
smooth = 0;
x = 615;
y = 690;
},
{
segmentType = curve;
smooth = 1;
x = 414;
y = 690;
},
{
smooth = 0;
x = 211;
y = 690;
},
{
smooth = 0;
x = 60;
y = 542;
}
);
}
);
lib = {
};
name = Q;
unicodes = (
);
width = 825;
};
};
};
width = 765;
},
{
anchors = (
{
name = bottom;
pos = (362,0);
},
{
name = ogonek;
pos = (453,0);
},
{
name = top;
pos = (362,681);
}
);
layerId = "1CA3C852-39F9-4810-8045-E03244E0B506";
shapes = (
{
closed = 1;
nodes = (
(686,-52,l),
(464,313,l),
(282,313,l),
(504,-52,l)
);
},
{
closed = 1;
nodes = (
(14,131,o),
(154,-14,o),
(362,-14,cs),
(571,-14,o),
(712,131,o),
(712,340,cs),
(712,549,o),
(571,695,o),
(362,695,cs),
(154,695,o),
(14,549,o),
(14,340,cs)
);
},
{
closed = 1;
nodes = (
(199,452,o),
(265,515,o),
(362,515,cs),
(460,515,o),
(527,453,o),
(527,341,cs),
(527,228,o),
(460,166,o),
(362,166,cs),
(265,166,o),
(199,227,o),
(199,340,cs)
);
}
);
userData = {
com.schriftgestaltung.Glyphs.lastChange = "2017-03-20 13:39:15 +0000";
com.typemytype.robofont.guides = (
{
angle = 90;
isGlobal = 0;
magnetic = 5;
x = 767;
y = 208;
}
);
com.typemytype.robofont.layerData = {
background = {
anchors = (
);
components = (
);
contours = (
{
points = (
{
segmentType = line;
smooth = 0;
x = 565;
y = -19;
},
{
segmentType = line;
smooth = 0;
x = 715;
y = -19;
},
{
segmentType = line;
smooth = 0;
x = 505;
y = 335;
},
{
segmentType = line;
smooth = 0;
x = 355;
y = 335;
}
);
}
);
lib = {
};
name = Q;
unicodes = (
);
width = 799;
};
};
};
width = 725;
}
);
metricLeft = O;
metricRight = O;
note = "\012    Q\012  ";
unicode = 81;
},
{
glyphname = R;
kernLeft = H;
kernRight = R;
layers = (
{
anchors = (
{
name = bottom;
pos = (321,0);
},
{
name = top;
pos = (309,681);
}
);
layerId = "344A0678-763D-4FBD-9EF6-1E94428A847E";
shapes = (
{
closed = 1;
nodes = (
(185,0,l),
(185,610,l),
(166,587,l),
(318,587,ls),
(406,587,o),
(464,544,o),
(464,460,cs),
(464,381,o),
(406,334,o),
(318,334,cs),
(167,334,l),
(167,240,l),
(335,240,ls),
(475,240,o),
(568,336,o),
(568,460,cs),
(568,583,o),
(475,681,o),
(335,681,cs),
(85,681,l),
(85,0,l)
);
},
{
closed = 1;
nodes = (
(575,0,l),
(416,283,l),
(306,283,l),
(465,0,l)
);
}
);
userData = {
com.typemytype.robofont.guides = (
{
angle = 0;
isGlobal = 0;
magnetic = 5;
showMeasurements = 1;
x = 159;
y = 502;
},
{
angle = 0;
isGlobal = 0;
magnetic = 5;
x = 366;
y = 469;
},
{
angle = 90;
isGlobal = 0;
magnetic = 5;
x = 589;
y = 369;
}
);
};
width = 620;
},
{
anchors = (
{
name = bottom;
pos = (298,0);
},
{
name = top;
pos = (292,681);
}
);
layerId = "1CA3C852-39F9-4810-8045-E03244E0B506";
shapes = (
{
closed = 1;
nodes = (
(222,0,l),
(222,544,l),
(178,505,l),
(287,505,ls),
(348,505,o),
(380,479,o),
(380,431,cs),
(380,382,o),
(348,358,o),
(287,358,cs),
(179,358,l),
(179,182,l),
(293,182,ls),
(443,182,o),
(564,267,o),
(564,431,cs),
(564,595,o),
(443,681,o),
(293,681,cs),
(41,681,l),
(41,0,l)
);
},
{
closed = 1;
nodes = (
(571,0,l),
(437,272,l),
(239,272,l),
(373,0,l)
);
}
);
userData = {
com.schriftgestaltung.Glyphs.lastChange = "2017-03-20 18:17:04 +0000";
com.typemytype.robofont.guides = (
{
angle = 0;
isGlobal = 0;
magnetic = 5;
showMeasurements = 1;
x = 159;
y = 502;
},
{
angle = 0;
isGlobal = 0;
magnetic = 5;
x = 366;
y = 469;
},
{
angle = 90;
isGlobal = 0;
magnetic = 5;
x = 589;
y = 369;
},
{
angle = 90;
isGlobal = 0;
magnetic = 5;
x = 618;
y = 377;
}
);
com.typemytype.robofont.layerData = {
background = {
anchors = (
{
name = top;
x = 302;
y = 750;
},
{
name = bottom;
x = 340;
y = 0;
}
);
components = (
);
contours = (
{
points = (
{
segmentType = line;
smooth = 0;
x = 78;
y = 0;
},
{
segmentType = line;
smooth = 0;
x = 220;
y = 0;
},
{
segmentType = line;
smooth = 0;
x = 220;
y = 616;
},
{
segmentType = line;
smooth = 0;
x = 170;
y = 566;
},
{
segmentType = line;
smooth = 1;
x = 336;
y = 566;
},
{
smooth = 0;
x = 410;
y = 566;
},
{
smooth = 0;
x = 451;
y = 531;
},
{
segmentType = curve;
smooth = 1;
x = 451;
y = 469;
},
{
smooth = 0;
x = 451;
y = 408;
},
{
smooth = 0;
x = 410;
y = 373;
},
{
segmentType = curve;
smooth = 1;
x = 336;
y = 373;
},
{
segmentType = line;
smooth = 0;
x = 179;
y = 373;
},
{
segmentType = line;
smooth = 0;
x = 179;
y = 239;
},
{
segmentType = line;
smooth = 1;
x = 326;
y = 239;
},
{
smooth = 0;
x = 495;
y = 239;
},
{
smooth = 0;
x = 587;
y = 320;
},
{
segmentType = curve;
smooth = 1;
x = 587;
y = 469;
},
{
smooth = 0;
x = 587;
y = 619;
},
{
smooth = 0;
x = 495;
y = 700;
},
{
segmentType = curve;
smooth = 1;
x = 326;
y = 700;
},
{
segmentType = line;
smooth = 0;
x = 78;
y = 700;
}
);
},
{
points = (
{
segmentType = line;
smooth = 0;
x = 601;
y = 0;
},
{
segmentType = line;
smooth = 0;
x = 450;
y = 273;
},
{
segmentType = line;
smooth = 0;
x = 285;
y = 273;
},
{
segmentType = line;
smooth = 0;
x = 436;
y = 0;
}
);
}
);
lib = {
};
name = R;
unicodes = (
);
width = 644;
};
};
};
width = 585;
}
);
metricLeft = H;
note = "\012    R\012  ";
unicode = 82;
},
{
glyphname = S;
kernLeft = S;
kernRight = S;
layers = (
{
anchors = (
{
name = bottom;
pos = (294,0);
},
{
name = top;
pos = (286,681);
}
);
layerId = "344A0678-763D-4FBD-9EF6-1E94428A847E";
shapes = (
{
closed = 1;
nodes = (
(433,-15,o),
(522,72,o),
(522,181,cs),
(522,290,o),
(472,351,o),
(304,393,cs),
(193,420,o),
(164,454,o),
(164,504,cs),
(164,561,o),
(206,593,o),
(283,593,cs),
(333,593,o),
(378,573,o),
(419,522,c),
(503,576,l),
(455,646,o),
(389,690,o),
(283,690,cs),
(148,690,o),
(66,615,o),
(66,504,cs),
(66,413,o),
(108,343,o),
(265,303,cs),
(389,272,o),
(422,237,o),
(422,182,cs),
(422,119,o),
(379,81,o),
(298,81,cs),
(214,81,o),
(163,116,o),
(116,200,c),
(33,153,l),
(89,27,o),
(189,-15,o),
(295,-15,cs)
);
}
);
userData = {
com.typemytype.robofont.guides = (
{
angle = 90;
isGlobal = 0;
magnetic = 5;
x = 284;
y = 683;
}
);
};
width = 555;
},
{
anchors = (
{
name = bottom;
pos = (300,-5);
},
{
name = top;
pos = (294,681);
}
);
layerId = "1CA3C852-39F9-4810-8045-E03244E0B506";
shapes = (
{
closed = 1;
nodes = (
(461,-18,o),
(562,73,o),
(562,200,cs),
(562,325,o),
(487,390,o),
(320,428,cs),
(238,446,o),
(218,459,o),
(218,486,cs),
(218,512,o),
(245,529,o),
(286,529,cs),
(333,529,o),
(390,512,o),
(421,471,c),
(557,569,l),
(510,645,o),
(423,699,o),
(300,699,cs),
(135,699,o),
(35,600,o),
(35,476,cs),
(35,363,o),
(94,291,o),
(271,252,cs),
(355,233,o),
(372,216,o),
(372,191,cs),
(372,165,o),
(350,146,o),
(306,146,cs),
(248,146,o),
(188,179,o),
(154,228,c),
(18,139,l),
(72,39,o),
(167,-18,o),
(295,-18,cs)
);
}
);
userData = {
com.schriftgestaltung.Glyphs.lastChange = "2017-03-13 23:23:55 +0000";
com.typemytype.robofont.guides = (
{
angle = 90;
isGlobal = 0;
magnetic = 5;
x = 292;
y = 729;
}
);
com.typemytype.robofont.layerData = {
background = {
anchors = (
{
name = top;
x = 301;
y = 780;
},
{
name = bottom;
x = 302;
y = 0;
}
);
components = (
);
contours = (
{
points = (
{
segmentType = move;
smooth = 0;
x = 286;
y = 292;
},
{
smooth = 0;
x = 420;
y = 255;
},
{
smooth = 0;
x = 446;
y = 220;
},
{
segmentType = curve;
smooth = 1;
x = 446;
y = 183;
},
{
smooth = 0;
x = 446;
y = 132;
},
{
smooth = 0;
x = 408;
y = 105;
},
{
segmentType = curve;
smooth = 1;
x = 354;
y = 105;
},
{
smooth = 0;
x = 284;
y = 105;
},
{
smooth = 0;
x = 228;
y = 136;
},
{
segmentType = curve;
smooth = 0;
x = 182;
y = 224;
},
{
segmentType = line;
smooth = 0;
x = 73;
y = 159;
},
{
smooth = 0;
x = 127;
y = 36;
},
{
smooth = 0;
x = 221;
y = -20;
},
{
segmentType = curve;
smooth = 1;
x = 343;
y = -20;
},
{
smooth = 0;
x = 482;
y = -20;
},
{
smooth = 0;
x = 593;
y = 63;
},
{
segmentType = curve;
smooth = 1;
x = 593;
y = 195;
},
{
smooth = 0;
x = 593;
y = 300;
},
{
smooth = 0;
x = 520;
y = 360;
},
{
segmentType = curve;
smooth = 0;
x = 395;
y = 397;
}
);
},
{
points = (
{
segmentType = move;
smooth = 0;
x = 387;
y = 439;
},
{
smooth = 0;
x = 269;
y = 474;
},
{
smooth = 0;
x = 234;
y = 506;
},
{
segmentType = curve;
smooth = 1;
x = 234;
y = 552;
},
{
smooth = 0;
x = 234;
y = 610;
},
{
smooth = 0;
x = 284;
y = 629;
},
{
segmentType = curve;
smooth = 1;
x = 324;
y = 629;
},
{
smooth = 0;
x = 378;
y = 629;
},
{
smooth = 0;
x = 428;
y = 611;
},
{
segmentType = curve;
smooth = 0;
x = 473;
y = 545;
},
{
segmentType = line;
smooth = 0;
x = 582;
y = 620;
},
{
smooth = 0;
x = 524;
y = 704;
},
{
smooth = 0;
x = 458;
y = 752;
},
{
segmentType = curve;
smooth = 0;
x = 323;
y = 752;
},
{
smooth = 0;
x = 179;
y = 752;
},
{
smooth = 0;
x = 89;
y = 659;
},
{
segmentType = curve;
smooth = 1;
x = 89;
y = 546;
},
{
smooth = 0;
x = 89;
y = 438;
},
{
smooth = 0;
x = 141;
y = 377;
},
{
segmentType = curve;
smooth = 0;
x = 278;
y = 334;
}
);
}
);
lib = {
};
name = S;
unicodes = (
);
width = 669;
};
mask = {
anchors = (
);
components = (
);
contours = (
{
points = (
{
segmentType = curve;
smooth = 1;
x = 64;
y = 530;
},
{
smooth = 0;
x = 64;
y = 401;
},
{
smooth = 0;
x = 135;
y = 335;
},
{
segmentType = curve;
smooth = 0;
x = 290;
y = 297;
},
{
smooth = 0;
x = 408;
y = 267;
},
{
smooth = 0;
x = 435;
y = 241;
},
{
segmentType = curve;
smooth = 0;
x = 435;
y = 207;
},
{
smooth = 0;
x = 435;
y = 174;
},
{
smooth = 0;
x = 400;
y = 144;
},
{
segmentType = curve;
smooth = 0;
x = 357;
y = 144;
},
{
smooth = 0;
x = 284;
y = 144;
},
{
smooth = 0;
x = 228;
y = 173;
},
{
segmentType = curve;
smooth = 0;
x = 166;
y = 247;
},
{
segmentType = line;
smooth = 0;
x = 46;
y = 137;
},
{
smooth = 0;
x = 125;
y = 22;
},
{
smooth = 0;
x = 227;
y = -20;
},
{
segmentType = curve;
smooth = 0;
x = 339;
y = -20;
},
{
smooth = 0;
x = 497;
y = -20;
},
{
smooth = 0;
x = 619;
y = 76;
},
{
segmentType = curve;
smooth = 1;
x = 619;
y = 223;
},
{
smooth = 0;
x = 619;
y = 346;
},
{
smooth = 0;
x = 547;
y = 417;
},
{
segmentType = curve;
smooth = 0;
x = 359;
y = 462;
},
{
smooth = 0;
x = 266;
y = 483;
},
{
smooth = 0;
x = 238;
y = 506;
},
{
segmentType = curve;
smooth = 0;
x = 238;
y = 541;
},
{
smooth = 0;
x = 238;
y = 577;
},
{
smooth = 0;
x = 275;
y = 600;
},
{
segmentType = curve;
smooth = 1;
x = 319;
y = 600;
},
{
smooth = 0;
x = 396;
y = 600;
},
{
smooth = 0;
x = 455;
y = 561;
},
{
segmentType = curve;
smooth = 0;
x = 495;
y = 521;
},
{
segmentType = line;
smooth = 0;
x = 623;
y = 633;
},
{
smooth = 0;
x = 563;
y = 708;
},
{
smooth = 0;
x = 471;
y = 770;
},
{
segmentType = curve;
smooth = 1;
x = 337;
y = 770;
},
{
smooth = 0;
x = 167;
y = 770;
},
{
smooth = 0;
x = 64;
y = 661;
}
);
}
);
lib = {
};
name = S;
unicodes = (
);
width = 669;
};
};
};
width = 580;
},
{
anchors = (
{
name = bottom;
pos = (294,0);
},
{
name = top;
pos = (282,681);
}
);
associatedMasterId = "344A0678-763D-4FBD-9EF6-1E94428A847E";
layerId = "7295A070-BB41-4D51-854E-BF219DA30530";
name = "Nov 18 20, 09:42";
shapes = (
{
closed = 1;
nodes = (
(424,-15,o),
(522,77,o),
(522,191,cs),
(522,290,o),
(453,356,o),
(313,390,cs),
(193,420,o),
(164,454,o),
(164,501,cs),
(164,551,o),
(205,593,o),
(276,593,cs),
(329,593,o),
(371,581,o),
(419,522,c),
(503,576,l),
(452,653,o),
(378,690,o),
(280,690,cs),
(148,690,o),
(66,605,o),
(66,494,cs),
(66,413,o),
(116,334,o),
(265,303,cs),
(392,276,o),
(422,232,o),
(422,184,cs),
(422,127,o),
(372,81,o),
(295,81,cs),
(219,81,o),
(174,113,o),
(126,200,c),
(43,153,l),
(95,27,o),
(187,-15,o),
(285,-15,cs)
);
}
);
userData = {
com.schriftgestaltung.Glyphs.lastChange = "2017-03-13 23:23:55 +0000";
com.typemytype.robofont.guides = (
{
angle = 90;
isGlobal = 0;
magnetic = 5;
x = 284;
y = 683;
}
);
};
width = 555;
}
);
note = "\012    S\012  ";
unicode = 83;
},
{
glyphname = Germandbls;
kernLeft = Germandbls;
kernRight = Germandbls;
layers = (
{
layerId = "344A0678-763D-4FBD-9EF6-1E94428A847E";
shapes = (
{
closed = 1;
nodes = (
(232,80,l),
(273,26,o),
(355,-15,o),
(436,-15,cs),
(572,-15,o),
(654,60,o),
(654,173,cs),
(654,266,o),
(598,343,o),
(447,397,c),
(450,330,l),
(623,557,l),
(551,644,o),
(459,690,o),
(355,690,cs),
(181,690,o),
(89,592,o),
(89,439,cs),
(89,0,l),
(189,0,l),
(189,417,ls),
(189,551,o),
(262,595,o),
(355,595,cs),
(430,595,o),
(499,551,o),
(527,504,c),
(523,592,l),
(331,338,l),
(384,318,ls),
(496,275,o),
(546,236,o),
(546,173,cs),
(546,122,o),
(505,81,o),
(436,81,cs),
(388,81,o),
(341,102,o),
(303,142,c)
);
}
);
userData = {
com.typemytype.robofont.guides = (
{
angle = 90;
isGlobal = 0;
magnetic = 5;
x = 626;
y = 162;
}
);
com.typemytype.robofont.mark = (
0.743,
0.775,
0.772,
1
);
};
width = 697;
},
{
layerId = "1CA3C852-39F9-4810-8045-E03244E0B506";
shapes = (
{
closed = 1;
nodes = (
(258,87,l),
(303,15,o),
(393,-17,o),
(475,-17,cs),
(617,-17,o),
(696,72,o),
(696,183,cs),
(696,300,o),
(621,371,o),
(462,419,c),
(472,288,l),
(671,550,l),
(596,637,o),
(480,695,o),
(351,695,cs),
(149,695,o),
(31,580,o),
(31,378,cs),
(31,0,l),
(212,0,l),
(212,378,ls),
(212,472,o),
(257,518,o),
(337,518,cs),
(399,518,o),
(444,495,o),
(473,453,c),
(484,563,l),
(303,324,l),
(410,284,ls),
(486,256,o),
(518,235,o),
(518,192,cs),
(518,160,o),
(494,135,o),
(451,135,cs),
(413,135,o),
(375,160,o),
(351,198,c)
);
}
);
userData = {
com.typemytype.robofont.guides = (
{
angle = 90;
isGlobal = 0;
magnetic = 5;
x = 681;
y = 393;
}
);
com.typemytype.robofont.layerData = {
background = {
anchors = (
);
components = (
{
baseGlyph = s;
transformation = (
1,
0,
0,
1,
290,
0
);
}
);
contours = (
{
points = (
{
segmentType = move;
x = 322;
y = 312;
},
{
segmentType = line;
smooth = 0;
x = 541;
y = 601;
}
);
},
{
points = (
{
segmentType = move;
x = 342;
y = 338;
},
{
segmentType = line;
smooth = 0;
x = 561;
y = 627;
}
);
},
{
points = (
{
segmentType = move;
smooth = 0;
x = 731;
y = 620;
},
{
smooth = 0;
x = 675;
y = 676;
},
{
smooth = 0;
x = 576;
y = 768;
},
{
segmentType = curve;
smooth = 1;
x = 383;
y = 765;
},
{
smooth = 0;
x = 163;
y = 765;
},
{
smooth = 0;
x = 40;
y = 649;
},
{
segmentType = curve;
smooth = 1;
x = 40;
y = 416;
},
{
segmentType = line;
smooth = 0;
x = 40;
y = 0;
},
{
segmentType = line;
smooth = 0;
x = 240;
y = 0;
},
{
segmentType = line;
smooth = 1;
x = 240;
y = 435;
},
{
smooth = 0;
x = 240;
y = 520;
},
{
smooth = 0;
x = 286;
y = 571;
},
{
segmentType = curve;
smooth = 1;
x = 377;
y = 571;
},
{
smooth = 0;
x = 428;
y = 571;
},
{
smooth = 0;
x = 479;
y = 550;
},
{
segmentType = curve;
smooth = 0;
x = 487;
y = 519;
},
{
segmentType = line;
smooth = 0;
x = 539;
y = 620;
},
{
segmentType = line;
smooth = 0;
x = 357;
y = 380;
},
{
segmentType = line;
smooth = 1;
x = 458;
y = 313;
},
{
smooth = 0;
x = 543;
y = 256;
},
{
smooth = 0;
x = 576;
y = 217;
},
{
segmentType = curve;
smooth = 1;
x = 576;
y = 182;
},
{
smooth = 0;
x = 576;
y = 163;
},
{
smooth = 0;
x = 558;
y = 149;
},
{
segmentType = curve;
smooth = 0;
x = 533;
y = 149;
},
{
smooth = 0;
x = 492;
y = 149;
},
{
smooth = 0;
x = 446;
y = 176;
},
{
segmentType = curve;
smooth = 0;
x = 393;
y = 218;
},
{
segmentType = line;
smooth = 0;
x = 290;
y = 96;
},
{
smooth = 0;
x = 355;
y = 20;
},
{
smooth = 0;
x = 439;
y = -19;
},
{
segmentType = curve;
smooth = 1;
x = 529;
y = -19;
},
{
smooth = 0;
x = 696;
y = -19;
},
{
smooth = 0;
x = 773;
y = 73;
},
{
segmentType = curve;
smooth = 1;
x = 773;
y = 197;
},
{
smooth = 0;
x = 773;
y = 321;
},
{
smooth = 0;
x = 654;
y = 438;
},
{
segmentType = curve;
smooth = 0;
x = 515;
y = 482;
},
{
smooth = 0;
x = 515;
y = 482;
},
{
smooth = 0;
x = 526;
y = 317;
},
{
segmentType = curve;
smooth = 0;
x = 526;
y = 317;
},
{
segmentType = line;
smooth = 0;
x = 745;
y = 606;
}
);
}
);
lib = {
};
name = uni1E9E;
unicodes = (
);
width = 798;
};
};
com.typemytype.robofont.mark = (
0.743,
0.775,
0.772,
1
);
};
width = 716;
},
{
associatedMasterId = "344A0678-763D-4FBD-9EF6-1E94428A847E";
layerId = "105D2C76-3489-4C49-BFE8-E02257F7BA42";
name = "Sep 21 20, 19:07";
shapes = (
{
closed = 1;
nodes = (
(293,65,l),
(337,1,o),
(408,-30,o),
(477,-30,cs),
(595,-30,o),
(668,60,o),
(668,142,cs),
(668,229,o),
(580,329,o),
(449,396,c),
(451,330,l),
(633,545,l),
(553,652,o),
(465,690,o),
(355,690,cs),
(182,690,o),
(90,596,o),
(90,449,cs),
(90,0,l),
(190,0,l),
(190,427,ls),
(190,553,o),
(259,595,o),
(346,595,cs),
(437,595,o),
(528,548,o),
(528,500,c),
(544,582,l),
(342,350,l),
(394,319,ls),
(504,249,o),
(565,180,o),
(565,135,cs),
(565,93,o),
(526,66,o),
(486,66,cs),
(448,66,o),
(406,86,o),
(364,137,c)
);
}
);
userData = {
com.typemytype.robofont.guides = (
{
angle = 90;
isGlobal = 0;
magnetic = 5;
x = 626;
y = 162;
}
);
com.typemytype.robofont.mark = (
0.743,
0.775,
0.772,
1
);
};
width = 723;
},
{
associatedMasterId = "1CA3C852-39F9-4810-8045-E03244E0B506";
layerId = "858EB29F-A1E5-4071-8A4A-F246B73CF47D";
name = "Sep 21 20, 19:24";
shapes = (
{
closed = 1;
nodes = (
(290,96,l),
(355,20,o),
(439,-19,o),
(529,-19,cs),
(696,-19,o),
(773,73,o),
(773,197,cs),
(773,321,o),
(654,438,o),
(515,482,c),
(526,317,l),
(745,606,l),
(678,676,o),
(576,768,o),
(383,765,cs),
(163,765,o),
(40,649,o),
(40,416,cs),
(40,0,l),
(240,0,l),
(240,435,ls),
(240,520,o),
(286,571,o),
(377,571,cs),
(428,571,o),
(479,550,o),
(487,519,c),
(539,620,l),
(357,380,l),
(458,313,ls),
(543,256,o),
(576,217,o),
(576,182,cs),
(576,163,o),
(558,149,o),
(533,149,c),
(492,149,o),
(446,176,o),
(393,218,c)
);
}
);
userData = {
com.typemytype.robofont.guides = (
{
angle = 90;
isGlobal = 0;
magnetic = 5;
x = 681;
y = 393;
}
);
com.typemytype.robofont.layerData = {
background = {
anchors = (
);
components = (
{
baseGlyph = s;
transformation = (
1,
0,
0,
1,
290,
0
);
}
);
contours = (
{
points = (
{
segmentType = move;
x = 322;
y = 312;
},
{
segmentType = line;
smooth = 0;
x = 541;
y = 601;
}
);
},
{
points = (
{
segmentType = move;
x = 342;
y = 338;
},
{
segmentType = line;
smooth = 0;
x = 561;
y = 627;
}
);
},
{
points = (
{
segmentType = move;
smooth = 0;
x = 731;
y = 620;
},
{
smooth = 0;
x = 675;
y = 676;
},
{
smooth = 0;
x = 576;
y = 768;
},
{
segmentType = curve;
smooth = 1;
x = 383;
y = 765;
},
{
smooth = 0;
x = 163;
y = 765;
},
{
smooth = 0;
x = 40;
y = 649;
},
{
segmentType = curve;
smooth = 1;
x = 40;
y = 416;
},
{
segmentType = line;
smooth = 0;
x = 40;
y = 0;
},
{
segmentType = line;
smooth = 0;
x = 240;
y = 0;
},
{
segmentType = line;
smooth = 1;
x = 240;
y = 435;
},
{
smooth = 0;
x = 240;
y = 520;
},
{
smooth = 0;
x = 286;
y = 571;
},
{
segmentType = curve;
smooth = 1;
x = 377;
y = 571;
},
{
smooth = 0;
x = 428;
y = 571;
},
{
smooth = 0;
x = 479;
y = 550;
},
{
segmentType = curve;
smooth = 0;
x = 487;
y = 519;
},
{
segmentType = line;
smooth = 0;
x = 539;
y = 620;
},
{
segmentType = line;
smooth = 0;
x = 357;
y = 380;
},
{
segmentType = line;
smooth = 1;
x = 458;
y = 313;
},
{
smooth = 0;
x = 543;
y = 256;
},
{
smooth = 0;
x = 576;
y = 217;
},
{
segmentType = curve;
smooth = 1;
x = 576;
y = 182;
},
{
smooth = 0;
x = 576;
y = 163;
},
{
smooth = 0;
x = 558;
y = 149;
},
{
segmentType = curve;
smooth = 0;
x = 533;
y = 149;
},
{
smooth = 0;
x = 492;
y = 149;
},
{
smooth = 0;
x = 446;
y = 176;
},
{
segmentType = curve;
smooth = 0;
x = 393;
y = 218;
},
{
segmentType = line;
smooth = 0;
x = 290;
y = 96;
},
{
smooth = 0;
x = 355;
y = 20;
},
{
smooth = 0;
x = 439;
y = -19;
},
{
segmentType = curve;
smooth = 1;
x = 529;
y = -19;
},
{
smooth = 0;
x = 696;
y = -19;
},
{
smooth = 0;
x = 773;
y = 73;
},
{
segmentType = curve;
smooth = 1;
x = 773;
y = 197;
},
{
smooth = 0;
x = 773;
y = 321;
},
{
smooth = 0;
x = 654;
y = 438;
},
{
segmentType = curve;
smooth = 0;
x = 515;
y = 482;
},
{
smooth = 0;
x = 515;
y = 482;
},
{
smooth = 0;
x = 526;
y = 317;
},
{
segmentType = curve;
smooth = 0;
x = 526;
y = 317;
},
{
segmentType = line;
smooth = 0;
x = 745;
y = 606;
}
);
}
);
lib = {
};
name = uni1E9E;
unicodes = (
);
width = 798;
};
};
com.typemytype.robofont.mark = (
0.743,
0.775,
0.772,
1
);
};
width = 798;
}
);
unicode = 7838;
},
{
glyphname = T;
kernLeft = T;
kernRight = T;
layers = (
{
anchors = (
{
name = bottom;
pos = (273,0);
},
{
name = center;
pos = (278,341);
},
{
name = top;
pos = (273,681);
}
);
layerId = "344A0678-763D-4FBD-9EF6-1E94428A847E";
shapes = (
{
closed = 1;
nodes = (
(323,0,l),
(323,606,l),
(223,606,l),
(223,0,l)
);
},
{
closed = 1;
nodes = (
(546,587,l),
(546,681,l),
(10,681,l),
(10,587,l)
);
}
);
userData = {
com.typemytype.robofont.guides = (
{
angle = 90;
isGlobal = 0;
magnetic = 5;
x = 273;
y = 301;
}
);
};
width = 556;
},
{
anchors = (
{
name = bottom;
pos = (293,0);
},
{
name = center;
pos = (293,341);
},
{
name = top;
pos = (293,681);
}
);
layerId = "1CA3C852-39F9-4810-8045-E03244E0B506";
shapes = (
{
closed = 1;
nodes = (
(385,0,l),
(385,617,l),
(202,617,l),
(202,0,l)
);
},
{
closed = 1;
nodes = (
(577,505,l),
(577,681,l),
(9,681,l),
(9,505,l)
);
}
);
userData = {
com.schriftgestaltung.Glyphs.lastChange = "2017-03-20 13:58:37 +0000";
com.typemytype.robofont.guides = (
{
angle = 90;
isGlobal = 0;
magnetic = 5;
x = 323;
y = 680;
}
);
com.typemytype.robofont.layerData = {
background = {
anchors = (
{
name = bar;
x = 323;
y = 351;
},
{
name = bottom;
x = 323;
y = 0;
},
{
name = top;
x = 323;
y = 750;
}
);
components = (
);
contours = (
{
points = (
{
segmentType = line;
smooth = 0;
x = 616;
y = 566;
},
{
segmentType = line;
smooth = 0;
x = 616;
y = 700;
},
{
segmentType = line;
smooth = 0;
x = 30;
y = 700;
},
{
segmentType = line;
smooth = 0;
x = 30;
y = 566;
}
);
},
{
points = (
{
segmentType = line;
smooth = 0;
x = 394;
y = 585;
},
{
segmentType = line;
smooth = 0;
x = 252;
y = 585;
},
{
segmentType = line;
smooth = 0;
x = 252;
y = 0;
},
{
segmentType = line;
smooth = 0;
x = 394;
y = 0;
}
);
}
);
lib = {
};
name = T;
unicodes = (
);
width = 646;
};
};
};
width = 587;
}
);
note = "\012    T\012  ";
unicode = 84;
},
{
glyphname = U;
kernLeft = U;
kernRight = U;
layers = (
{
anchors = (
{
name = bottom;
pos = (344,0);
},
{
name = ogonek;
pos = (423,0);
},
{
name = top;
pos = (344,681);
}
);
layerId = "344A0678-763D-4FBD-9EF6-1E94428A847E";
shapes = (
{
closed = 1;
nodes = (
(498,-10,o),
(608,81,o),
(608,256,cs),
(608,681,l),
(508,681,l),
(508,271,ls),
(508,153,o),
(450,86,o),
(344,86,cs),
(238,86,o),
(180,153,o),
(180,271,cs),
(180,681,l),
(80,681,l),
(80,256,ls),
(80,81,o),
(190,-10,o),
(344,-10,cs)
);
}
);
userData = {
com.typemytype.robofont.guides = (
{
angle = 90;
isGlobal = 0;
magnetic = 5;
x = 359;
y = 336;
},
{
angle = 90;
isGlobal = 0;
magnetic = 5;
x = 334;
y = 683;
}
);
};
width = 688;
},
{
anchors = (
{
name = bottom;
pos = (327,0);
},
{
name = ogonek;
pos = (418,0);
},
{
name = top;
pos = (327,681);
}
);
layerId = "1CA3C852-39F9-4810-8045-E03244E0B506";
shapes = (
{
closed = 1;
nodes = (
(525,-14,o),
(613,92,o),
(613,303,cs),
(613,681,l),
(431,681,l),
(431,286,ls),
(431,209,o),
(397,163,o),
(326,163,cs),
(255,163,o),
(221,209,o),
(221,286,cs),
(221,681,l),
(39,681,l),
(39,303,ls),
(39,92,o),
(127,-14,o),
(326,-14,cs)
);
}
);
userData = {
com.schriftgestaltung.Glyphs.lastChange = "2017-03-13 23:42:56 +0000";
com.typemytype.robofont.guides = (
{
angle = 90;
isGlobal = 0;
magnetic = 5;
x = 357;
y = 358;
}
);
com.typemytype.robofont.layerData = {
background = {
anchors = (
{
name = top;
x = 351;
y = 750;
},
{
name = ogonek;
x = 445;
y = 0;
},
{
name = bottom;
x = 361;
y = 0;
}
);
components = (
);
contours = (
{
points = (
{
smooth = 0;
x = 524;
y = -15;
},
{
smooth = 0;
x = 635;
y = 91;
},
{
segmentType = curve;
smooth = 1;
x = 635;
y = 286;
},
{
segmentType = line;
smooth = 0;
x = 635;
y = 700;
},
{
segmentType = line;
smooth = 0;
x = 493;
y = 700;
},
{
segmentType = line;
smooth = 1;
x = 493;
y = 301;
},
{
smooth = 0;
x = 493;
y = 180;
},
{
smooth = 0;
x = 440;
y = 131;
},
{
segmentType = curve;
smooth = 1;
x = 351;
y = 131;
},
{
smooth = 0;
x = 262;
y = 131;
},
{
smooth = 0;
x = 209;
y = 180;
},
{
segmentType = curve;
smooth = 1;
x = 209;
y = 301;
},
{
segmentType = line;
smooth = 0;
x = 209;
y = 700;
},
{
segmentType = line;
smooth = 0;
x = 67;
y = 700;
},
{
segmentType = line;
smooth = 1;
x = 67;
y = 286;
},
{
smooth = 0;
x = 67;
y = 91;
},
{
smooth = 0;
x = 179;
y = -15;
},
{
segmentType = curve;
smooth = 1;
x = 351;
y = -15;
}
);
}
);
lib = {
};
name = U;
unicodes = (
);
width = 712;
};
};
};
width = 652;
},
{
anchors = (
{
name = bottom;
pos = (344,0);
},
{
name = ogonek;
pos = (418,0);
},
{
name = top;
pos = (344,681);
}
);
associatedMasterId = "344A0678-763D-4FBD-9EF6-1E94428A847E";
layerId = "405B2675-D0DF-4B1F-9480-8EB42A331A45";
name = "Nov 18 20, 09:50";
shapes = (
{
closed = 1;
nodes = (
(248,86,o),
(180,163,o),
(180,271,cs),
(180,681,l),
(80,681,l),
(80,256,ls),
(80,101,o),
(190,-10,o),
(344,-10,cs),
(498,-10,o),
(608,101,o),
(608,256,cs),
(608,681,l),
(508,681,l),
(508,271,ls),
(508,163,o),
(440,86,o),
(344,86,cs)
);
}
);
userData = {
com.schriftgestaltung.Glyphs.lastChange = "2017-03-13 23:42:56 +0000";
com.typemytype.robofont.guides = (
{
angle = 90;
isGlobal = 0;
magnetic = 5;
x = 359;
y = 336;
},
{
angle = 90;
isGlobal = 0;
magnetic = 5;
x = 334;
y = 683;
}
);
};
width = 688;
}
);
note = "\012    U\012  ";
unicode = 85;
},
{
glyphname = Uogonek;
kernLeft = U;
kernRight = U;
layers = (
{
anchors = (
{
name = top;
pos = (344,681);
}
);
background = {
shapes = (
{
ref = U;
},
{
pos = (97,0);
ref = ogonekcomb;
}
);
};
layerId = "344A0678-763D-4FBD-9EF6-1E94428A847E";
shapes = (
{
closed = 1;
nodes = (
(294,-44,o),
(267,-93,o),
(267,-137,cs),
(267,-202,o),
(311,-227,o),
(368,-227,cs),
(395,-227,o),
(419,-220,o),
(431,-213,c),
(422,-150,l),
(413,-154,o),
(395,-159,o),
(382,-159,cs),
(354,-159,o),
(338,-147,o),
(338,-118,cs),
(338,-79,o),
(370,-35,o),
(420,-2,c),
(533,24,o),
(608,112,o),
(608,256,cs),
(608,681,l),
(508,681,l),
(508,271,ls),
(508,153,o),
(450,86,o),
(344,86,cs),
(238,86,o),
(180,153,o),
(180,271,cs),
(180,681,l),
(80,681,l),
(80,256,ls),
(80,85,o),
(185,-6,o),
(334,-10,c)
);
}
);
width = 688;
},
{
anchors = (
{
name = top;
pos = (327,681);
}
);
background = {
shapes = (
{
ref = U;
},
{
pos = (56,0);
ref = ogonekcomb;
}
);
};
layerId = "1CA3C852-39F9-4810-8045-E03244E0B506";
shapes = (
{
closed = 1;
nodes = (
(249,-36,o),
(228,-70,o),
(228,-117,cs),
(228,-185,o),
(269,-224,o),
(354,-224,cs),
(388,-224,o),
(417,-217,o),
(436,-208,c),
(419,-108,l),
(413,-112,o),
(403,-114,o),
(395,-114,cs),
(373,-114,o),
(363,-104,o),
(363,-84,cs),
(363,-58,o),
(383,-25,o),
(407,-7,c),
(549,20,o),
(613,123,o),
(613,303,cs),
(613,681,l),
(431,681,l),
(431,286,ls),
(431,209,o),
(397,163,o),
(326,163,cs),
(255,163,o),
(221,209,o),
(221,286,cs),
(221,681,l),
(39,681,l),
(39,303,ls),
(39,111,o),
(112,6,o),
(274,-11,c)
);
}
);
width = 652;
}
);
unicode = 370;
},
{
glyphname = V;
kernLeft = V;
kernRight = V;
layers = (
{
anchors = (
{
name = bottom;
pos = (321,0);
},
{
name = top;
pos = (321,681);
}
);
layerId = "344A0678-763D-4FBD-9EF6-1E94428A847E";
shapes = (
{
closed = 1;
nodes = (
(389,0,l),
(632,681,l),
(530,681,l),
(312,70,l),
(330,70,l),
(112,681,l),
(10,681,l),
(253,0,l)
);
}
);
userData = {
com.typemytype.robofont.guides = (
{
angle = 90;
isGlobal = 0;
magnetic = 5;
x = 342;
y = -2;
}
);
};
width = 642;
},
{
anchors = (
{
name = bottom;
pos = (322,0);
},
{
name = top;
pos = (322,681);
}
);
layerId = "1CA3C852-39F9-4810-8045-E03244E0B506";
shapes = (
{
closed = 1;
nodes = (
(417,0,l),
(640,681,l),
(459,681,l),
(281,123,l),
(367,123,l),
(190,681,l),
(4,681,l),
(227,0,l)
);
}
);
userData = {
com.schriftgestaltung.Glyphs.lastChange = "2017-03-20 13:58:52 +0000";
com.typemytype.robofont.guides = (
{
angle = 90;
isGlobal = 0;
magnetic = 5;
x = 342;
y = -2;
}
);
com.typemytype.robofont.layerData = {
background = {
anchors = (
);
components = (
);
contours = (
{
points = (
{
segmentType = line;
smooth = 0;
x = 374;
y = 115;
},
{
segmentType = line;
smooth = 0;
x = 185;
y = 700;
},
{
segmentType = line;
smooth = 0;
x = 40;
y = 700;
},
{
segmentType = line;
smooth = 0;
x = 272;
y = 0;
},
{
segmentType = line;
smooth = 0;
x = 451;
y = 0;
},
{
segmentType = line;
smooth = 0;
x = 683;
y = 700;
},
{
segmentType = line;
smooth = 0;
x = 538;
y = 700;
},
{
segmentType = line;
smooth = 0;
x = 349;
y = 115;
}
);
}
);
lib = {
};
name = V;
unicodes = (
);
width = 711;
};
};
};
width = 644;
}
);
note = "\012    V\012  ";
unicode = 86;
},
{
glyphname = W;
kernLeft = W;
kernRight = W;
layers = (
{
anchors = (
{
name = top;
pos = (483,681);
}
);
layerId = "344A0678-763D-4FBD-9EF6-1E94428A847E";
shapes = (
{
closed = 1;
nodes = (
(761,0,l),
(946,681,l),
(845,681,l),
(679,60,l),
(723,50,l),
(532,681,l),
(434,681,l),
(457,607,l),
(644,0,l)
);
},
{
closed = 1;
nodes = (
(322,0,l),
(509,607,l),
(532,681,l),
(434,681,l),
(243,50,l),
(287,60,l),
(121,681,l),
(20,681,l),
(205,0,l)
);
}
);
userData = {
com.typemytype.robofont.guides = (
{
angle = 90;
isGlobal = 0;
magnetic = 5;
x = 473;
y = 347;
}
);
};
width = 966;
},
{
anchors = (
{
name = top;
pos = (505,681);
}
);
layerId = "1CA3C852-39F9-4810-8045-E03244E0B506";
shapes = (
{
closed = 1;
nodes = (
(813,0,l),
(1002,681,l),
(819,681,l),
(672,104,l),
(763,104,l),
(589,681,l),
(417,681,l),
(449,573,l),
(619,0,l)
);
},
{
closed = 1;
nodes = (
(387,0,l),
(558,573,l),
(589,681,l),
(417,681,l),
(243,104,l),
(334,104,l),
(187,681,l),
(4,681,l),
(193,0,l)
);
}
);
userData = {
com.schriftgestaltung.Glyphs.lastChange = "2017-03-20 13:59:23 +0000";
com.typemytype.robofont.guides = (
{
angle = 90;
isGlobal = 0;
magnetic = 5;
x = 497;
y = 359;
}
);
com.typemytype.robofont.layerData = {
background = {
anchors = (
);
components = (
);
contours = (
{
points = (
{
segmentType = line;
smooth = 1;
x = 372;
y = 137;
},
{
segmentType = line;
smooth = 0;
x = 205;
y = 750;
},
{
segmentType = line;
smooth = 0;
x = 10;
y = 750;
},
{
segmentType = line;
smooth = 0;
x = 216;
y = 0;
},
{
segmentType = line;
smooth = 0;
x = 425;
y = 0;
},
{
segmentType = line;
smooth = 0;
x = 654;
y = 749;
},
{
segmentType = line;
smooth = 0;
x = 459;
y = 750;
},
{
segmentType = line;
smooth = 0;
x = 270;
y = 137;
}
);
},
{
points = (
{
segmentType = line;
smooth = 1;
x = 741;
y = 136;
},
{
segmentType = line;
smooth = 0;
x = 843;
y = 136;
},
{
segmentType = line;
smooth = 0;
x = 654;
y = 749;
},
{
segmentType = line;
smooth = 0;
x = 459;
y = 750;
},
{
segmentType = line;
smooth = 0;
x = 688;
y = 1;
},
{
segmentType = line;
smooth = 0;
x = 897;
y = 0;
},
{
segmentType = line;
smooth = 0;
x = 1103;
y = 749;
},
{
segmentType = line;
smooth = 0;
x = 908;
y = 749;
}
);
}
);
lib = {
};
name = W;
unicodes = (
);
width = 1110;
};
mask = {
anchors = (
);
components = (
);
contours = (
{
points = (
{
segmentType = line;
smooth = 1;
x = 565;
y = 136;
},
{
segmentType = line;
smooth = 0;
x = 400;
y = 750;
},
{
segmentType = line;
smooth = 0;
x = 205;
y = 750;
},
{
segmentType = line;
smooth = 0;
x = 421;
y = 0;
},
{
segmentType = line;
smooth = 0;
x = 630;
y = 0;
},
{
segmentType = line;
smooth = 0;
x = 849;
y = 750;
},
{
segmentType = line;
smooth = 0;
x = 654;
y = 750;
},
{
segmentType = line;
smooth = 0;
x = 485;
y = 136;
}
);
}
);
lib = {
};
name = W;
unicodes = (
);
width = 1110;
};
};
};
width = 1006;
}
);
note = "\012    W\012  ";
unicode = 87;
},
{
glyphname = X;
kernLeft = X;
kernRight = X;
layers = (
{
anchors = (
{
name = bottom;
pos = (321,0);
},
{
name = top;
pos = (321,681);
}
);
layerId = "344A0678-763D-4FBD-9EF6-1E94428A847E";
shapes = (
{
closed = 1;
nodes = (
(20,681,l),
(274,326,l),
(279,374,l),
(10,0,l),
(129,0,l),
(341,305,l),
(295,305,l),
(512,0,l),
(631,0,l),
(357,374,l),
(376,326,l),
(631,681,l),
(512,681,l),
(314,395,l),
(336,395,l),
(139,681,l)
);
}
);
width = 641;
},
{
anchors = (
{
name = bottom;
pos = (347,0);
},
{
name = top;
pos = (347,681);
}
);
layerId = "1CA3C852-39F9-4810-8045-E03244E0B506";
shapes = (
{
closed = 1;
nodes = (
(9,681,l),
(247,318,l),
(242,363,l),
(5,0,l),
(232,0,l),
(373,225,l),
(321,225,l),
(462,0,l),
(689,0,l),
(451,363,l),
(447,318,l),
(685,681,l),
(467,681,l),
(326,456,l),
(369,456,l),
(227,681,l)
);
}
);
userData = {
com.schriftgestaltung.Glyphs.lastChange = "2017-03-20 14:00:27 +0000";
com.typemytype.robofont.layerData = {
background = {
anchors = (
);
components = (
);
contours = (
{
points = (
{
segmentType = line;
smooth = 0;
x = 546;
y = 0;
},
{
segmentType = line;
smooth = 0;
x = 713;
y = 0;
},
{
segmentType = line;
smooth = 0;
x = 458;
y = 372;
},
{
segmentType = line;
smooth = 0;
x = 458;
y = 346;
},
{
segmentType = line;
smooth = 0;
x = 701;
y = 700;
},
{
segmentType = line;
smooth = 0;
x = 539;
y = 700;
},
{
segmentType = line;
smooth = 0;
x = 375;
y = 461;
},
{
segmentType = line;
smooth = 0;
x = 392;
y = 461;
},
{
segmentType = line;
smooth = 0;
x = 231;
y = 700;
},
{
segmentType = line;
smooth = 0;
x = 64;
y = 700;
},
{
segmentType = line;
smooth = 0;
x = 306;
y = 345;
},
{
segmentType = line;
smooth = 0;
x = 306;
y = 368;
},
{
segmentType = line;
smooth = 0;
x = 52;
y = 0;
},
{
segmentType = line;
smooth = 0;
x = 215;
y = 0;
},
{
segmentType = line;
smooth = 0;
x = 392;
y = 259;
},
{
segmentType = line;
smooth = 0;
x = 368;
y = 259;
}
);
}
);
lib = {
};
name = X;
unicodes = (
);
width = 774;
};
};
};
width = 694;
},
{
associatedMasterId = "344A0678-763D-4FBD-9EF6-1E94428A847E";
layerId = "2007A341-0BEA-4A2D-96F4-D457D450DFC8";
name = "Nov 18 20, 09:52";
shapes = (
{
closed = 1;
nodes = (
(10,680,l),
(274,316,l),
(274,364,l),
(10,0,l),
(129,0,l),
(336,295,l),
(295,295,l),
(502,0,l),
(621,0,l),
(357,364,l),
(357,316,l),
(621,680,l),
(502,680,l),
(295,385,l),
(336,385,l),
(129,680,l)
);
}
);
userData = {
com.schriftgestaltung.Glyphs.lastChange = "2017-03-20 14:00:27 +0000";
};
width = 631;
}
);
note = "\012    X\012  ";
unicode = 88;
},
{
glyphname = Y;
kernLeft = Y;
kernRight = Y;
layers = (
{
anchors = (
{
name = top;
pos = (276,681);
}
);
layerId = "344A0678-763D-4FBD-9EF6-1E94428A847E";
shapes = (
{
closed = 1;
nodes = (
(111,681,l),
(0,681,l),
(240,223,l),
(226,309,l),
(226,0,l),
(326,0,l),
(326,309,l),
(311,223,l),
(553,681,l),
(441,681,l),
(243,288,l),
(307,288,l)
);
}
);
userData = {
com.typemytype.robofont.guides = (
{
angle = 0;
isGlobal = 0;
magnetic = 5;
x = 325;
y = 279;
},
{
angle = 90;
isGlobal = 0;
magnetic = 5;
x = 286;
y = 675;
},
{
angle = 90;
isGlobal = 0;
magnetic = 5;
x = 301;
y = -13;
},
{
angle = 0;
isGlobal = 0;
magnetic = 5;
x = 318;
y = 309;
}
);
};
width = 553;
},
{
anchors = (
{
name = top;
pos = (321,681);
}
);
layerId = "1CA3C852-39F9-4810-8045-E03244E0B506";
shapes = (
{
closed = 1;
nodes = (
(195,681,l),
(-5,681,l),
(236,209,l),
(230,291,l),
(230,0,l),
(411,0,l),
(411,291,l),
(405,209,l),
(646,681,l),
(455,681,l),
(288,351,l),
(362,351,l)
);
}
);
userData = {
com.schriftgestaltung.Glyphs.lastChange = "2017-03-20 14:00:44 +0000";
com.typemytype.robofont.guides = (
{
angle = 0;
isGlobal = 0;
magnetic = 5;
x = 325;
y = 279;
},
{
angle = 90;
isGlobal = 0;
magnetic = 5;
x = 311;
y = 665;
},
{
angle = 90;
isGlobal = 0;
magnetic = 5;
x = 358;
y = 344;
}
);
com.typemytype.robofont.layerData = {
background = {
anchors = (
);
components = (
);
contours = (
{
points = (
{
segmentType = move;
x = 258;
y = 224;
},
{
segmentType = line;
smooth = 0;
x = 495;
y = 700;
}
);
}
);
lib = {
};
name = Y;
unicodes = (
);
width = 726;
};
};
};
width = 650;
}
);
note = "\012    Y\012  ";
unicode = 89;
},
{
glyphname = Z;
kernLeft = Z;
kernRight = Z;
layers = (
{
anchors = (
{
name = bottom;
pos = (291,0);
},
{
name = center;
pos = (291,341);
},
{
name = top;
pos = (291,681);
}
);
layerId = "344A0678-763D-4FBD-9EF6-1E94428A847E";
shapes = (
{
closed = 1;
nodes = (
(50,87,l),
(50,0,l),
(517,0,l),
(517,94,l),
(146,94,l),
(149,64,l),
(512,595,l),
(512,681,l),
(58,681,l),
(58,587,l),
(415,587,l),
(415,615,l)
);
}
);
userData = {
com.typemytype.robofont.guides = (
{
angle = 90;
isGlobal = 0;
magnetic = 5;
x = 298;
y = 634;
}
);
};
width = 557;
},
{
anchors = (
{
name = bottom;
pos = (306,0);
},
{
name = center;
pos = (306,341);
},
{
name = top;
pos = (305,681);
}
);
layerId = "1CA3C852-39F9-4810-8045-E03244E0B506";
shapes = (
{
closed = 1;
nodes = (
(32,124,l),
(32,0,l),
(570,0,l),
(570,176,l),
(179,176,l),
(221,94,l),
(566,558,l),
(566,681,l),
(39,681,l),
(39,505,l),
(372,505,l),
(379,585,l)
);
}
);
userData = {
com.schriftgestaltung.Glyphs.lastChange = "2017-03-20 14:00:57 +0000";
com.typemytype.robofont.guides = (
{
angle = 90;
isGlobal = 0;
magnetic = 5;
x = 316;
y = 365;
}
);
com.typemytype.robofont.layerData = {
background = {
anchors = (
{
name = top;
x = 301;
y = 750;
}
);
components = (
);
contours = (
{
points = (
{
segmentType = line;
smooth = 0;
x = 568;
y = 584;
},
{
segmentType = line;
smooth = 0;
x = 568;
y = 700;
},
{
segmentType = line;
smooth = 0;
x = 38;
y = 700;
},
{
segmentType = line;
smooth = 0;
x = 38;
y = 566;
},
{
segmentType = line;
smooth = 0;
x = 405;
y = 566;
},
{
segmentType = line;
smooth = 0;
x = 412;
y = 594;
},
{
segmentType = line;
smooth = 0;
x = 30;
y = 117;
},
{
segmentType = line;
smooth = 0;
x = 30;
y = 0;
},
{
segmentType = line;
smooth = 0;
x = 573;
y = 0;
},
{
segmentType = line;
smooth = 0;
x = 573;
y = 134;
},
{
segmentType = line;
smooth = 0;
x = 192;
y = 134;
},
{
segmentType = line;
smooth = 0;
x = 188;
y = 104;
}
);
}
);
lib = {
};
name = Z;
unicodes = (
);
width = 653;
};
};
};
width = 593;
}
);
note = "\012    Z\012  ";
unicode = 90;
},
{
glyphname = J.alt;
kernLeft = J.alt;
kernRight = U;
layers = (
{
anchors = (
{
name = top;
pos = (191,681);
}
);
layerId = "344A0678-763D-4FBD-9EF6-1E94428A847E";
shapes = (
{
closed = 1;
nodes = (
(23,-15,ls),
(183,-15,o),
(241,73,o),
(241,220,cs),
(241,681,l),
(141,681,l),
(141,275,ls),
(141,134,o),
(124,79,o),
(22,79,cs),
(9,79,l),
(9,-15,l)
);
}
);
userData = {
com.typemytype.robofont.guides = (
{
angle = 90;
isGlobal = 0;
magnetic = 5;
x = 251;
y = 178;
},
{
angle = 90;
isGlobal = 0;
magnetic = 5;
x = 382;
y = 683;
},
{
angle = 90;
isGlobal = 0;
magnetic = 5;
x = 232;
y = 216;
}
);
com.typemytype.robofont.layerData = {
background = {
anchors = (
{
name = top;
x = 191;
y = 780;
}
);
components = (
);
contours = (
{
points = (
{
segmentType = curve;
smooth = 1;
x = -5;
y = 179;
},
{
smooth = 0;
x = -48;
y = 179;
},
{
smooth = 0;
x = -71;
y = 207;
},
{
segmentType = curve;
smooth = 0;
x = -71;
y = 263;
},
{
segmentType = line;
smooth = 0;
x = -71;
y = 304;
},
{
segmentType = line;
smooth = 0;
x = -271;
y = 304;
},
{
segmentType = line;
smooth = 1;
x = -271;
y = 263;
},
{
smooth = 0;
x = -271;
y = 99;
},
{
smooth = 0;
x = -189;
y = -15;
},
{
segmentType = curve;
smooth = 1;
x = -5;
y = -15;
},
{
smooth = 0;
x = 200;
y = -15;
},
{
smooth = 0;
x = 291;
y = 105;
},
{
segmentType = curve;
smooth = 1;
x = 291;
y = 270;
},
{
segmentType = line;
smooth = 0;
x = 291;
y = 750;
},
{
segmentType = line;
smooth = 0;
x = 91;
y = 750;
},
{
segmentType = line;
smooth = 1;
x = 91;
y = 265;
},
{
smooth = 0;
x = 91;
y = 208;
},
{
smooth = 0;
x = 59;
y = 179;
}
);
}
);
lib = {
};
name = J.alt;
unicodes = (
);
width = 332;
};
};
};
width = 318;
},
{
anchors = (
{
name = top;
pos = (241,681);
}
);
layerId = "1CA3C852-39F9-4810-8045-E03244E0B506";
shapes = (
{
closed = 1;
nodes = (
(39,-14,ls),
(258,-14,o),
(331,86,o),
(331,245,cs),
(331,681,l),
(150,681,l),
(150,295,ls),
(150,207,o),
(143,163,o),
(51,163,cs),
(8,163,l),
(8,-14,l)
);
}
);
userData = {
com.schriftgestaltung.Glyphs.lastChange = "2017-03-13 23:31:04 +0000";
com.typemytype.robofont.guides = (
{
angle = 90;
isGlobal = 0;
magnetic = 5;
x = 251;
y = 178;
},
{
angle = 90;
isGlobal = 0;
magnetic = 5;
x = 382;
y = 683;
},
{
angle = 90;
isGlobal = 0;
magnetic = 5;
x = 232;
y = 216;
}
);
com.typemytype.robofont.layerData = {
background = {
anchors = (
{
name = top;
x = 265;
y = 780;
}
);
components = (
);
contours = (
{
points = (
{
segmentType = curve;
smooth = 1;
x = 69;
y = 179;
},
{
smooth = 0;
x = 26;
y = 179;
},
{
smooth = 0;
x = 3;
y = 207;
},
{
segmentType = curve;
smooth = 0;
x = 3;
y = 263;
},
{
segmentType = line;
smooth = 0;
x = 3;
y = 304;
},
{
segmentType = line;
smooth = 0;
x = -197;
y = 304;
},
{
segmentType = line;
smooth = 1;
x = -197;
y = 263;
},
{
smooth = 0;
x = -197;
y = 99;
},
{
smooth = 0;
x = -115;
y = -15;
},
{
segmentType = curve;
smooth = 1;
x = 69;
y = -15;
},
{
smooth = 0;
x = 274;
y = -15;
},
{
smooth = 0;
x = 365;
y = 105;
},
{
segmentType = curve;
smooth = 1;
x = 365;
y = 270;
},
{
segmentType = line;
smooth = 0;
x = 365;
y = 750;
},
{
segmentType = line;
smooth = 0;
x = 165;
y = 750;
},
{
segmentType = line;
smooth = 1;
x = 165;
y = 265;
},
{
smooth = 0;
x = 165;
y = 208;
},
{
smooth = 0;
x = 133;
y = 179;
}
);
}
);
lib = {
};
name = J.alt;
unicodes = (
);
width = 406;
};
};
};
width = 362;
}
);
note = "\012    J\012  ";
},
{
glyphname = a;
kernLeft = a;
kernRight = a;
layers = (
{
anchors = (
{
name = bottom;
pos = (257,0);
},
{
name = ogonek;
pos = (432,0);
},
{
name = top;
pos = (243,488);
}
);
layerId = "344A0678-763D-4FBD-9EF6-1E94428A847E";
shapes = (
{
closed = 1;
nodes = (
(299,-14,o),
(364,25,o),
(388,104,c),
(335,89,l),
(360,0,l),
(432,0,l),
(432,327,ls),
(432,422,o),
(372,498,o),
(247,498,cs),
(191,498,o),
(131,484,o),
(76,458,c),
(106,381,l),
(154,402,o),
(200,410,o),
(237,410,cs),
(307,410,o),
(332,368,o),
(332,327,cs),
(332,202,l),
(388,202,l),
(365,275,o),
(309,320,o),
(216,320,cs),
(103,320,o),
(34,248,o),
(34,153,cs),
(34,48,o),
(101,-14,o),
(216,-14,cs)
);
},
{
closed = 1;
nodes = (
(175,75,o),
(136,103,o),
(136,153,cs),
(136,203,o),
(175,231,o),
(234,231,cs),
(293,231,o),
(332,203,o),
(332,153,cs),
(332,103,o),
(293,75,o),
(234,75,cs)
);
}
);
userData = {
com.typemytype.robofont.guides = (
{
angle = 0;
isGlobal = 0;
x = 452;
y = 294;
},
{
angle = 0;
isGlobal = 0;
x = 212;
y = 114;
},
{
angle = 0;
isGlobal = 0;
x = 610;
y = 335;
},
{
angle = 0;
isGlobal = 0;
x = 622;
y = 305;
},
{
angle = 90;
isGlobal = 0;
magnetic = 5;
x = 243;
y = 35;
},
{
angle = 0;
isGlobal = 0;
magnetic = 5;
x = 173;
y = 156;
},
{
angle = 90;
isGlobal = 0;
magnetic = 5;
x = 260;
y = 164;
},
{
angle = 90;
isGlobal = 0;
magnetic = 5;
x = 247;
y = 170;
}
);
com.typemytype.robofont.layerData = {
background = {
anchors = (
{
name = top;
x = 271;
y = 550;
}
);
components = (
);
contours = (
);
lib = {
};
name = a;
unicodes = (
);
width = 522;
};
};
};
width = 492;
},
{
anchors = (
{
name = bottom;
pos = (285,0);
},
{
name = ogonek;
pos = (487,0);
},
{
name = top;
pos = (271,490);
}
);
layerId = "1CA3C852-39F9-4810-8045-E03244E0B506";
shapes = (
{
closed = 1;
nodes = (
(298,-13,o),
(354,42,o),
(374,123,c),
(299,99,l),
(331,0,l),
(487,0,l),
(487,292,ls),
(487,423,o),
(410,504,o),
(266,504,cs),
(184,504,o),
(109,480,o),
(48,450,c),
(100,324,l),
(152,350,o),
(201,358,o),
(237,358,cs),
(281,358,o),
(305,335,o),
(305,303,cs),
(305,197,l),
(374,177,l),
(356,268,o),
(291,313,o),
(192,313,cs),
(100,313,o),
(14,257,o),
(14,150,cs),
(14,56,o),
(89,-13,o),
(190,-13,cs)
);
},
{
closed = 1;
nodes = (
(223,104,o),
(204,124,o),
(204,150,cs),
(204,175,o),
(223,196,o),
(256,196,cs),
(287,196,o),
(307,175,o),
(307,150,cs),
(307,124,o),
(287,104,o),
(256,104,cs)
);
}
);
userData = {
com.schriftgestaltung.Glyphs.lastChange = "2017-03-22 18:27:57 +0000";
com.typemytype.robofont.guides = (
{
angle = 0;
isGlobal = 0;
x = 452;
y = 294;
},
{
angle = 0;
isGlobal = 0;
x = 212;
y = 114;
},
{
angle = 0;
isGlobal = 0;
x = 610;
y = 335;
},
{
angle = 0;
isGlobal = 0;
x = 622;
y = 305;
},
{
angle = 90;
isGlobal = 0;
magnetic = 5;
x = 282;
y = 238;
},
{
angle = 90;
isGlobal = 0;
magnetic = 5;
x = 325;
y = 187;
}
);
com.typemytype.robofont.layerData = {
background = {
anchors = (
{
name = top;
x = 309;
y = 550;
},
{
name = top;
x = 318;
y = 550;
},
{
name = ogonek;
x = 530;
y = 0;
},
{
name = bottom;
x = 318;
y = 0;
}
);
components = (
);
contours = (
{
points = (
{
segmentType = curve;
smooth = 1;
x = 305;
y = 222;
},
{
smooth = 0;
x = 353;
y = 222;
},
{
smooth = 0;
x = 388;
y = 195;
},
{
segmentType = curve;
smooth = 0;
x = 388;
y = 155;
},
{
smooth = 0;
x = 387;
y = 115;
},
{
smooth = 0;
x = 352;
y = 89;
},
{
segmentType = curve;
smooth = 1;
x = 305;
y = 89;
},
{
smooth = 0;
x = 259;
y = 89;
},
{
smooth = 0;
x = 222;
y = 115;
},
{
segmentType = curve;
smooth = 1;
x = 222;
y = 155;
},
{
smooth = 0;
x = 222;
y = 195;
},
{
smooth = 0;
x = 259;
y = 222;
}
);
},
{
points = (
{
segmentType = line;
smooth = 0;
x = 530;
y = 0;
},
{
segmentType = line;
smooth = 1;
x = 530;
y = 312;
},
{
smooth = 0;
x = 530;
y = 437;
},
{
smooth = 0;
x = 462;
y = 513;
},
{
segmentType = curve;
smooth = 1;
x = 327;
y = 513;
},
{
smooth = 0;
x = 251;
y = 513;
},
{
smooth = 0;
x = 196;
y = 497;
},
{
segmentType = curve;
smooth = 0;
x = 132;
y = 464;
},
{
segmentType = line;
smooth = 0;
x = 169;
y = 368;
},
{
smooth = 0;
x = 222;
y = 397;
},
{
smooth = 0;
x = 268;
y = 404;
},
{
segmentType = curve;
smooth = 1;
x = 305;
y = 404;
},
{
smooth = 0;
x = 367;
y = 404;
},
{
smooth = 0;
x = 400;
y = 375;
},
{
segmentType = curve;
smooth = 1;
x = 400;
y = 334;
},
{
segmentType = line;
smooth = 0;
x = 400;
y = 217;
},
{
segmentType = line;
smooth = 0;
x = 446;
y = 205;
},
{
smooth = 0;
x = 446;
y = 205;
},
{
smooth = 0;
x = 418;
y = 325;
},
{
segmentType = curve;
smooth = 1;
x = 285;
y = 325;
},
{
smooth = 0;
x = 178;
y = 325;
},
{
smooth = 0;
x = 90;
y = 261;
},
{
segmentType = curve;
smooth = 1;
x = 90;
y = 155;
},
{
smooth = 0;
x = 90;
y = 58;
},
{
smooth = 0;
x = 178;
y = -14;
},
{
segmentType = curve;
smooth = 1;
x = 278;
y = -14;
},
{
smooth = 0;
x = 381;
y = -14;
},
{
smooth = 0;
x = 474;
y = 66;
},
{
segmentType = curve;
smooth = 0;
x = 474;
y = 155;
},
{
segmentType = line;
smooth = 0;
x = 413;
y = 119;
},
{
segmentType = line;
smooth = 0;
x = 428;
y = 0;
}
);
}
);
lib = {
};
name = a;
unicodes = (
);
width = 560;
};
};
};
width = 520;
},
{
anchors = (
{
name = bottom;
pos = (257,0);
},
{
name = ogonek;
pos = (432,0);
},
{
name = top;
pos = (243,488);
}
);
associatedMasterId = "344A0678-763D-4FBD-9EF6-1E94428A847E";
layerId = "965F7EC1-0438-4956-8AE4-032FE13F3EBB";
name = "Regular [0, 7";
shapes = (
{
closed = 1;
nodes = (
(390,-10,o),
(478,92,o),
(478,245,cs),
(478,397,o),
(390,498,o),
(259,498,cs),
(124,498,o),
(34,397,o),
(34,245,cs),
(34,92,o),
(124,-10,o),
(259,-10,cs)
);
},
{
closed = 1;
nodes = (
(191,76,o),
(136,144,o),
(136,245,cs),
(136,345,o),
(191,412,o),
(274,412,cs),
(356,412,o),
(411,345,o),
(411,244,cs),
(411,143,o),
(356,76,o),
(274,76,cs)
);
},
{
closed = 1;
nodes = (
(506,0,l),
(506,490,l),
(406,490,l),
(406,376,l),
(416,376,l),
(416,98,l),
(406,98,l),
(430,0,l)
);
}
);
userData = {
com.schriftgestaltung.Glyphs.lastChange = "2017-03-22 18:27:57 +0000";
com.typemytype.robofont.guides = (
{
angle = 0;
isGlobal = 0;
x = 452;
y = 294;
},
{
angle = 0;
isGlobal = 0;
x = 212;
y = 114;
},
{
angle = 0;
isGlobal = 0;
x = 610;
y = 335;
},
{
angle = 0;
isGlobal = 0;
x = 622;
y = 305;
},
{
angle = 90;
isGlobal = 0;
magnetic = 5;
x = 243;
y = 35;
},
{
angle = 0;
isGlobal = 0;
magnetic = 5;
x = 173;
y = 156;
},
{
angle = 90;
isGlobal = 0;
magnetic = 5;
x = 260;
y = 164;
},
{
angle = 90;
isGlobal = 0;
magnetic = 5;
x = 247;
y = 170;
}
);
com.typemytype.robofont.layerData = {
background = {
anchors = (
{
name = top;
x = 271;
y = 550;
}
);
components = (
);
contours = (
);
lib = {
};
name = a;
unicodes = (
);
width = 522;
};
};
};
width = 570;
},
{
anchors = (
{
name = bottom;
pos = (314,0);
},
{
name = ogonek;
pos = (536,0);
},
{
name = top;
pos = (298,540);
}
);
associatedMasterId = "1CA3C852-39F9-4810-8045-E03244E0B506";
layerId = "BEC86F78-5557-4DCE-AD7C-D68FA1059134";
name = "Ultra [0,7";
shapes = (
{
closed = 1;
nodes = (
(401,-15,o),
(494,91,o),
(494,270,cs),
(494,464,o),
(405,555,o),
(267,555,cs),
(123,555,o),
(17,434,o),
(17,270,cs),
(17,106,o),
(120,-15,o),
(264,-15,cs)
);
},
{
closed = 1;
nodes = (
(258,179,o),
(219,218,o),
(219,270,cs),
(219,322,o),
(258,361,o),
(305,361,cs),
(353,361,o),
(393,322,o),
(393,270,cs),
(393,218,o),
(353,179,o),
(305,179,cs)
);
},
{
closed = 1;
nodes = (
(583,0,l),
(583,540,l),
(433,540,l),
(383,370,l),
(393,370,l),
(393,160,l),
(383,160,l),
(435,0,l)
);
}
);
userData = {
com.schriftgestaltung.Glyphs.lastChange = "2017-03-22 18:27:57 +0000";
com.typemytype.robofont.guides = (
{
angle = 0;
isGlobal = 0;
x = 452;
y = 294;
},
{
angle = 0;
isGlobal = 0;
x = 212;
y = 114;
},
{
angle = 0;
isGlobal = 0;
x = 610;
y = 335;
},
{
angle = 0;
isGlobal = 0;
x = 622;
y = 305;
},
{
angle = 90;
isGlobal = 0;
magnetic = 5;
x = 282;
y = 238;
},
{
angle = 90;
isGlobal = 0;
magnetic = 5;
x = 325;
y = 187;
}
);
com.typemytype.robofont.layerData = {
background = {
anchors = (
{
name = top;
x = 309;
y = 550;
},
{
name = top;
x = 318;
y = 550;
},
{
name = ogonek;
x = 530;
y = 0;
},
{
name = bottom;
x = 318;
y = 0;
}
);
components = (
);
contours = (
{
points = (
{
segmentType = curve;
smooth = 1;
x = 305;
y = 222;
},
{
smooth = 0;
x = 353;
y = 222;
},
{
smooth = 0;
x = 388;
y = 195;
},
{
segmentType = curve;
smooth = 0;
x = 388;
y = 155;
},
{
smooth = 0;
x = 387;
y = 115;
},
{
smooth = 0;
x = 352;
y = 89;
},
{
segmentType = curve;
smooth = 1;
x = 305;
y = 89;
},
{
smooth = 0;
x = 259;
y = 89;
},
{
smooth = 0;
x = 222;
y = 115;
},
{
segmentType = curve;
smooth = 1;
x = 222;
y = 155;
},
{
smooth = 0;
x = 222;
y = 195;
},
{
smooth = 0;
x = 259;
y = 222;
}
);
},
{
points = (
{
segmentType = line;
smooth = 0;
x = 530;
y = 0;
},
{
segmentType = line;
smooth = 1;
x = 530;
y = 312;
},
{
smooth = 0;
x = 530;
y = 437;
},
{
smooth = 0;
x = 462;
y = 513;
},
{
segmentType = curve;
smooth = 1;
x = 327;
y = 513;
},
{
smooth = 0;
x = 251;
y = 513;
},
{
smooth = 0;
x = 196;
y = 497;
},
{
segmentType = curve;
smooth = 0;
x = 132;
y = 464;
},
{
segmentType = line;
smooth = 0;
x = 169;
y = 368;
},
{
smooth = 0;
x = 222;
y = 397;
},
{
smooth = 0;
x = 268;
y = 404;
},
{
segmentType = curve;
smooth = 1;
x = 305;
y = 404;
},
{
smooth = 0;
x = 367;
y = 404;
},
{
smooth = 0;
x = 400;
y = 375;
},
{
segmentType = curve;
smooth = 1;
x = 400;
y = 334;
},
{
segmentType = line;
smooth = 0;
x = 400;
y = 217;
},
{
segmentType = line;
smooth = 0;
x = 446;
y = 205;
},
{
smooth = 0;
x = 446;
y = 205;
},
{
smooth = 0;
x = 418;
y = 325;
},
{
segmentType = curve;
smooth = 1;
x = 285;
y = 325;
},
{
smooth = 0;
x = 178;
y = 325;
},
{
smooth = 0;
x = 90;
y = 261;
},
{
segmentType = curve;
smooth = 1;
x = 90;
y = 155;
},
{
smooth = 0;
x = 90;
y = 58;
},
{
smooth = 0;
x = 178;
y = -14;
},
{
segmentType = curve;
smooth = 1;
x = 278;
y = -14;
},
{
smooth = 0;
x = 381;
y = -14;
},
{
smooth = 0;
x = 474;
y = 66;
},
{
segmentType = curve;
smooth = 0;
x = 474;
y = 155;
},
{
segmentType = line;
smooth = 0;
x = 413;
y = 119;
},
{
segmentType = line;
smooth = 0;
x = 428;
y = 0;
}
);
}
);
lib = {
};
name = a;
unicodes = (
);
width = 560;
};
};
};
width = 620;
}
);
note = "\012    a\012  ";
unicode = 97;
},
{
glyphname = aogonek;
kernLeft = a;
kernRight = a;
layers = (
{
anchors = (
{
name = bottom;
pos = (257,0);
},
{
name = ogonek;
pos = (432,0);
},
{
name = top;
pos = (243,488);
}
);
background = {
shapes = (
{
ref = a;
},
{
pos = (106,0);
ref = ogonekcomb;
}
);
};
layerId = "344A0678-763D-4FBD-9EF6-1E94428A847E";
shapes = (
{
closed = 1;
nodes = (
(299,-14,o),
(364,25,o),
(388,104,c),
(335,89,l),
(360,0,l),
(367,0,l),
(362,4,l),
(311,-30,o),
(276,-86,o),
(276,-137,cs),
(276,-202,o),
(320,-227,o),
(377,-227,cs),
(404,-227,o),
(428,-220,o),
(440,-213,c),
(431,-150,l),
(422,-154,o),
(404,-159,o),
(391,-159,cs),
(363,-159,o),
(347,-147,o),
(347,-118,cs),
(347,-78,o),
(380,-33,o),
(432,0,c),
(432,327,ls),
(432,422,o),
(372,498,o),
(247,498,cs),
(191,498,o),
(131,484,o),
(76,458,c),
(106,381,l),
(154,402,o),
(200,410,o),
(237,410,cs),
(307,410,o),
(332,368,o),
(332,327,cs),
(332,202,l),
(388,202,l),
(365,275,o),
(309,320,o),
(216,320,cs),
(103,320,o),
(34,248,o),
(34,153,cs),
(34,48,o),
(101,-14,o),
(216,-14,cs)
);
},
{
closed = 1;
nodes = (
(175,75,o),
(136,103,o),
(136,153,cs),
(136,203,o),
(175,231,o),
(234,231,cs),
(293,231,o),
(332,203,o),
(332,153,cs),
(332,103,o),
(293,75,o),
(234,75,cs)
);
}
);
userData = {
com.typemytype.robofont.mark = (
1,
0.435,
0.812,
1
);
};
width = 492;
},
{
anchors = (
{
name = bottom;
pos = (285,0);
},
{
name = ogonek;
pos = (487,0);
},
{
name = top;
pos = (271,490);
}
);
background = {
shapes = (
{
ref = a;
},
{
pos = (125,0);
ref = ogonekcomb;
}
);
};
layerId = "1CA3C852-39F9-4810-8045-E03244E0B506";
shapes = (
{
closed = 1;
nodes = (
(298,-13,o),
(354,42,o),
(374,123,c),
(299,99,l),
(331,0,l),
(389,0,l),
(374,15,l),
(338,-12,o),
(297,-52,o),
(297,-117,cs),
(297,-185,o),
(338,-224,o),
(423,-224,cs),
(457,-224,o),
(486,-217,o),
(505,-208,c),
(488,-108,l),
(482,-112,o),
(472,-114,o),
(464,-114,cs),
(442,-114,o),
(432,-104,o),
(432,-84,cs),
(432,-54,o),
(459,-15,o),
(487,0,c),
(487,292,ls),
(487,423,o),
(410,504,o),
(266,504,cs),
(184,504,o),
(109,480,o),
(48,450,c),
(100,324,l),
(152,350,o),
(201,358,o),
(237,358,cs),
(281,358,o),
(305,335,o),
(305,303,cs),
(305,197,l),
(374,177,l),
(356,268,o),
(291,313,o),
(192,313,cs),
(100,313,o),
(14,257,o),
(14,150,cs),
(14,56,o),
(89,-13,o),
(190,-13,cs)
);
},
{
closed = 1;
nodes = (
(223,104,o),
(204,124,o),
(204,150,cs),
(204,175,o),
(223,196,o),
(256,196,cs),
(287,196,o),
(307,175,o),
(307,150,cs),
(307,124,o),
(287,104,o),
(256,104,cs)
);
}
);
userData = {
com.typemytype.robofont.mark = (
1,
0.435,
0.812,
0.45
);
};
width = 520;
}
);
unicode = 261;
},
{
glyphname = ae;
kernLeft = a;
kernRight = e;
layers = (
{
anchors = (
{
name = top;
pos = (405,488);
}
);
layerId = "344A0678-763D-4FBD-9EF6-1E94428A847E";
shapes = (
{
closed = 1;
nodes = (
(302,-14,o),
(369,25,o),
(393,104,c),
(330,89,l),
(422,89,l),
(422,327,ls),
(422,422,o),
(364,498,o),
(242,498,cs),
(186,498,o),
(126,484,o),
(71,458,c),
(101,381,l),
(149,402,o),
(195,410,o),
(232,410,cs),
(302,410,o),
(327,368,o),
(327,327,cs),
(327,202,l),
(373,202,l),
(352,275,o),
(301,320,o),
(216,320,cs),
(103,320,o),
(34,248,o),
(34,153,cs),
(34,48,o),
(101,-14,o),
(216,-14,cs)
);
},
{
closed = 1;
nodes = (
(175,75,o),
(136,103,o),
(136,153,cs),
(136,203,o),
(175,231,o),
(234,231,cs),
(293,231,o),
(332,203,o),
(332,153,cs),
(332,103,o),
(293,75,o),
(234,75,cs)
);
},
{
closed = 1;
nodes = (
(632,-10,o),
(705,32,o),
(736,116,c),
(661,163,l),
(640,104,o),
(604,76,o),
(546,76,cs),
(466,76,o),
(423,133,o),
(423,222,cs),
(423,274,ls),
(423,369,o),
(467,417,o),
(537,417,cs),
(603,417,o),
(642,365,o),
(637,273,c),
(665,291,l),
(415,291,l),
(415,215,l),
(737,215,l),
(738,230,o),
(739,246,o),
(739,263,cs),
(739,413,o),
(668,498,o),
(537,498,cs),
(410,498,o),
(325,396,o),
(325,243,cs),
(325,91,o),
(409,-10,o),
(546,-10,cs)
);
}
);
userData = {
com.typemytype.robofont.guides = (
{
angle = 90;
isGlobal = 0;
magnetic = 5;
x = 247;
y = 161;
},
{
angle = 90;
isGlobal = 0;
magnetic = 5;
x = 256;
y = 141;
}
);
com.typemytype.robofont.mark = (
0.743,
0.775,
0.772,
1
);
};
width = 769;
},
{
anchors = (
{
name = top;
pos = (426,490);
}
);
layerId = "1CA3C852-39F9-4810-8045-E03244E0B506";
shapes = (
{
closed = 1;
nodes = (
(313,-14,o),
(370,26,o),
(419,123,c),
(299,99,l),
(478,99,l),
(478,292,ls),
(478,423,o),
(403,504,o),
(257,504,cs),
(188,504,o),
(116,480,o),
(58,450,c),
(110,324,l),
(158,350,o),
(203,358,o),
(237,358,cs),
(281,358,o),
(305,335,o),
(305,303,cs),
(305,197,l),
(374,177,l),
(356,268,o),
(291,313,o),
(192,313,cs),
(100,313,o),
(14,257,o),
(14,150,cs),
(14,55,o),
(88,-14,o),
(208,-14,cs)
);
},
{
closed = 1;
nodes = (
(225,104,o),
(206,124,o),
(206,150,cs),
(206,175,o),
(225,196,o),
(258,196,cs),
(289,196,o),
(309,175,o),
(309,150,cs),
(309,124,o),
(289,104,o),
(258,104,cs)
);
},
{
closed = 1;
nodes = (
(673,-14,o),
(757,37,o),
(795,115,c),
(678,176,l),
(657,147,o),
(627,125,o),
(577,125,cs),
(516,125,o),
(479,157,o),
(479,219,cs),
(479,275,ls),
(479,335,o),
(520,366,o),
(565,366,cs),
(612,366,o),
(647,336,o),
(647,279,c),
(656,300,l),
(451,300,l),
(451,183,l),
(799,183,l),
(801,196,o),
(803,221,o),
(803,248,cs),
(803,385,o),
(712,504,o),
(563,504,cs),
(418,504,o),
(323,394,o),
(323,245,cs),
(323,86,o),
(421,-14,o),
(572,-14,cs)
);
}
);
userData = {
com.typemytype.robofont.guides = (
{
angle = 90;
isGlobal = 0;
magnetic = 5;
x = 250;
y = 153;
},
{
angle = 0;
isGlobal = 0;
magnetic = 5;
x = 447;
y = 340;
},
{
angle = 90;
isGlobal = 0;
magnetic = 5;
x = 453;
y = 246;
}
);
com.typemytype.robofont.layerData = {
background = {
anchors = (
{
name = top;
x = 425;
y = 600;
}
);
components = (
);
contours = (
{
points = (
{
segmentType = curve;
smooth = 1;
x = 265;
y = 216;
},
{
smooth = 0;
x = 313;
y = 216;
},
{
smooth = 0;
x = 345;
y = 193;
},
{
segmentType = curve;
smooth = 0;
x = 345;
y = 165;
},
{
smooth = 0;
x = 344;
y = 137;
},
{
smooth = 0;
x = 313;
y = 115;
},
{
segmentType = curve;
smooth = 1;
x = 265;
y = 115;
},
{
smooth = 0;
x = 224;
y = 115;
},
{
smooth = 0;
x = 192;
y = 137;
},
{
segmentType = curve;
smooth = 1;
x = 192;
y = 165;
},
{
smooth = 0;
x = 192;
y = 193;
},
{
smooth = 0;
x = 224;
y = 216;
}
);
},
{
points = (
{
segmentType = line;
smooth = 0;
x = 500;
y = 100;
},
{
segmentType = line;
smooth = 1;
x = 500;
y = 322;
},
{
smooth = 0;
x = 500;
y = 466;
},
{
smooth = 0;
x = 425;
y = 555;
},
{
segmentType = curve;
smooth = 1;
x = 277;
y = 555;
},
{
smooth = 0;
x = 201;
y = 555;
},
{
smooth = 0;
x = 122;
y = 529;
},
{
segmentType = curve;
smooth = 0;
x = 58;
y = 496;
},
{
segmentType = line;
smooth = 0;
x = 115;
y = 357;
},
{
smooth = 0;
x = 168;
y = 386;
},
{
smooth = 0;
x = 218;
y = 394;
},
{
segmentType = curve;
smooth = 1;
x = 255;
y = 394;
},
{
smooth = 0;
x = 304;
y = 394;
},
{
smooth = 0;
x = 330;
y = 369;
},
{
segmentType = curve;
smooth = 1;
x = 330;
y = 334;
},
{
segmentType = line;
smooth = 0;
x = 330;
y = 217;
},
{
segmentType = line;
smooth = 0;
x = 406;
y = 195;
},
{
smooth = 0;
x = 406;
y = 195;
},
{
smooth = 0;
x = 368;
y = 345;
},
{
segmentType = curve;
smooth = 1;
x = 221;
y = 345;
},
{
smooth = 0;
x = 117;
y = 345;
},
{
smooth = 0;
x = 20;
y = 283;
},
{
segmentType = curve;
smooth = 1;
x = 20;
y = 165;
},
{
smooth = 0;
x = 20;
y = 62;
},
{
smooth = 0;
x = 108;
y = -14;
},
{
segmentType = curve;
smooth = 1;
x = 228;
y = -14;
},
{
smooth = 0;
x = 331;
y = -14;
},
{
smooth = 0;
x = 408;
y = 45;
},
{
segmentType = curve;
smooth = 0;
x = 438;
y = 134;
},
{
segmentType = line;
smooth = 0;
x = 323;
y = 109;
},
{
segmentType = line;
smooth = 0;
x = 358;
y = 100;
}
);
},
{
points = (
{
segmentType = curve;
smooth = 1;
x = 612;
y = -15;
},
{
smooth = 0;
x = 728;
y = -15;
},
{
smooth = 0;
x = 824;
y = 41;
},
{
segmentType = curve;
smooth = 0;
x = 868;
y = 127;
},
{
segmentType = line;
smooth = 0;
x = 739;
y = 194;
},
{
smooth = 0;
x = 716;
y = 162;
},
{
smooth = 0;
x = 683;
y = 138;
},
{
segmentType = curve;
smooth = 0;
x = 628;
y = 138;
},
{
smooth = 0;
x = 554;
y = 138;
},
{
smooth = 0;
x = 510;
y = 173;
},
{
segmentType = curve;
smooth = 1;
x = 510;
y = 241;
},
{
segmentType = line;
smooth = 1;
x = 510;
y = 303;
},
{
smooth = 0;
x = 510;
y = 369;
},
{
smooth = 0;
x = 560;
y = 403;
},
{
segmentType = curve;
smooth = 1;
x = 614;
y = 403;
},
{
smooth = 0;
x = 672;
y = 403;
},
{
smooth = 0;
x = 715;
y = 370;
},
{
segmentType = curve;
smooth = 0;
x = 715;
y = 307;
},
{
segmentType = line;
smooth = 0;
x = 725;
y = 331;
},
{
segmentType = line;
smooth = 0;
x = 479;
y = 331;
},
{
segmentType = line;
smooth = 0;
x = 479;
y = 202;
},
{
segmentType = line;
smooth = 0;
x = 882;
y = 202;
},
{
smooth = 0;
x = 884;
y = 216;
},
{
smooth = 0;
x = 886;
y = 243;
},
{
segmentType = curve;
smooth = 1;
x = 886;
y = 273;
},
{
smooth = 0;
x = 886;
y = 424;
},
{
smooth = 0;
x = 782;
y = 555;
},
{
segmentType = curve;
smooth = 1;
x = 612;
y = 555;
},
{
smooth = 0;
x = 446;
y = 555;
},
{
smooth = 0;
x = 338;
y = 434;
},
{
segmentType = curve;
smooth = 1;
x = 338;
y = 270;
},
{
smooth = 0;
x = 338;
y = 95;
},
{
smooth = 0;
x = 446;
y = -15;
}
);
}
);
lib = {
};
name = ae;
unicodes = (
);
width = 901;
};
};
com.typemytype.robofont.mark = (
0.743,
0.775,
0.772,
1
);
};
width = 818;
},
{
anchors = (
{
name = top;
pos = (426,535);
}
);
associatedMasterId = "344A0678-763D-4FBD-9EF6-1E94428A847E";
layerId = "CC578CE7-B194-435C-AE6E-E97B9D024282";
name = "Nov 2 20, 13:38";
shapes = (
{
closed = 1;
nodes = (
(317,231,o),
(357,195,o),
(357,153,c),
(356,111,o),
(306,75,o),
(257,75,cs),
(197,75,o),
(157,111,o),
(157,153,cs),
(157,195,o),
(197,231,o),
(257,231,cs)
);
},
{
closed = 1;
nodes = (
(335,-14,o),
(416,66,o),
(416,145,c),
(380,92,l),
(442,92,l),
(442,297,ls),
(442,422,o),
(385,498,o),
(277,498,cs),
(201,498,o),
(161,484,o),
(96,458,c),
(126,381,l),
(174,402,o),
(220,410,o),
(257,410,cs),
(327,410,o),
(352,368,o),
(352,327,cs),
(352,202,l),
(408,190,l),
(408,190,o),
(399,320,o),
(239,320,cs),
(142,320,o),
(55,255,o),
(55,153,cs),
(55,58,o),
(133,-14,o),
(237,-14,cs)
);
},
{
closed = 1;
nodes = (
(353,91,o),
(446,-10,o),
(577,-10,cs),
(680,-10,o),
(741,32,o),
(784,116,c),
(709,163,l),
(679,113,o),
(650,76,o),
(577,76,cs),
(484,76,o),
(445,158,o),
(445,244,cs),
(445,336,o),
(486,417,o),
(577,417,cs),
(664,417,o),
(700,344,o),
(700,243,c),
(728,301,l),
(438,301,l),
(438,215,l),
(800,215,l),
(801,225,o),
(802,233,o),
(802,243,cs),
(802,396,o),
(715,498,o),
(577,498,cs),
(446,498,o),
(353,396,o),
(353,243,cs)
);
}
);
userData = {
com.typemytype.robofont.guides = (
{
angle = 90;
isGlobal = 0;
magnetic = 5;
x = 247;
y = 161;
},
{
angle = 90;
isGlobal = 0;
magnetic = 5;
x = 256;
y = 141;
}
);
com.typemytype.robofont.mark = (
0.743,
0.775,
0.772,
1
);
};
width = 837;
},
{
anchors = (
{
name = top;
pos = (453,600);
}
);
associatedMasterId = "1CA3C852-39F9-4810-8045-E03244E0B506";
layerId = "459BBD05-67DC-4C08-B399-BF88C734F96F";
name = "Nov 2 20, 13:44";
shapes = (
{
closed = 1;
nodes = (
(313,216,o),
(345,193,o),
(345,165,c),
(344,137,o),
(313,115,o),
(265,115,cs),
(224,115,o),
(192,137,o),
(192,165,cs),
(192,193,o),
(224,216,o),
(265,216,cs)
);
},
{
closed = 1;
nodes = (
(331,-14,o),
(408,45,o),
(438,134,c),
(358,100,l),
(500,100,l),
(500,322,ls),
(500,466,o),
(425,555,o),
(277,555,cs),
(201,555,o),
(122,529,o),
(58,496,c),
(115,357,l),
(168,386,o),
(218,394,o),
(255,394,cs),
(304,394,o),
(330,369,o),
(330,334,cs),
(330,217,l),
(406,195,l),
(406,195,o),
(368,345,o),
(221,345,cs),
(117,345,o),
(20,283,o),
(20,165,cs),
(20,62,o),
(108,-14,o),
(228,-14,cs)
);
},
{
closed = 1;
nodes = (
(338,95,o),
(446,-15,o),
(612,-15,cs),
(728,-15,o),
(824,41,o),
(868,127,c),
(739,194,l),
(716,162,o),
(683,138,o),
(628,138,c),
(554,138,o),
(503,175,o),
(503,262,c),
(503,371,o),
(560,403,o),
(614,403,cs),
(672,403,o),
(715,370,o),
(715,307,c),
(725,331,l),
(479,331,l),
(479,202,l),
(882,202,l),
(884,216,o),
(886,243,o),
(886,273,cs),
(886,424,o),
(782,555,o),
(612,555,cs),
(446,555,o),
(338,434,o),
(338,270,cs)
);
}
);
userData = {
com.typemytype.robofont.guides = (
{
angle = 90;
isGlobal = 0;
magnetic = 5;
x = 250;
y = 153;
},
{
angle = 0;
isGlobal = 0;
magnetic = 5;
x = 447;
y = 340;
},
{
angle = 90;
isGlobal = 0;
magnetic = 5;
x = 453;
y = 246;
}
);
com.typemytype.robofont.layerData = {
background = {
anchors = (
{
name = top;
x = 425;
y = 600;
}
);
components = (
);
contours = (
{
points = (
{
segmentType = curve;
smooth = 1;
x = 265;
y = 216;
},
{
smooth = 0;
x = 313;
y = 216;
},
{
smooth = 0;
x = 345;
y = 193;
},
{
segmentType = curve;
smooth = 0;
x = 345;
y = 165;
},
{
smooth = 0;
x = 344;
y = 137;
},
{
smooth = 0;
x = 313;
y = 115;
},
{
segmentType = curve;
smooth = 1;
x = 265;
y = 115;
},
{
smooth = 0;
x = 224;
y = 115;
},
{
smooth = 0;
x = 192;
y = 137;
},
{
segmentType = curve;
smooth = 1;
x = 192;
y = 165;
},
{
smooth = 0;
x = 192;
y = 193;
},
{
smooth = 0;
x = 224;
y = 216;
}
);
},
{
points = (
{
segmentType = line;
smooth = 0;
x = 500;
y = 100;
},
{
segmentType = line;
smooth = 1;
x = 500;
y = 322;
},
{
smooth = 0;
x = 500;
y = 466;
},
{
smooth = 0;
x = 425;
y = 555;
},
{
segmentType = curve;
smooth = 1;
x = 277;
y = 555;
},
{
smooth = 0;
x = 201;
y = 555;
},
{
smooth = 0;
x = 122;
y = 529;
},
{
segmentType = curve;
smooth = 0;
x = 58;
y = 496;
},
{
segmentType = line;
smooth = 0;
x = 115;
y = 357;
},
{
smooth = 0;
x = 168;
y = 386;
},
{
smooth = 0;
x = 218;
y = 394;
},
{
segmentType = curve;
smooth = 1;
x = 255;
y = 394;
},
{
smooth = 0;
x = 304;
y = 394;
},
{
smooth = 0;
x = 330;
y = 369;
},
{
segmentType = curve;
smooth = 1;
x = 330;
y = 334;
},
{
segmentType = line;
smooth = 0;
x = 330;
y = 217;
},
{
segmentType = line;
smooth = 0;
x = 406;
y = 195;
},
{
smooth = 0;
x = 406;
y = 195;
},
{
smooth = 0;
x = 368;
y = 345;
},
{
segmentType = curve;
smooth = 1;
x = 221;
y = 345;
},
{
smooth = 0;
x = 117;
y = 345;
},
{
smooth = 0;
x = 20;
y = 283;
},
{
segmentType = curve;
smooth = 1;
x = 20;
y = 165;
},
{
smooth = 0;
x = 20;
y = 62;
},
{
smooth = 0;
x = 108;
y = -14;
},
{
segmentType = curve;
smooth = 1;
x = 228;
y = -14;
},
{
smooth = 0;
x = 331;
y = -14;
},
{
smooth = 0;
x = 408;
y = 45;
},
{
segmentType = curve;
smooth = 0;
x = 438;
y = 134;
},
{
segmentType = line;
smooth = 0;
x = 323;
y = 109;
},
{
segmentType = line;
smooth = 0;
x = 358;
y = 100;
}
);
},
{
points = (
{
segmentType = curve;
smooth = 1;
x = 612;
y = -15;
},
{
smooth = 0;
x = 728;
y = -15;
},
{
smooth = 0;
x = 824;
y = 41;
},
{
segmentType = curve;
smooth = 0;
x = 868;
y = 127;
},
{
segmentType = line;
smooth = 0;
x = 739;
y = 194;
},
{
smooth = 0;
x = 716;
y = 162;
},
{
smooth = 0;
x = 683;
y = 138;
},
{
segmentType = curve;
smooth = 0;
x = 628;
y = 138;
},
{
smooth = 0;
x = 554;
y = 138;
},
{
smooth = 0;
x = 510;
y = 173;
},
{
segmentType = curve;
smooth = 1;
x = 510;
y = 241;
},
{
segmentType = line;
smooth = 1;
x = 510;
y = 303;
},
{
smooth = 0;
x = 510;
y = 369;
},
{
smooth = 0;
x = 560;
y = 403;
},
{
segmentType = curve;
smooth = 1;
x = 614;
y = 403;
},
{
smooth = 0;
x = 672;
y = 403;
},
{
smooth = 0;
x = 715;
y = 370;
},
{
segmentType = curve;
smooth = 0;
x = 715;
y = 307;
},
{
segmentType = line;
smooth = 0;
x = 725;
y = 331;
},
{
segmentType = line;
smooth = 0;
x = 479;
y = 331;
},
{
segmentType = line;
smooth = 0;
x = 479;
y = 202;
},
{
segmentType = line;
smooth = 0;
x = 882;
y = 202;
},
{
smooth = 0;
x = 884;
y = 216;
},
{
smooth = 0;
x = 886;
y = 243;
},
{
segmentType = curve;
smooth = 1;
x = 886;
y = 273;
},
{
smooth = 0;
x = 886;
y = 424;
},
{
smooth = 0;
x = 782;
y = 555;
},
{
segmentType = curve;
smooth = 1;
x = 612;
y = 555;
},
{
smooth = 0;
x = 446;
y = 555;
},
{
smooth = 0;
x = 338;
y = 434;
},
{
segmentType = curve;
smooth = 1;
x = 338;
y = 270;
},
{
smooth = 0;
x = 338;
y = 95;
},
{
smooth = 0;
x = 446;
y = -15;
}
);
}
);
lib = {
};
name = ae;
unicodes = (
);
width = 901;
};
};
com.typemytype.robofont.mark = (
0.743,
0.775,
0.772,
1
);
};
width = 901;
}
);
metricLeft = a;
metricRight = e;
note = "\012    ae\012  ";
unicode = 230;
},
{
glyphname = b;
kernLeft = h;
kernRight = o;
layers = (
{
anchors = (
{
name = bottom;
pos = (285,0);
},
{
name = top;
pos = (114,681);
}
);
layerId = "344A0678-763D-4FBD-9EF6-1E94428A847E";
shapes = (
{
closed = 1;
nodes = (
(446,-10,o),
(536,92,o),
(536,245,cs),
(536,397,o),
(446,498,o),
(311,498,cs),
(180,498,o),
(92,397,o),
(92,245,cs),
(92,92,o),
(180,-10,o),
(311,-10,cs)
);
},
{
closed = 1;
nodes = (
(140,0,l),
(164,98,l),
(154,98,l),
(154,376,l),
(164,376,l),
(164,681,l),
(64,681,l),
(64,0,l)
);
},
{
closed = 1;
nodes = (
(214,76,o),
(159,143,o),
(159,244,cs),
(159,345,o),
(214,412,o),
(296,412,cs),
(379,412,o),
(434,345,o),
(434,245,cs),
(434,144,o),
(379,76,o),
(296,76,cs)
);
}
);
userData = {
com.typemytype.robofont.guides = (
{
angle = 90;
isGlobal = 0;
magnetic = 5;
x = 581;
y = 253;
},
{
angle = 90;
isGlobal = 0;
magnetic = 5;
x = 448;
y = 256;
}
);
};
width = 570;
},
{
anchors = (
{
name = bottom;
pos = (286,0);
},
{
name = top;
pos = (133,681);
}
);
layerId = "1CA3C852-39F9-4810-8045-E03244E0B506";
shapes = (
{
closed = 1;
nodes = (
(463,-14,o),
(557,96,o),
(557,245,cs),
(557,394,o),
(460,504,o),
(330,504,cs),
(204,504,o),
(123,421,o),
(123,245,cs),
(123,83,o),
(208,-14,o),
(332,-14,cs)
);
},
{
closed = 1;
nodes = (
(177,0,l),
(224,145,l),
(215,145,l),
(215,336,l),
(224,336,l),
(224,681,l),
(43,681,l),
(43,0,l)
);
},
{
closed = 1;
nodes = (
(252,163,o),
(215,198,o),
(215,245,cs),
(215,292,o),
(252,328,o),
(295,328,cs),
(338,328,o),
(373,292,o),
(373,245,cs),
(373,198,o),
(338,163,o),
(295,163,cs)
);
}
);
userData = {
com.schriftgestaltung.Glyphs.lastChange = "2017-03-20 16:50:55 +0000";
com.typemytype.robofont.guides = (
{
angle = 90;
isGlobal = 0;
magnetic = 5;
x = 581;
y = 253;
},
{
angle = 90;
isGlobal = 0;
magnetic = 5;
x = 448;
y = 256;
}
);
com.typemytype.robofont.layerData = {
background = {
anchors = (
);
components = (
);
contours = (
{
points = (
{
segmentType = line;
smooth = 0;
x = 70;
y = 0;
},
{
segmentType = line;
smooth = 0;
x = 176;
y = 0;
},
{
segmentType = line;
smooth = 0;
x = 200;
y = 133;
},
{
segmentType = line;
smooth = 0;
x = 200;
y = 700;
},
{
segmentType = line;
smooth = 0;
x = 70;
y = 700;
}
);
},
{
points = (
{
segmentType = curve;
smooth = 1;
x = 333;
y = -13;
},
{
smooth = 0;
x = 469;
y = -13;
},
{
smooth = 0;
x = 568;
y = 97;
},
{
segmentType = curve;
smooth = 1;
x = 568;
y = 250;
},
{
smooth = 0;
x = 568;
y = 402;
},
{
smooth = 0;
x = 469;
y = 513;
},
{
segmentType = curve;
smooth = 1;
x = 333;
y = 513;
},
{
smooth = 0;
x = 203;
y = 513;
},
{
smooth = 0;
x = 119;
y = 392;
},
{
segmentType = curve;
smooth = 1;
x = 119;
y = 250;
},
{
smooth = 0;
x = 119;
y = 117;
},
{
smooth = 0;
x = 203;
y = -13;
}
);
},
{
points = (
{
segmentType = curve;
smooth = 1;
x = 318;
y = 397;
},
{
smooth = 0;
x = 389;
y = 397;
},
{
smooth = 0;
x = 436;
y = 339;
},
{
segmentType = curve;
smooth = 1;
x = 436;
y = 250;
},
{
smooth = 0;
x = 436;
y = 161;
},
{
smooth = 0;
x = 389;
y = 103;
},
{
segmentType = curve;
smooth = 1;
x = 318;
y = 103;
},
{
smooth = 0;
x = 241;
y = 103;
},
{
smooth = 0;
x = 200;
y = 161;
},
{
segmentType = curve;
smooth = 1;
x = 200;
y = 250;
},
{
smooth = 0;
x = 200;
y = 339;
},
{
smooth = 0;
x = 241;
y = 397;
}
);
}
);
lib = {
};
name = b;
unicodes = (
);
width = 663;
};
};
};
width = 572;
}
);
note = "\012    b\012  ";
unicode = 98;
},
{
glyphname = c;
kernLeft = o;
kernRight = c;
layers = (
{
anchors = (
{
name = bottom;
pos = (271,0);
},
{
name = top;
pos = (271,488);
}
);
layerId = "344A0678-763D-4FBD-9EF6-1E94428A847E";
shapes = (
{
closed = 1;
nodes = (
(373,-10,o),
(456,46,o),
(492,131,c),
(397,171,l),
(375,115,o),
(330,86,o),
(276,86,cs),
(196,86,o),
(136,144,o),
(136,244,cs),
(136,344,o),
(196,402,o),
(276,402,cs),
(330,402,o),
(375,373,o),
(397,317,c),
(492,357,l),
(457,442,o),
(373,498,o),
(279,498,cs),
(129,498,o),
(34,394,o),
(34,244,cs),
(34,94,o),
(129,-10,o),
(279,-10,cs)
);
}
);
userData = {
com.typemytype.robofont.layerData = {
background = {
anchors = (
{
name = bottom;
x = 291;
y = 0;
},
{
name = top;
x = 292;
y = 535;
}
);
components = (
);
contours = (
);
lib = {
};
name = c;
unicodes = (
);
width = 540;
};
};
};
width = 509;
},
{
anchors = (
{
name = bottom;
pos = (271,0);
},
{
name = top;
pos = (270,490);
}
);
layerId = "1CA3C852-39F9-4810-8045-E03244E0B506";
shapes = (
{
closed = 1;
nodes = (
(385,-14,o),
(473,48,o),
(508,141,c),
(347,213,l),
(331,184,o),
(313,164,o),
(272,164,cs),
(229,164,o),
(195,195,o),
(195,246,cs),
(195,295,o),
(229,328,o),
(272,328,cs),
(313,328,o),
(331,308,o),
(347,277,c),
(508,350,l),
(473,444,o),
(387,504,o),
(269,504,cs),
(118,504,o),
(15,394,o),
(15,246,cs),
(15,95,o),
(118,-14,o),
(269,-14,cs)
);
}
);
userData = {
com.schriftgestaltung.Glyphs.lastChange = "2017-03-20 16:50:55 +0000";
com.typemytype.robofont.layerData = {
mask = {
anchors = (
);
components = (
);
contours = (
{
points = (
{
segmentType = curve;
smooth = 1;
x = 294;
y = 179;
},
{
smooth = 0;
x = 244;
y = 179;
},
{
smooth = 0;
x = 207;
y = 217;
},
{
segmentType = curve;
smooth = 1;
x = 207;
y = 271;
},
{
smooth = 0;
x = 207;
y = 325;
},
{
smooth = 0;
x = 244;
y = 361;
},
{
segmentType = curve;
smooth = 1;
x = 294;
y = 361;
},
{
smooth = 0;
x = 344;
y = 361;
},
{
smooth = 0;
x = 382;
y = 325;
},
{
segmentType = curve;
smooth = 1;
x = 382;
y = 271;
},
{
smooth = 0;
x = 382;
y = 217;
},
{
smooth = 0;
x = 344;
y = 179;
}
);
},
{
points = (
{
segmentType = curve;
smooth = 1;
x = 294;
y = 555;
},
{
smooth = 0;
x = 122;
y = 555;
},
{
smooth = 0;
x = 5;
y = 434;
},
{
segmentType = curve;
smooth = 1;
x = 5;
y = 270;
},
{
smooth = 0;
x = 5;
y = 105;
},
{
smooth = 0;
x = 122;
y = -15;
},
{
segmentType = curve;
smooth = 1;
x = 294;
y = -15;
},
{
smooth = 0;
x = 466;
y = -15;
},
{
smooth = 0;
x = 584;
y = 105;
},
{
segmentType = curve;
smooth = 1;
x = 584;
y = 270;
},
{
smooth = 0;
x = 584;
y = 434;
},
{
smooth = 0;
x = 466;
y = 555;
}
);
}
);
lib = {
};
name = c;
unicodes = (
);
width = 567;
};
};
};
width = 512;
},
{
anchors = (
{
name = bottom;
pos = (277,0);
},
{
name = top;
pos = (277,535);
}
);
associatedMasterId = "344A0678-763D-4FBD-9EF6-1E94428A847E";
layerId = "26B4F1F7-B151-4867-B2C4-24E9C2BE6275";
name = "Oct 27 20, 14:42";
shapes = (
{
closed = 1;
nodes = (
(201,86,o),
(142,149,o),
(142,244,cs),
(142,339,o),
(201,402,o),
(289,402,cs),
(378,402,o),
(437,338,o),
(437,243,cs),
(437,149,o),
(378,86,o),
(289,86,cs)
);
},
{
closed = 1;
nodes = (
(140,498,o),
(40,396,o),
(40,243,cs),
(40,91,o),
(140,-10,o),
(289,-10,cs),
(439,-10,o),
(539,91,o),
(539,243,cs),
(539,396,o),
(439,498,o),
(289,498,cs)
);
}
);
userData = {
com.schriftgestaltung.Glyphs.lastChange = "2017-03-20 16:50:55 +0000";
com.typemytype.robofont.layerData = {
background = {
anchors = (
{
name = bottom;
x = 291;
y = 0;
},
{
name = top;
x = 292;
y = 535;
}
);
components = (
);
contours = (
);
lib = {
};
name = c;
unicodes = (
);
width = 540;
};
};
};
visible = 1;
width = 510;
},
{
anchors = (
{
name = bottom;
pos = (277,0);
},
{
name = top;
pos = (277,535);
}
);
associatedMasterId = "344A0678-763D-4FBD-9EF6-1E94428A847E";
layerId = "12F168F3-DD65-494E-AF3E-7F3C7D772944";
name = "Oct 27 20, 14:42";
shapes = (
{
closed = 1;
nodes = (
(372,-10,o),
(448,30,o),
(490,132,c),
(417,167,l),
(388,107,o),
(350,76,o),
(287,76,cs),
(194,76,o),
(142,144,o),
(142,245,cs),
(142,347,o),
(194,415,o),
(287,412,cs),
(350,410,o),
(388,381,o),
(417,321,c),
(490,356,l),
(448,458,o),
(372,498,o),
(279,498,cs),
(136,498,o),
(40,394,o),
(40,244,cs),
(40,94,o),
(126,-10,o),
(279,-10,cs)
);
}
);
userData = {
com.schriftgestaltung.Glyphs.lastChange = "2017-03-20 16:50:55 +0000";
com.typemytype.robofont.layerData = {
background = {
anchors = (
{
name = bottom;
x = 291;
y = 0;
},
{
name = top;
x = 292;
y = 535;
}
);
components = (
);
contours = (
);
lib = {
};
name = c;
unicodes = (
);
width = 540;
};
};
};
width = 510;
}
);
note = "\012    c\012  ";
unicode = 99;
},
{
glyphname = d;
kernLeft = o;
kernRight = d;
layers = (
{
anchors = (
{
name = bottom;
pos = (285,0);
},
{
name = center;
pos = (440,579);
},
{
name = top;
pos = (456,681);
},
{
name = topright;
pos = (550,681);
}
);
layerId = "344A0678-763D-4FBD-9EF6-1E94428A847E";
shapes = (
{
closed = 1;
nodes = (
(390,-10,o),
(478,92,o),
(478,245,cs),
(478,397,o),
(390,498,o),
(259,498,cs),
(124,498,o),
(34,397,o),
(34,245,cs),
(34,92,o),
(124,-10,o),
(259,-10,cs)
);
},
{
closed = 1;
nodes = (
(191,76,o),
(136,144,o),
(136,245,cs),
(136,345,o),
(191,412,o),
(274,412,cs),
(356,412,o),
(411,345,o),
(411,244,cs),
(411,143,o),
(356,76,o),
(274,76,cs)
);
},
{
closed = 1;
nodes = (
(506,0,l),
(506,681,l),
(406,681,l),
(406,376,l),
(416,376,l),
(416,98,l),
(406,98,l),
(430,0,l)
);
}
);
userData = {
com.typemytype.robofont.guides = (
{
angle = 90;
isGlobal = 0;
magnetic = 5;
x = 482;
y = 579;
}
);
com.typemytype.robofont.layerData = {
mask = {
anchors = (
{
name = caron;
x = 552;
y = 670;
}
);
components = (
);
contours = (
);
lib = {
};
name = d;
unicodes = (
);
width = 607;
};
};
};
width = 570;
},
{
anchors = (
{
name = bottom;
pos = (286,0);
},
{
name = center;
pos = (410,581);
},
{
name = top;
pos = (439,681);
},
{
name = topright;
pos = (554,681);
}
);
layerId = "1CA3C852-39F9-4810-8045-E03244E0B506";
shapes = (
{
closed = 1;
nodes = (
(364,-14,o),
(449,83,o),
(449,245,cs),
(449,421,o),
(368,504,o),
(242,504,cs),
(112,504,o),
(15,394,o),
(15,245,cs),
(15,96,o),
(109,-14,o),
(240,-14,cs)
);
},
{
closed = 1;
nodes = (
(234,163,o),
(199,198,o),
(199,245,cs),
(199,292,o),
(234,328,o),
(277,328,cs),
(321,328,o),
(357,292,o),
(357,245,cs),
(357,198,o),
(321,163,o),
(277,163,cs)
);
},
{
closed = 1;
nodes = (
(529,0,l),
(529,681,l),
(348,681,l),
(348,336,l),
(357,336,l),
(357,145,l),
(348,145,l),
(395,0,l)
);
}
);
userData = {
com.schriftgestaltung.Glyphs.lastChange = "2017-03-20 16:50:55 +0000";
com.typemytype.robofont.guides = (
{
angle = 90;
isGlobal = 0;
magnetic = 5;
x = 468;
y = 694;
}
);
com.typemytype.robofont.layerData = {
background = {
anchors = (
{
name = caron;
x = 543;
y = 670;
}
);
components = (
);
contours = (
{
points = (
{
segmentType = line;
smooth = 0;
x = 417;
y = 0;
},
{
segmentType = line;
smooth = 0;
x = 523;
y = 0;
},
{
segmentType = line;
smooth = 0;
x = 523;
y = 700;
},
{
segmentType = line;
smooth = 0;
x = 393;
y = 700;
},
{
segmentType = line;
smooth = 0;
x = 393;
y = 133;
}
);
},
{
points = (
{
segmentType = curve;
smooth = 1;
x = 260;
y = -13;
},
{
smooth = 0;
x = 390;
y = -13;
},
{
smooth = 0;
x = 474;
y = 117;
},
{
segmentType = curve;
smooth = 1;
x = 474;
y = 250;
},
{
smooth = 0;
x = 474;
y = 392;
},
{
smooth = 0;
x = 390;
y = 513;
},
{
segmentType = curve;
smooth = 1;
x = 260;
y = 513;
},
{
smooth = 0;
x = 124;
y = 513;
},
{
smooth = 0;
x = 25;
y = 402;
},
{
segmentType = curve;
smooth = 1;
x = 25;
y = 250;
},
{
smooth = 0;
x = 25;
y = 97;
},
{
smooth = 0;
x = 124;
y = -13;
}
);
},
{
points = (
{
segmentType = curve;
smooth = 1;
x = 275;
y = 397;
},
{
smooth = 0;
x = 352;
y = 397;
},
{
smooth = 0;
x = 393;
y = 339;
},
{
segmentType = curve;
smooth = 1;
x = 393;
y = 250;
},
{
smooth = 0;
x = 393;
y = 161;
},
{
smooth = 0;
x = 352;
y = 103;
},
{
segmentType = curve;
smooth = 1;
x = 275;
y = 103;
},
{
smooth = 0;
x = 204;
y = 103;
},
{
smooth = 0;
x = 157;
y = 161;
},
{
segmentType = curve;
smooth = 1;
x = 157;
y = 250;
},
{
smooth = 0;
x = 157;
y = 339;
},
{
smooth = 0;
x = 204;
y = 397;
}
);
}
);
lib = {
};
name = d;
unicodes = (
);
width = 663;
};
};
};
width = 572;
}
);
note = "\012    d\012  ";
unicode = 100;
},
{
glyphname = eth;
kernLeft = o;
kernRight = eth;
layers = (
{
guides = (
{
angle = 127.0199;
pos = (415,678);
}
);
layerId = "344A0678-763D-4FBD-9EF6-1E94428A847E";
shapes = (
{
closed = 1;
nodes = (
(420,-10,o),
(514,93,o),
(514,270,cs),
(514,478,o),
(397,640,o),
(171,703,cs),
(146,710,l),
(111,629,l),
(303,584,o),
(403,468,o),
(423,351,c),
(422,351,l),
(397,412,o),
(339,454,o),
(259,454,cs),
(138,454,o),
(43,364,o),
(43,222,cs),
(43,89,o),
(137,-10,o),
(274,-10,cs)
);
},
{
closed = 1;
nodes = (
(202,84,o),
(145,142,o),
(145,222,cs),
(145,302,o),
(202,360,o),
(279,360,cs),
(356,360,o),
(413,302,o),
(413,222,cs),
(413,142,o),
(356,84,o),
(279,84,cs)
);
},
{
closed = 1;
nodes = (
(311,553,l),
(353,593,l),
(432,655,l),
(389,713,l),
(296,640,l),
(265,608,l),
(173,536,l),
(218,479,l)
);
}
);
userData = {
com.typemytype.robofont.guides = (
{
angle = 90;
isGlobal = 0;
magnetic = 5;
x = 263;
y = 621;
}
);
com.typemytype.robofont.mark = (
0.743,
0.775,
0.772,
1
);
};
width = 553;
},
{
guides = (
{
angle = 130.3645;
pos = (434,735);
}
);
layerId = "1CA3C852-39F9-4810-8045-E03244E0B506";
shapes = (
{
closed = 1;
nodes = (
(429,-14,o),
(540,92,o),
(540,301,cs),
(540,429,o),
(464,649,o),
(127,708,cs),
(112,711,l),
(52,583,l),
(307,530,o),
(396,433,o),
(396,272,c),
(439,272,l),
(427,363,o),
(351,424,o),
(241,424,cs),
(122,424,o),
(24,341,o),
(24,206,cs),
(24,75,o),
(123,-14,o),
(268,-14,cs)
);
},
{
closed = 1;
nodes = (
(231,136,o),
(198,163,o),
(198,206,cs),
(198,250,o),
(231,274,o),
(277,274,cs),
(323,274,o),
(357,250,o),
(357,206,cs),
(357,163,o),
(323,136,o),
(277,136,cs)
);
},
{
closed = 1;
nodes = (
(301,518,l),
(359,576,l),
(427,629,l),
(350,720,l),
(266,651,l),
(212,595,l),
(111,512,l),
(183,424,l)
);
}
);
userData = {
com.typemytype.robofont.guides = (
{
angle = 90;
isGlobal = 0;
magnetic = 5;
x = 263;
y = 621;
},
{
angle = 0;
isGlobal = 0;
magnetic = 5;
x = 199;
y = 727;
},
{
angle = 0;
isGlobal = 0;
magnetic = 5;
x = 266;
y = 223;
},
{
angle = 0;
isGlobal = 0;
magnetic = 5;
x = 238;
y = 784;
}
);
com.typemytype.robofont.layerData = {
background = {
anchors = (
);
components = (
{
baseGlyph = d;
transformation = (
1,
0,
0,
1,
-280,
0
);
}
);
contours = (
{
points = (
{
segmentType = curve;
smooth = 1;
x = 416;
y = 225;
},
{
smooth = 0;
x = 416;
y = 152;
},
{
smooth = 0;
x = 366;
y = 107;
},
{
segmentType = curve;
smooth = 1;
x = 301;
y = 107;
},
{
smooth = 0;
x = 236;
y = 107;
},
{
smooth = 0;
x = 187;
y = 152;
},
{
segmentType = curve;
smooth = 1;
x = 187;
y = 225;
},
{
smooth = 0;
x = 187;
y = 287;
},
{
smooth = 0;
x = 236;
y = 340;
},
{
segmentType = curve;
smooth = 1;
x = 301;
y = 340;
},
{
smooth = 0;
x = 366;
y = 340;
},
{
smooth = 0;
x = 416;
y = 287;
}
);
},
{
points = (
{
segmentType = line;
smooth = 0;
x = 467;
y = 255;
},
{
smooth = 0;
x = 467;
y = 390;
},
{
smooth = 0;
x = 385;
y = 458;
},
{
segmentType = curve;
smooth = 1;
x = 278;
y = 458;
},
{
smooth = 0;
x = 167;
y = 458;
},
{
smooth = 0;
x = 55;
y = 352;
},
{
segmentType = curve;
smooth = 1;
x = 55;
y = 225;
},
{
smooth = 0;
x = 55;
y = 88;
},
{
smooth = 0;
x = 158.697;
y = -10;
},
{
segmentType = curve;
smooth = 1;
x = 296;
y = -10;
},
{
smooth = 0;
x = 445;
y = -10;
},
{
smooth = 0;
x = 555;
y = 112;
},
{
segmentType = curve;
smooth = 1;
x = 555;
y = 300;
},
{
smooth = 0;
x = 555;
y = 424;
},
{
smooth = 0;
x = 494;
y = 660;
},
{
segmentType = curve;
smooth = 1;
x = 184;
y = 720;
},
{
segmentType = line;
smooth = 0;
x = 148;
y = 727;
},
{
segmentType = line;
smooth = 0;
x = 108;
y = 625;
},
{
smooth = 0;
x = 342;
y = 579;
},
{
smooth = 0;
x = 437;
y = 487;
},
{
segmentType = curve;
smooth = 0;
x = 437;
y = 321;
}
);
},
{
points = (
{
segmentType = line;
smooth = 0;
x = 408;
y = 727;
},
{
segmentType = line;
smooth = 0;
x = 178;
y = 548;
},
{
segmentType = line;
smooth = 0;
x = 235;
y = 481;
},
{
segmentType = line;
smooth = 0;
x = 463;
y = 658;
}
);
}
);
lib = {
};
name = eth;
unicodes = (
);
width = 634;
};
mask = {
anchors = (
);
components = (
{
baseGlyph = d;
transformation = (
1,
0,
0,
1,
-279,
0
);
}
);
contours = (
);
lib = {
};
name = eth;
unicodes = (
);
width = 634;
};
};
com.typemytype.robofont.mark = (
0.743,
0.775,
0.772,
1
);
};
width = 568;
},
{
associatedMasterId = "1CA3C852-39F9-4810-8045-E03244E0B506";
layerId = "9B189D5C-D741-4892-9E4A-75CC2550CD72";
name = "Nov 2 20, 14:08";
shapes = (
{
closed = 1;
nodes = (
(397,183,o),
(360,154,o),
(309,154,cs),
(258,154,o),
(222,183,o),
(222,231,cs),
(222,279,o),
(258,306,o),
(309,306,cs),
(360,306,o),
(397,279,o),
(397,231,cs)
);
},
{
closed = 1;
nodes = (
(488,340,o),
(411,466,o),
(279,466,cs),
(148,466,o),
(30,377,o),
(30,230,cs),
(30,94,o),
(143,-15,o),
(309,-15,cs),
(481,-15,o),
(599,101,o),
(599,331,cs),
(599,473,o),
(515,716,o),
(144,780,cs),
(127,783,l),
(61,642,l),
(342,584,o),
(440,477,o),
(440,300,c),
(488,248,l)
);
},
{
closed = 1;
nodes = (
(126,564,l),
(205,467,l),
(480,685,l),
(395,785,l)
);
}
);
userData = {
com.typemytype.robofont.guides = (
{
angle = 90;
isGlobal = 0;
magnetic = 5;
x = 263;
y = 621;
},
{
angle = 0;
isGlobal = 0;
magnetic = 5;
x = 199;
y = 727;
},
{
angle = 0;
isGlobal = 0;
magnetic = 5;
x = 266;
y = 223;
},
{
angle = 0;
isGlobal = 0;
magnetic = 5;
x = 238;
y = 784;
}
);
com.typemytype.robofont.layerData = {
background = {
anchors = (
);
components = (
{
baseGlyph = d;
transformation = (
1,
0,
0,
1,
-280,
0
);
}
);
contours = (
{
points = (
{
segmentType = curve;
smooth = 1;
x = 416;
y = 225;
},
{
smooth = 0;
x = 416;
y = 152;
},
{
smooth = 0;
x = 366;
y = 107;
},
{
segmentType = curve;
smooth = 1;
x = 301;
y = 107;
},
{
smooth = 0;
x = 236;
y = 107;
},
{
smooth = 0;
x = 187;
y = 152;
},
{
segmentType = curve;
smooth = 1;
x = 187;
y = 225;
},
{
smooth = 0;
x = 187;
y = 287;
},
{
smooth = 0;
x = 236;
y = 340;
},
{
segmentType = curve;
smooth = 1;
x = 301;
y = 340;
},
{
smooth = 0;
x = 366;
y = 340;
},
{
smooth = 0;
x = 416;
y = 287;
}
);
},
{
points = (
{
segmentType = line;
smooth = 0;
x = 467;
y = 255;
},
{
smooth = 0;
x = 467;
y = 390;
},
{
smooth = 0;
x = 385;
y = 458;
},
{
segmentType = curve;
smooth = 1;
x = 278;
y = 458;
},
{
smooth = 0;
x = 167;
y = 458;
},
{
smooth = 0;
x = 55;
y = 352;
},
{
segmentType = curve;
smooth = 1;
x = 55;
y = 225;
},
{
smooth = 0;
x = 55;
y = 88;
},
{
smooth = 0;
x = 158.697;
y = -10;
},
{
segmentType = curve;
smooth = 1;
x = 296;
y = -10;
},
{
smooth = 0;
x = 445;
y = -10;
},
{
smooth = 0;
x = 555;
y = 112;
},
{
segmentType = curve;
smooth = 1;
x = 555;
y = 300;
},
{
smooth = 0;
x = 555;
y = 424;
},
{
smooth = 0;
x = 494;
y = 660;
},
{
segmentType = curve;
smooth = 1;
x = 184;
y = 720;
},
{
segmentType = line;
smooth = 0;
x = 148;
y = 727;
},
{
segmentType = line;
smooth = 0;
x = 108;
y = 625;
},
{
smooth = 0;
x = 342;
y = 579;
},
{
smooth = 0;
x = 437;
y = 487;
},
{
segmentType = curve;
smooth = 0;
x = 437;
y = 321;
}
);
},
{
points = (
{
segmentType = line;
smooth = 0;
x = 408;
y = 727;
},
{
segmentType = line;
smooth = 0;
x = 178;
y = 548;
},
{
segmentType = line;
smooth = 0;
x = 235;
y = 481;
},
{
segmentType = line;
smooth = 0;
x = 463;
y = 658;
}
);
}
);
lib = {
};
name = eth;
unicodes = (
);
width = 634;
};
mask = {
anchors = (
);
components = (
{
baseGlyph = d;
transformation = (
1,
0,
0,
1,
-279,
0
);
}
);
contours = (
);
lib = {
};
name = eth;
unicodes = (
);
width = 634;
};
};
com.typemytype.robofont.mark = (
0.743,
0.775,
0.772,
1
);
};
width = 634;
},
{
associatedMasterId = "344A0678-763D-4FBD-9EF6-1E94428A847E";
layerId = "FD319E9F-FA4D-417E-A5EE-F6E74CBCA347";
name = "Nov 2 20, 14:21";
shapes = (
{
closed = 1;
nodes = (
(424,-10,o),
(527,108,o),
(527,290,cs),
(527,428,o),
(473,622,o),
(183,703,cs),
(158,710,l),
(123,629,l),
(315,584,o),
(435,498,o),
(435,331,c),
(457,259,l),
(457,388,o),
(365,454,o),
(265,454,cs),
(158,454,o),
(55,354,o),
(55,221,cs),
(55,89,o),
(154,-10,o),
(286,-10,cs)
);
},
{
closed = 1;
nodes = (
(214,83,o),
(157,141,o),
(157,221,cs),
(157,301,o),
(214,359,o),
(291,359,cs),
(368,359,o),
(425,301,o),
(425,221,c),
(425,141,o),
(368,83,o),
(291,83,cs)
);
},
{
closed = 1;
nodes = (
(450,647,l),
(404,708,l),
(185,536,l),
(233,476,l)
);
}
);
userData = {
com.typemytype.robofont.guides = (
{
angle = 90;
isGlobal = 0;
magnetic = 5;
x = 263;
y = 621;
}
);
com.typemytype.robofont.mark = (
0.743,
0.775,
0.772,
1
);
};
width = 567;
}
);
note = "\012    eth\012  ";
unicode = 240;
},
{
glyphname = dcroat;
kernLeft = o;
kernRight = dcroat;
layers = (
{
anchors = (
{
name = bottom;
pos = (285,0);
},
{
name = center;
pos = (440,579);
},
{
name = top;
pos = (456,681);
},
{
name = topright;
pos = (550,681);
}
);
background = {
shapes = (
{
ref = d;
},
{
pos = (170,0);
ref = strokeshortcomb;
}
);
};
layerId = "344A0678-763D-4FBD-9EF6-1E94428A847E";
shapes = (
{
closed = 1;
nodes = (
(323,-10,o),
(378,15,o),
(416,58,c),
(430,0,l),
(506,0,l),
(506,540,l),
(586,540,l),
(586,618,l),
(506,618,l),
(506,681,l),
(406,681,l),
(406,618,l),
(294,618,l),
(294,540,l),
(406,540,l),
(406,441,l),
(369,477,o),
(318,498,o),
(259,498,cs),
(124,498,o),
(34,397,o),
(34,245,cs),
(34,92,o),
(124,-10,o),
(259,-10,cs)
);
},
{
closed = 1;
nodes = (
(136,345,o),
(191,412,o),
(274,412,cs),
(356,412,o),
(411,345,o),
(411,244,cs),
(411,143,o),
(356,76,o),
(274,76,cs),
(191,76,o),
(136,144,o),
(136,245,cs)
);
}
);
width = 570;
},
{
anchors = (
{
name = bottom;
pos = (286,0);
},
{
name = center;
pos = (410,581);
},
{
name = top;
pos = (439,681);
},
{
name = topright;
pos = (554,681);
}
);
background = {
shapes = (
{
ref = d;
},
{
pos = (122,0);
ref = strokeshortcomb;
}
);
};
layerId = "1CA3C852-39F9-4810-8045-E03244E0B506";
shapes = (
{
closed = 1;
nodes = (
(297,-14,o),
(345,6,o),
(381,43,c),
(395,0,l),
(529,0,l),
(529,533,l),
(580,533,l),
(580,629,l),
(529,629,l),
(529,681,l),
(348,681,l),
(348,629,l),
(240,629,l),
(240,533,l),
(348,533,l),
(348,478,l),
(318,495,o),
(282,504,o),
(242,504,cs),
(112,504,o),
(15,394,o),
(15,245,cs),
(15,96,o),
(109,-14,o),
(240,-14,cs)
);
},
{
closed = 1;
nodes = (
(199,292,o),
(234,328,o),
(277,328,cs),
(321,328,o),
(357,292,o),
(357,245,cs),
(357,198,o),
(321,163,o),
(277,163,cs),
(234,163,o),
(199,198,o),
(199,245,cs)
);
}
);
width = 572;
}
);
unicode = 273;
},
{
glyphname = e;
kernLeft = o;
kernRight = e;
layers = (
{
anchors = (
{
name = bottom;
pos = (280,0);
},
{
name = ogonek;
pos = (349,0);
},
{
name = top;
pos = (274,488);
}
);
layerId = "344A0678-763D-4FBD-9EF6-1E94428A847E";
shapes = (
{
closed = 1;
nodes = (
(381,-10,o),
(450,32,o),
(495,116,c),
(420,163,l),
(388,113,o),
(352,76,o),
(273,76,cs),
(188,76,o),
(137,133,o),
(137,222,cs),
(137,274,ls),
(137,359,o),
(190,417,o),
(273,417,cs),
(366,417,o),
(411,344,o),
(411,243,c),
(439,301,l),
(129,301,l),
(129,215,l),
(511,215,l),
(512,223,o),
(513,233,o),
(513,243,cs),
(513,396,o),
(417,498,o),
(273,498,cs),
(130,498,o),
(34,396,o),
(34,243,cs),
(34,91,o),
(130,-10,o),
(273,-10,cs)
);
}
);
userData = {
com.typemytype.robofont.guides = (
{
angle = 90;
isGlobal = 0;
magnetic = 5;
x = 281;
y = 460;
},
{
angle = 90;
isGlobal = 0;
magnetic = 5;
x = 277;
y = 488;
},
{
angle = 90;
isGlobal = 0;
magnetic = 5;
x = 524;
y = 238;
}
);
com.typemytype.robofont.layerData = {
background = {
anchors = (
{
name = top;
x = 288;
y = 550;
}
);
components = (
);
contours = (
);
lib = {
};
name = e;
unicodes = (
);
width = 569;
};
};
};
width = 543;
},
{
anchors = (
{
name = bottom;
pos = (264,0);
},
{
name = ogonek;
pos = (350,0);
},
{
name = top;
pos = (264,490);
}
);
layerId = "1CA3C852-39F9-4810-8045-E03244E0B506";
shapes = (
{
closed = 1;
nodes = (
(370,-9,o),
(457,40,o),
(497,115,c),
(380,176,l),
(359,147,o),
(329,125,o),
(279,125,cs),
(212,125,o),
(172,157,o),
(172,219,cs),
(172,275,ls),
(172,331,o),
(208,366,o),
(266,366,cs),
(328,366,o),
(358,331,o),
(358,279,c),
(367,309,l),
(143,309,l),
(143,192,l),
(509,192,l),
(511,203,o),
(513,224,o),
(513,248,cs),
(513,385,o),
(419,504,o),
(264,504,cs),
(114,504,o),
(15,394,o),
(15,245,cs),
(15,89,o),
(114,-9,o),
(264,-9,cs)
);
}
);
userData = {
com.schriftgestaltung.Glyphs.lastChange = "2017-03-20 16:50:55 +0000";
com.typemytype.robofont.guides = (
{
angle = 90;
isGlobal = 0;
magnetic = 5;
x = 279;
y = 539;
},
{
angle = 90;
isGlobal = 0;
magnetic = 5;
x = 277;
y = 488;
},
{
angle = 90;
isGlobal = 0;
magnetic = 5;
x = 298;
y = 412;
}
);
com.typemytype.robofont.layerData = {
background = {
anchors = (
);
components = (
);
contours = (
{
points = (
{
segmentType = curve;
smooth = 1;
x = 289;
y = -15;
},
{
smooth = 0;
x = 405;
y = -15;
},
{
smooth = 0;
x = 501;
y = 41;
},
{
segmentType = curve;
smooth = 0;
x = 545;
y = 127;
},
{
segmentType = line;
smooth = 0;
x = 416;
y = 194;
},
{
smooth = 0;
x = 393;
y = 162;
},
{
smooth = 0;
x = 360;
y = 138;
},
{
segmentType = curve;
smooth = 0;
x = 305;
y = 138;
},
{
smooth = 0;
x = 231;
y = 138;
},
{
smooth = 0;
x = 188;
y = 173;
},
{
segmentType = curve;
smooth = 0;
x = 188;
y = 241;
},
{
segmentType = line;
smooth = 1;
x = 187;
y = 303;
},
{
smooth = 0;
x = 186;
y = 369;
},
{
smooth = 0;
x = 237;
y = 403;
},
{
segmentType = curve;
smooth = 1;
x = 291;
y = 403;
},
{
smooth = 0;
x = 349;
y = 403;
},
{
smooth = 0;
x = 392;
y = 370;
},
{
segmentType = curve;
smooth = 0;
x = 392;
y = 307;
},
{
segmentType = line;
smooth = 0;
x = 402;
y = 340;
},
{
segmentType = line;
smooth = 0;
x = 156;
y = 340;
},
{
segmentType = line;
smooth = 0;
x = 156;
y = 202;
},
{
segmentType = line;
smooth = 0;
x = 559;
y = 202;
},
{
smooth = 0;
x = 561;
y = 216;
},
{
smooth = 0;
x = 563;
y = 243;
},
{
segmentType = curve;
smooth = 1;
x = 563;
y = 273;
},
{
smooth = 0;
x = 563;
y = 424;
},
{
smooth = 0;
x = 459;
y = 555;
},
{
segmentType = curve;
smooth = 1;
x = 289;
y = 555;
},
{
smooth = 0;
x = 123;
y = 555;
},
{
smooth = 0;
x = 15;
y = 434;
},
{
segmentType = curve;
smooth = 1;
x = 15;
y = 270;
},
{
smooth = 0;
x = 15;
y = 95;
},
{
smooth = 0;
x = 123;
y = -15;
}
);
}
);
lib = {
};
name = e;
unicodes = (
);
width = 578;
};
};
};
width = 528;
},
{
anchors = (
{
name = bottom;
pos = (291,0);
},
{
name = ogonek;
pos = (385,0);
},
{
name = top;
pos = (291,540);
}
);
associatedMasterId = "1CA3C852-39F9-4810-8045-E03244E0B506";
layerId = "D533AA59-94C9-4F0C-82AA-A4F545BDACDE";
name = "Ultra [0,7";
shapes = (
{
closed = 1;
nodes = (
(407,-10,o),
(503,44,o),
(547,127,c),
(418,194,l),
(395,162,o),
(362,138,o),
(307,138,cs),
(233,138,o),
(189,173,o),
(189,241,cs),
(189,293,ls),
(189,354,o),
(237,403,o),
(313,403,cs),
(361,403,o),
(384,386,o),
(384,363,cs),
(384,343,o),
(364,327,o),
(283,327,cs),
(237,327,o),
(198,332,o),
(158,341,c),
(148,223,l),
(192,213,o),
(232,209,o),
(288,209,cs),
(477,209,o),
(554,273,o),
(554,379,cs),
(554,479,o),
(469,555,o),
(323,555,cs),
(130,555,o),
(17,430,o),
(17,260,cs),
(17,94,o),
(125,-10,o),
(291,-10,cs)
);
}
);
userData = {
com.schriftgestaltung.Glyphs.lastChange = "2017-03-20 16:50:55 +0000";
com.typemytype.robofont.guides = (
{
angle = 90;
isGlobal = 0;
magnetic = 5;
x = 279;
y = 539;
},
{
angle = 90;
isGlobal = 0;
magnetic = 5;
x = 277;
y = 488;
},
{
angle = 90;
isGlobal = 0;
magnetic = 5;
x = 298;
y = 412;
}
);
com.typemytype.robofont.layerData = {
background = {
anchors = (
);
components = (
);
contours = (
{
points = (
{
segmentType = curve;
smooth = 1;
x = 289;
y = -15;
},
{
smooth = 0;
x = 405;
y = -15;
},
{
smooth = 0;
x = 501;
y = 41;
},
{
segmentType = curve;
smooth = 0;
x = 545;
y = 127;
},
{
segmentType = line;
smooth = 0;
x = 416;
y = 194;
},
{
smooth = 0;
x = 393;
y = 162;
},
{
smooth = 0;
x = 360;
y = 138;
},
{
segmentType = curve;
smooth = 0;
x = 305;
y = 138;
},
{
smooth = 0;
x = 231;
y = 138;
},
{
smooth = 0;
x = 188;
y = 173;
},
{
segmentType = curve;
smooth = 0;
x = 188;
y = 241;
},
{
segmentType = line;
smooth = 1;
x = 187;
y = 303;
},
{
smooth = 0;
x = 186;
y = 369;
},
{
smooth = 0;
x = 237;
y = 403;
},
{
segmentType = curve;
smooth = 1;
x = 291;
y = 403;
},
{
smooth = 0;
x = 349;
y = 403;
},
{
smooth = 0;
x = 392;
y = 370;
},
{
segmentType = curve;
smooth = 0;
x = 392;
y = 307;
},
{
segmentType = line;
smooth = 0;
x = 402;
y = 340;
},
{
segmentType = line;
smooth = 0;
x = 156;
y = 340;
},
{
segmentType = line;
smooth = 0;
x = 156;
y = 202;
},
{
segmentType = line;
smooth = 0;
x = 559;
y = 202;
},
{
smooth = 0;
x = 561;
y = 216;
},
{
smooth = 0;
x = 563;
y = 243;
},
{
segmentType = curve;
smooth = 1;
x = 563;
y = 273;
},
{
smooth = 0;
x = 563;
y = 424;
},
{
smooth = 0;
x = 459;
y = 555;
},
{
segmentType = curve;
smooth = 1;
x = 289;
y = 555;
},
{
smooth = 0;
x = 123;
y = 555;
},
{
smooth = 0;
x = 15;
y = 434;
},
{
segmentType = curve;
smooth = 1;
x = 15;
y = 270;
},
{
smooth = 0;
x = 15;
y = 95;
},
{
smooth = 0;
x = 123;
y = -15;
}
);
}
);
lib = {
};
name = e;
unicodes = (
);
width = 578;
};
};
};
width = 582;
},
{
anchors = (
{
name = bottom;
pos = (280,0);
},
{
name = ogonek;
pos = (349,0);
},
{
name = top;
pos = (274,488);
}
);
associatedMasterId = "344A0678-763D-4FBD-9EF6-1E94428A847E";
layerId = "4963F754-4D92-4ABE-AC7E-5BBFE332493D";
name = "Regular [0,7";
shapes = (
{
closed = 1;
nodes = (
(381,-10,o),
(450,32,o),
(495,116,c),
(420,163,l),
(388,113,o),
(352,76,o),
(278,76,cs),
(188,76,o),
(137,133,o),
(137,222,cs),
(137,264,ls),
(137,349,o),
(190,417,o),
(283,417,cs),
(346,417,o),
(381,388,o),
(381,350,cs),
(381,318,o),
(356,282,o),
(244,282,cs),
(205,282,o),
(168,285,o),
(129,291,c),
(121,211,l),
(163,204,o),
(212,201,o),
(254,201,cs),
(404,201,o),
(483,257,o),
(483,350,cs),
(483,438,o),
(417,498,o),
(293,498,cs),
(130,498,o),
(34,392,o),
(34,233,cs),
(34,87,o),
(120,-10,o),
(278,-10,cs)
);
}
);
userData = {
com.schriftgestaltung.Glyphs.lastChange = "2017-03-20 16:50:55 +0000";
com.typemytype.robofont.guides = (
{
angle = 90;
isGlobal = 0;
magnetic = 5;
x = 281;
y = 460;
},
{
angle = 90;
isGlobal = 0;
magnetic = 5;
x = 277;
y = 488;
},
{
angle = 90;
isGlobal = 0;
magnetic = 5;
x = 524;
y = 238;
}
);
com.typemytype.robofont.layerData = {
background = {
anchors = (
{
name = top;
x = 288;
y = 550;
}
);
components = (
);
contours = (
);
lib = {
};
name = e;
unicodes = (
);
width = 569;
};
};
};
width = 513;
}
);
note = "\012    e\012  ";
unicode = 101;
},
{
glyphname = eogonek;
kernLeft = o;
kernRight = e;
layers = (
{
anchors = (
{
name = top;
pos = (274,488);
}
);
background = {
shapes = (
{
ref = e;
},
{
pos = (23,0);
ref = ogonekcomb;
}
);
};
layerId = "344A0678-763D-4FBD-9EF6-1E94428A847E";
shapes = (
{
closed = 1;
nodes = (
(220,-44,o),
(193,-93,o),
(193,-137,cs),
(193,-202,o),
(237,-227,o),
(294,-227,cs),
(321,-227,o),
(345,-220,o),
(357,-213,c),
(348,-150,l),
(339,-154,o),
(321,-159,o),
(308,-159,cs),
(280,-159,o),
(264,-147,o),
(264,-118,cs),
(264,-79,o),
(295,-35,o),
(345,-3,c),
(413,13,o),
(461,52,o),
(495,116,c),
(420,163,l),
(388,113,o),
(352,76,o),
(273,76,cs),
(190,76,o),
(140,130,o),
(137,215,c),
(511,215,l),
(512,223,o),
(513,233,o),
(513,243,cs),
(513,396,o),
(417,498,o),
(273,498,cs),
(130,498,o),
(34,396,o),
(34,243,cs),
(34,95,o),
(124,-4,o),
(260,-10,c)
);
},
{
closed = 1;
nodes = (
(149,371,o),
(199,417,o),
(273,417,cs),
(347,417,o),
(391,371,o),
(405,301,c),
(139,301,l)
);
}
);
userData = {
com.typemytype.robofont.mark = (
1,
0.435,
0.812,
1
);
};
width = 543;
},
{
anchors = (
{
name = top;
pos = (264,490);
}
);
background = {
shapes = (
{
ref = e;
},
{
pos = (-12,0);
ref = ogonekcomb;
}
);
};
layerId = "1CA3C852-39F9-4810-8045-E03244E0B506";
shapes = (
{
closed = 1;
nodes = (
(185,-30,o),
(160,-66,o),
(160,-117,cs),
(160,-185,o),
(201,-224,o),
(286,-224,cs),
(320,-224,o),
(349,-217,o),
(368,-208,c),
(351,-108,l),
(345,-112,o),
(335,-114,o),
(327,-114,cs),
(305,-114,o),
(295,-104,o),
(295,-84,cs),
(295,-55,o),
(320,-16,o),
(356,4,c),
(419,24,o),
(469,63,o),
(497,115,c),
(380,176,l),
(359,147,o),
(329,125,o),
(279,125,cs),
(223,125,o),
(185,148,o),
(175,192,c),
(509,192,l),
(511,203,o),
(513,224,o),
(513,248,cs),
(513,385,o),
(419,504,o),
(264,504,cs),
(114,504,o),
(15,394,o),
(15,245,cs),
(15,108,o),
(92,15,o),
(213,-5,c)
);
},
{
closed = 1;
nodes = (
(189,345,o),
(221,366,o),
(266,366,cs),
(315,366,o),
(344,344,o),
(354,309,c),
(177,309,l)
);
}
);
userData = {
com.typemytype.robofont.mark = (
1,
0.435,
0.812,
0.45
);
};
width = 528;
}
);
unicode = 281;
},
{
glyphname = f;
kernLeft = ft;
kernRight = f;
layers = (
{
anchors = (
{
name = bottom;
pos = (151,0);
},
{
name = top;
pos = (184,681);
}
);
layerId = "344A0678-763D-4FBD-9EF6-1E94428A847E";
shapes = (
{
closed = 1;
nodes = (
(201,0,l),
(201,528,ls),
(201,575,o),
(230,592,o),
(259,592,cs),
(278,592,o),
(290,590,o),
(305,587,c),
(305,680,l),
(287,685,o),
(266,690,o),
(240,690,cs),
(154,690,o),
(101,642,o),
(101,536,cs),
(101,0,l)
);
},
{
closed = 1;
nodes = (
(295,488,l),
(26,488,l),
(26,396,l),
(295,396,l)
);
}
);
width = 314;
},
{
anchors = (
{
name = bottom;
pos = (166,0);
},
{
name = top;
pos = (204,681);
}
);
layerId = "1CA3C852-39F9-4810-8045-E03244E0B506";
shapes = (
{
closed = 1;
nodes = (
(257,0,l),
(257,476,ls),
(257,514,o),
(268,534,o),
(305,534,cs),
(326,534,o),
(340,530,o),
(349,527,c),
(349,690,l),
(334,693,o),
(302,699,o),
(261,699,cs),
(149,699,o),
(75,622,o),
(75,509,cs),
(75,0,l)
);
},
{
closed = 1;
nodes = (
(338,463,l),
(15,463,l),
(15,297,l),
(338,297,l)
);
}
);
userData = {
com.schriftgestaltung.Glyphs.lastChange = "2017-03-20 17:33:51 +0000";
com.typemytype.robofont.layerData = {
background = {
anchors = (
);
components = (
);
contours = (
{
points = (
{
segmentType = curve;
smooth = 0;
x = 400;
y = 593;
},
{
segmentType = line;
smooth = 0;
x = 400;
y = 780;
},
{
smooth = 0;
x = 369;
y = 790;
},
{
smooth = 0;
x = 337;
y = 795;
},
{
segmentType = curve;
smooth = 1;
x = 297;
y = 795;
},
{
smooth = 0;
x = 158;
y = 795;
},
{
smooth = 0;
x = 76;
y = 737;
},
{
segmentType = curve;
smooth = 1;
x = 76;
y = 591;
},
{
segmentType = line;
smooth = 0;
x = 76;
y = 253;
},
{
segmentType = line;
smooth = 0;
x = 73;
y = 246;
},
{
segmentType = line;
smooth = 0;
x = 115;
y = 111;
},
{
segmentType = line;
smooth = 0;
x = 276;
y = 111;
},
{
segmentType = line;
smooth = 1;
x = 276;
y = 527;
},
{
smooth = 0;
x = 276;
y = 584;
},
{
smooth = 0;
x = 302;
y = 603;
},
{
segmentType = curve;
smooth = 1;
x = 345;
y = 603;
},
{
smooth = 0;
x = 366;
y = 603;
},
{
smooth = 0;
x = 387;
y = 598;
}
);
},
{
points = (
{
segmentType = line;
smooth = 0;
x = 400;
y = 430;
},
{
segmentType = line;
smooth = 0;
x = -9;
y = 430;
},
{
segmentType = line;
smooth = 0;
x = -9;
y = 246;
},
{
segmentType = line;
smooth = 0;
x = 400;
y = 246;
}
);
}
);
lib = {
};
name = f;
unicodes = (
);
width = 397;
};
};
};
width = 357;
}
);
note = "\012    f\012  ";
unicode = 102;
},
{
glyphname = g;
kernLeft = o;
kernRight = u;
layers = (
{
anchors = (
{
name = bottom;
pos = (288,-190);
},
{
name = top;
pos = (283,488);
}
);
layerId = "344A0678-763D-4FBD-9EF6-1E94428A847E";
shapes = (
{
closed = 1;
nodes = (
(412,-198,o),
(511,-112,o),
(511,61,cs),
(511,488,l),
(435,488,l),
(411,390,l),
(421,390,l),
(421,149,l),
(411,149,l),
(411,45,ls),
(411,-60,o),
(360,-110,o),
(279,-110,cs),
(219,-110,o),
(183,-82,o),
(149,-24,c),
(70,-67,l),
(77,-80,ls),
(124,-167,o),
(194,-198,o),
(279,-198,cs)
);
},
{
closed = 1;
nodes = (
(396,30,o),
(483,123,o),
(483,263,cs),
(483,404,o),
(396,498,o),
(267,498,cs),
(130,498,o),
(39,404,o),
(39,263,cs),
(39,123,o),
(130,30,o),
(267,30,cs)
);
},
{
closed = 1;
nodes = (
(196,116,o),
(141,175,o),
(141,263,cs),
(141,352,o),
(196,412,o),
(279,412,cs),
(361,412,o),
(416,353,o),
(416,264,cs),
(416,175,o),
(361,116,o),
(279,116,cs)
);
}
);
userData = {
com.typemytype.robofont.guides = (
{
angle = 90;
isGlobal = 0;
magnetic = 5;
x = 32;
y = 219;
},
{
angle = 90;
isGlobal = 0;
magnetic = 5;
x = 54;
y = 202;
},
{
angle = 90;
isGlobal = 0;
magnetic = 5;
x = 301;
y = -52;
}
);
};
width = 575;
},
{
anchors = (
{
name = bottom;
pos = (287,-182);
},
{
name = top;
pos = (279,490);
}
);
layerId = "1CA3C852-39F9-4810-8045-E03244E0B506";
shapes = (
{
closed = 1;
nodes = (
(440,-202,o),
(531,-98,o),
(531,77,cs),
(531,490,l),
(397,490,l),
(350,347,l),
(359,347,l),
(359,187,l),
(350,187,l),
(350,34,ls),
(350,-25,o),
(314,-56,o),
(267,-56,cs),
(219,-56,o),
(194,-40,o),
(162,7,c),
(36,-54,l),
(45,-74,ls),
(89,-170,o),
(188,-202,o),
(264,-202,cs)
);
},
{
closed = 1;
nodes = (
(357,23,o),
(432,109,o),
(432,263,cs),
(432,406,o),
(352,504,o),
(236,504,cs),
(108,504,o),
(15,401,o),
(15,263,cs),
(15,124,o),
(111,23,o),
(239,23,cs)
);
},
{
closed = 1;
nodes = (
(234,183,o),
(199,219,o),
(199,263,cs),
(199,309,o),
(234,345,o),
(279,345,cs),
(323,345,o),
(359,309,o),
(359,263,cs),
(359,219,o),
(323,183,o),
(279,183,cs)
);
}
);
userData = {
com.schriftgestaltung.Glyphs.lastChange = "2017-03-22 20:07:24 +0000";
com.typemytype.robofont.guides = (
{
angle = 90;
isGlobal = 0;
magnetic = 5;
x = 265;
y = -26;
}
);
};
width = 574;
}
);
note = "\012    q\012  ";
unicode = 103;
},
{
glyphname = h;
kernLeft = h;
kernRight = n;
layers = (
{
anchors = (
{
name = bottom;
pos = (278,0);
},
{
name = center;
pos = (130,579);
},
{
name = top;
pos = (114,681);
}
);
layerId = "344A0678-763D-4FBD-9EF6-1E94428A847E";
shapes = (
{
closed = 1;
nodes = (
(164,0,l),
(164,681,l),
(64,681,l),
(64,0,l)
);
},
{
closed = 1;
nodes = (
(491,0,l),
(491,291,ls),
(491,395,o),
(481,498,o),
(343,498,cs),
(265,498,o),
(192,462,o),
(136,399,c),
(148,303,l),
(175,356,o),
(247,400,o),
(312,400,cs),
(355,400,o),
(391,381,o),
(391,312,cs),
(391,0,l)
);
}
);
userData = {
com.typemytype.robofont.guides = (
{
angle = 90;
isGlobal = 0;
magnetic = 5;
x = 125;
y = 663;
}
);
};
width = 551;
},
{
anchors = (
{
name = bottom;
pos = (282,0);
},
{
name = center;
pos = (163,581);
},
{
name = top;
pos = (133,681);
}
);
layerId = "1CA3C852-39F9-4810-8045-E03244E0B506";
shapes = (
{
closed = 1;
nodes = (
(224,0,l),
(224,681,l),
(43,681,l),
(43,0,l)
);
},
{
closed = 1;
nodes = (
(521,0,l),
(521,304,ls),
(521,408,o),
(489,504,o),
(360,504,cs),
(270,504,o),
(191,447,o),
(143,394,c),
(209,285,l),
(246,313,o),
(277,327,o),
(303,327,cs),
(330,327,o),
(340,318,o),
(340,273,cs),
(340,0,l)
);
}
);
userData = {
com.schriftgestaltung.Glyphs.lastChange = "2017-03-20 17:39:39 +0000";
com.typemytype.robofont.guides = (
{
angle = 90;
isGlobal = 0;
magnetic = 5;
x = 135;
y = 668;
}
);
com.typemytype.robofont.layerData = {
background = {
anchors = (
{
name = top;
x = 145;
y = 750;
}
);
components = (
);
contours = (
{
points = (
{
segmentType = line;
smooth = 0;
x = 174;
y = 301;
},
{
smooth = 0;
x = 199;
y = 354;
},
{
smooth = 0;
x = 267;
y = 398;
},
{
segmentType = curve;
smooth = 1;
x = 328;
y = 398;
},
{
smooth = 0;
x = 377;
y = 398;
},
{
smooth = 0;
x = 397;
y = 379;
},
{
segmentType = curve;
smooth = 1;
x = 397;
y = 310;
},
{
segmentType = line;
smooth = 0;
x = 397;
y = 0;
},
{
segmentType = line;
smooth = 0;
x = 527;
y = 0;
},
{
segmentType = line;
smooth = 1;
x = 527;
y = 306;
},
{
smooth = 0;
x = 527;
y = 410;
},
{
smooth = 0;
x = 506;
y = 513;
},
{
segmentType = curve;
smooth = 1;
x = 359;
y = 513;
},
{
smooth = 0;
x = 285;
y = 513;
},
{
smooth = 0;
x = 205;
y = 477;
},
{
segmentType = curve;
smooth = 0;
x = 161;
y = 414;
}
);
},
{
points = (
{
segmentType = line;
smooth = 0;
x = 80;
y = 750;
},
{
segmentType = line;
smooth = 0;
x = 80;
y = 0;
},
{
segmentType = line;
smooth = 0;
x = 210;
y = 0;
},
{
segmentType = line;
smooth = 0;
x = 210;
y = 750;
}
);
}
);
lib = {
};
name = h;
unicodes = (
);
width = 597;
};
};
};
width = 556;
}
);
note = "\012    h\012  ";
unicode = 104;
},
{
glyphname = hbar;
kernLeft = hbar;
kernRight = n;
layers = (
{
anchors = (
{
name = bottom;
pos = (278,0);
},
{
name = top;
pos = (114,681);
}
);
background = {
shapes = (
{
ref = h;
},
{
pos = (-140,0);
ref = strokeshortcomb;
}
);
};
layerId = "344A0678-763D-4FBD-9EF6-1E94428A847E";
shapes = (
{
closed = 1;
nodes = (
(164,0,l),
(164,327,l),
(198,369,o),
(257,400,o),
(312,400,cs),
(355,400,o),
(391,381,o),
(391,312,cs),
(391,0,l),
(491,0,l),
(491,291,ls),
(491,395,o),
(481,498,o),
(343,498,cs),
(277,498,o),
(215,473,o),
(164,427,c),
(164,540,l),
(276,540,l),
(276,618,l),
(164,618,l),
(164,681,l),
(64,681,l),
(64,618,l),
(-16,618,l),
(-16,540,l),
(64,540,l),
(64,0,l)
);
}
);
width = 551;
},
{
anchors = (
{
name = bottom;
pos = (282,0);
},
{
name = top;
pos = (133,681);
}
);
background = {
shapes = (
{
ref = h;
},
{
pos = (-125,0);
ref = strokeshortcomb;
}
);
};
layerId = "1CA3C852-39F9-4810-8045-E03244E0B506";
shapes = (
{
closed = 1;
nodes = (
(224,0,l),
(224,296,l),
(254,317,o),
(281,327,o),
(303,327,cs),
(330,327,o),
(340,318,o),
(340,273,cs),
(340,0,l),
(521,0,l),
(521,304,ls),
(521,408,o),
(489,504,o),
(360,504,cs),
(310,504,o),
(264,487,o),
(224,462,c),
(224,533,l),
(333,533,l),
(333,629,l),
(224,629,l),
(224,681,l),
(43,681,l),
(43,629,l),
(-7,629,l),
(-7,533,l),
(43,533,l),
(43,0,l)
);
}
);
width = 556;
}
);
unicode = 295;
},
{
glyphname = idotless;
kernLeft = i;
kernRight = i;
layers = (
{
anchors = (
{
name = bottom;
pos = (117,0);
},
{
name = center;
pos = (116,255);
},
{
name = ogonek;
pos = (166,0);
},
{
name = top;
pos = (116,488);
}
);
layerId = "344A0678-763D-4FBD-9EF6-1E94428A847E";
shapes = (
{
closed = 1;
nodes = (
(166,488,l),
(66,488,l),
(66,0,l),
(166,0,l)
);
}
);
userData = {
com.typemytype.robofont.guides = (
{
angle = 90;
isGlobal = 0;
magnetic = 5;
x = 138;
y = 261;
}
);
};
width = 232;
},
{
anchors = (
{
name = bottom;
pos = (135,0);
},
{
name = center;
pos = (135,257);
},
{
name = ogonek;
pos = (226,0);
},
{
name = top;
pos = (135,490);
}
);
layerId = "1CA3C852-39F9-4810-8045-E03244E0B506";
shapes = (
{
closed = 1;
nodes = (
(226,490,l),
(44,490,l),
(44,0,l),
(226,0,l)
);
}
);
userData = {
com.schriftgestaltung.Glyphs.lastChange = "2017-03-20 16:50:55 +0000";
com.typemytype.robofont.guides = (
{
angle = 90;
isGlobal = 0;
magnetic = 5;
x = 135;
y = 523;
},
{
angle = 90;
isGlobal = 0;
magnetic = 5;
x = 140;
y = 254;
}
);
};
width = 270;
}
);
metricRight = "=|";
metricWidth = i;
note = "\012    i\012  ";
unicode = 305;
},
{
glyphname = jdotless;
kernLeft = j;
kernRight = j;
layers = (
{
anchors = (
{
name = bottom;
pos = (118,-190);
},
{
name = top;
pos = (121,488);
}
);
layerId = "344A0678-763D-4FBD-9EF6-1E94428A847E";
shapes = (
{
closed = 1;
nodes = (
(138,-194,o),
(171,-130,o),
(171,-53,cs),
(171,488,l),
(71,488,l),
(71,-56,ls),
(71,-86,o),
(58,-104,o),
(31,-104,cs),
(18,-104,o),
(7,-101,o),
(0,-99,c),
(0,-183,l),
(6,-186,o),
(26,-194,o),
(60,-194,cs)
);
}
);
width = 236;
},
{
anchors = (
{
name = bottom;
pos = (140,-182);
},
{
name = top;
pos = (143,490);
}
);
layerId = "1CA3C852-39F9-4810-8045-E03244E0B506";
shapes = (
{
closed = 1;
nodes = (
(182,-196,o),
(234,-117,o),
(234,-31,cs),
(234,490,l),
(53,490,l),
(53,17,ls),
(53,-16,o),
(39,-36,o),
(16,-36,cs),
(-1,-36,o),
(-8,-35,o),
(-16,-33,c),
(-16,-186,l),
(-10,-189,o),
(16,-196,o),
(52,-196,cs)
);
}
);
width = 279;
}
);
unicode = 567;
},
{
glyphname = k;
kernLeft = h;
kernRight = k;
layers = (
{
anchors = (
{
name = bottom;
pos = (262,0);
}
);
layerId = "344A0678-763D-4FBD-9EF6-1E94428A847E";
shapes = (
{
closed = 1;
nodes = (
(350,0,l),
(470,0,l),
(221,293,l),
(230,227,l),
(468,488,l),
(350,488,l),
(138,260,l),
(138,246,l)
);
},
{
closed = 1;
nodes = (
(64,0,l),
(162,0,l),
(162,681,l),
(64,681,l)
);
}
);
userData = {
com.typemytype.robofont.guides = (
{
angle = 90;
isGlobal = 0;
magnetic = 5;
x = 479;
y = 99;
}
);
};
width = 460;
},
{
anchors = (
{
name = bottom;
pos = (291,0);
}
);
layerId = "1CA3C852-39F9-4810-8045-E03244E0B506";
shapes = (
{
closed = 1;
nodes = (
(353,0,l),
(561,0,l),
(345,280,l),
(345,247,l),
(554,490,l),
(356,490,l),
(164,268,l),
(164,246,l)
);
},
{
closed = 1;
nodes = (
(43,0,l),
(224,0,l),
(224,681,l),
(43,681,l)
);
}
);
userData = {
com.schriftgestaltung.Glyphs.lastChange = "2017-03-20 16:50:55 +0000";
};
width = 552;
}
);
note = "\012    k\012  ";
unicode = 107;
},
{
glyphname = l;
kernLeft = h;
kernRight = l;
layers = (
{
anchors = (
{
name = bottom;
pos = (140,0);
},
{
name = center;
pos = (133,359);
},
{
name = top;
pos = (113,681);
},
{
name = topright;
pos = (206,681);
}
);
layerId = "344A0678-763D-4FBD-9EF6-1E94428A847E";
shapes = (
{
closed = 1;
nodes = (
(175,-5,o),
(196,-2,o),
(213,5,c),
(213,85,l),
(186,85,o),
(162,97,o),
(162,138,cs),
(162,681,l),
(64,681,l),
(64,103,ls),
(64,33,o),
(101,-5,o),
(153,-5,cs)
);
}
);
userData = {
com.typemytype.robofont.guides = (
{
angle = 90;
isGlobal = 0;
magnetic = 5;
x = 188;
y = 168;
}
);
};
width = 247;
},
{
anchors = (
{
name = bottom;
pos = (165,0);
},
{
name = center;
pos = (142,357);
},
{
name = top;
pos = (133,681);
},
{
name = topright;
pos = (249,681);
}
);
layerId = "1CA3C852-39F9-4810-8045-E03244E0B506";
shapes = (
{
closed = 1;
nodes = (
(231,-5,o),
(258,-4,o),
(269,-3,c),
(269,173,l),
(240,173,o),
(224,179,o),
(224,234,cs),
(224,681,l),
(43,681,l),
(43,170,ls),
(43,38,o),
(126,-5,o),
(216,-5,cs)
);
}
);
userData = {
com.schriftgestaltung.Glyphs.lastChange = "2017-03-20 16:50:55 +0000";
com.typemytype.robofont.guides = (
{
angle = 90;
isGlobal = 0;
magnetic = 5;
x = 188;
y = 168;
},
{
angle = 90;
isGlobal = 0;
magnetic = 5;
x = 140;
y = 748;
}
);
};
width = 288;
}
);
note = "\012    l\012  ";
unicode = 108;
},
{
glyphname = lslash;
kernLeft = lslash;
kernRight = lslash;
layers = (
{
anchors = (
{
name = bottom;
pos = (140,0);
},
{
name = top;
pos = (113,681);
}
);
background = {
shapes = (
{
alignment = -1;
ref = l;
},
{
pos = (1,0);
ref = slashshortcomb;
}
);
};
layerId = "344A0678-763D-4FBD-9EF6-1E94428A847E";
shapes = (
{
closed = 1;
nodes = (
(175,-5,o),
(196,-2,o),
(213,5,c),
(213,85,l),
(186,85,o),
(162,97,o),
(162,138,cs),
(162,335,l),
(260,394,l),
(225,455,l),
(162,417,l),
(162,681,l),
(64,681,l),
(64,358,l),
(5,323,l),
(40,262,l),
(64,276,l),
(64,103,ls),
(64,33,o),
(101,-5,o),
(153,-5,cs)
);
}
);
width = 263;
},
{
anchors = (
{
name = bottom;
pos = (218,0);
},
{
name = top;
pos = (186,681);
}
);
background = {
shapes = (
{
alignment = -1;
pos = (53,0);
ref = l;
},
{
pos = (1,0);
ref = slashshortcomb;
}
);
};
layerId = "1CA3C852-39F9-4810-8045-E03244E0B506";
shapes = (
{
closed = 1;
nodes = (
(284,-5,o),
(311,-4,o),
(322,-3,c),
(322,173,l),
(293,173,o),
(277,179,o),
(277,234,cs),
(277,335,l),
(385,400,l),
(314,504,l),
(277,482,l),
(277,681,l),
(96,681,l),
(96,372,l),
(5,317,l),
(71,210,l),
(96,225,l),
(96,170,ls),
(96,38,o),
(179,-5,o),
(269,-5,cs)
);
}
);
width = 377;
}
);
unicode = 322;
},
{
glyphname = m;
kernLeft = n;
kernRight = n;
layers = (
{
anchors = (
{
name = bottom;
pos = (426,0);
},
{
name = top;
pos = (426,488);
}
);
layerId = "344A0678-763D-4FBD-9EF6-1E94428A847E";
shapes = (
{
closed = 1;
nodes = (
(164,0,l),
(164,359,l),
(148,359,l),
(148,303,l),
(173,356,o),
(236,400,o),
(297,400,cs),
(340,400,o),
(376,381,o),
(376,312,cs),
(376,0,l),
(476,0,l),
(476,291,ls),
(476,395,o),
(466,498,o),
(328,498,cs),
(254,498,o),
(189,462,o),
(136,399,c),
(161,402,l),
(140,488,l),
(64,488,l),
(64,0,l)
);
},
{
closed = 1;
nodes = (
(788,0,l),
(788,291,ls),
(788,395,o),
(778,498,o),
(640,498,cs),
(566,498,o),
(501,462,o),
(448,399,c),
(460,303,l),
(485,356,o),
(548,400,o),
(609,400,cs),
(652,400,o),
(688,381,o),
(688,312,cs),
(688,0,l)
);
}
);
width = 848;
},
{
anchors = (
{
name = bottom;
pos = (421,0);
},
{
name = top;
pos = (421,490);
}
);
layerId = "1CA3C852-39F9-4810-8045-E03244E0B506";
shapes = (
{
closed = 1;
nodes = (
(224,0,l),
(224,373,l),
(164,373,l),
(209,285,l),
(246,313,o),
(272,327,o),
(299,327,cs),
(319,327,o),
(331,318,o),
(331,273,cs),
(331,0,l),
(512,0,l),
(512,304,ls),
(512,408,o),
(482,504,o),
(360,504,cs),
(270,504,o),
(191,447,o),
(143,394,c),
(212,385,l),
(176,490,l),
(43,490,l),
(43,0,l)
);
},
{
closed = 1;
nodes = (
(800,0,l),
(800,304,ls),
(800,408,o),
(770,504,o),
(647,504,cs),
(558,504,o),
(479,447,o),
(431,394,c),
(497,285,l),
(534,313,o),
(560,327,o),
(587,327,cs),
(607,327,o),
(618,318,o),
(618,273,cs),
(618,0,l)
);
}
);
userData = {
com.schriftgestaltung.Glyphs.lastChange = "2017-03-20 18:04:33 +0000";
com.typemytype.robofont.layerData = {
background = {
anchors = (
);
components = (
);
contours = (
{
points = (
{
smooth = 0;
x = 522;
y = 410;
},
{
smooth = 0;
x = 501;
y = 513;
},
{
segmentType = curve;
smooth = 1;
x = 354;
y = 513;
},
{
smooth = 0;
x = 280;
y = 513;
},
{
smooth = 0;
x = 205;
y = 477;
},
{
segmentType = curve;
smooth = 0;
x = 161;
y = 414;
},
{
segmentType = line;
smooth = 0;
x = 207;
y = 384;
},
{
segmentType = line;
smooth = 0;
x = 186;
y = 500;
},
{
segmentType = line;
smooth = 0;
x = 80;
y = 500;
},
{
segmentType = line;
smooth = 0;
x = 80;
y = 0;
},
{
segmentType = line;
smooth = 0;
x = 210;
y = 0;
},
{
segmentType = line;
smooth = 0;
x = 210;
y = 371;
},
{
segmentType = line;
smooth = 0;
x = 174;
y = 371;
},
{
segmentType = line;
smooth = 0;
x = 174;
y = 301;
},
{
smooth = 0;
x = 199;
y = 354;
},
{
smooth = 0;
x = 262;
y = 398;
},
{
segmentType = curve;
smooth = 1;
x = 323;
y = 398;
},
{
smooth = 0;
x = 372;
y = 398;
},
{
smooth = 0;
x = 392;
y = 379;
},
{
segmentType = curve;
smooth = 1;
x = 392;
y = 310;
},
{
segmentType = line;
smooth = 0;
x = 392;
y = 0;
},
{
segmentType = line;
smooth = 0;
x = 522;
y = 0;
},
{
segmentType = line;
smooth = 1;
x = 522;
y = 306;
}
);
},
{
points = (
{
segmentType = line;
smooth = 0;
x = 486;
y = 301;
},
{
smooth = 0;
x = 511;
y = 354;
},
{
smooth = 0;
x = 574;
y = 398;
},
{
segmentType = curve;
smooth = 1;
x = 635;
y = 398;
},
{
smooth = 0;
x = 684;
y = 398;
},
{
smooth = 0;
x = 704;
y = 379;
},
{
segmentType = curve;
smooth = 1;
x = 704;
y = 310;
},
{
segmentType = line;
smooth = 0;
x = 704;
y = 0;
},
{
segmentType = line;
smooth = 0;
x = 834;
y = 0;
},
{
segmentType = line;
smooth = 1;
x = 834;
y = 306;
},
{
smooth = 0;
x = 834;
y = 410;
},
{
smooth = 0;
x = 813;
y = 513;
},
{
segmentType = curve;
smooth = 1;
x = 666;
y = 513;
},
{
smooth = 0;
x = 592;
y = 513;
},
{
smooth = 0;
x = 517;
y = 477;
},
{
segmentType = curve;
smooth = 0;
x = 473;
y = 414;
}
);
}
);
lib = {
};
name = m;
unicodes = (
);
width = 904;
};
};
};
width = 834;
}
);
note = "\012    m\012  ";
unicode = 109;
},
{
glyphname = n;
kernLeft = n;
kernRight = n;
layers = (
{
anchors = (
{
name = bottom;
pos = (278,0);
},
{
name = top;
pos = (277,488);
}
);
layerId = "344A0678-763D-4FBD-9EF6-1E94428A847E";
shapes = (
{
closed = 1;
nodes = (
(265,498,o),
(192,462,o),
(136,399,c),
(161,402,l),
(140,488,l),
(64,488,l),
(64,0,l),
(164,0,l),
(164,359,l),
(148,359,l),
(148,303,l),
(175,356,o),
(247,400,o),
(312,400,cs),
(355,400,o),
(391,381,o),
(391,312,cs),
(391,0,l),
(491,0,l),
(491,291,ls),
(491,395,o),
(481,498,o),
(343,498,cs)
);
}
);
userData = {
com.typemytype.robofont.guides = (
{
angle = 90;
isGlobal = 0;
magnetic = 5;
x = 296;
y = 253;
},
{
angle = 90;
isGlobal = 0;
magnetic = 5;
x = 288;
y = 289;
}
);
};
width = 551;
},
{
anchors = (
{
name = bottom;
pos = (282,0);
},
{
name = top;
pos = (281,490);
}
);
layerId = "1CA3C852-39F9-4810-8045-E03244E0B506";
shapes = (
{
closed = 1;
nodes = (
(270,504,o),
(191,447,o),
(143,394,c),
(212,385,l),
(176,490,l),
(43,490,l),
(43,0,l),
(224,0,l),
(224,373,l),
(164,373,l),
(209,285,l),
(246,313,o),
(277,327,o),
(303,327,cs),
(330,327,o),
(340,318,o),
(340,273,cs),
(340,0,l),
(521,0,l),
(521,304,ls),
(521,408,o),
(489,504,o),
(360,504,cs)
);
}
);
userData = {
com.schriftgestaltung.Glyphs.lastChange = "2017-03-20 17:39:39 +0000";
com.typemytype.robofont.guides = (
{
angle = 90;
isGlobal = 0;
magnetic = 5;
x = 296;
y = 253;
},
{
angle = 90;
isGlobal = 0;
magnetic = 5;
x = 303;
y = 268;
}
);
com.typemytype.robofont.layerData = {
background = {
anchors = (
);
components = (
);
contours = (
{
points = (
{
smooth = 0;
x = 527;
y = 410;
},
{
smooth = 0;
x = 506;
y = 513;
},
{
segmentType = curve;
smooth = 1;
x = 359;
y = 513;
},
{
smooth = 0;
x = 285;
y = 513;
},
{
smooth = 0;
x = 205;
y = 477;
},
{
segmentType = curve;
smooth = 0;
x = 161;
y = 414;
},
{
segmentType = line;
smooth = 0;
x = 207;
y = 384;
},
{
segmentType = line;
smooth = 0;
x = 186;
y = 500;
},
{
segmentType = line;
smooth = 0;
x = 80;
y = 500;
},
{
segmentType = line;
smooth = 0;
x = 80;
y = 0;
},
{
segmentType = line;
smooth = 0;
x = 210;
y = 0;
},
{
segmentType = line;
smooth = 0;
x = 210;
y = 371;
},
{
segmentType = line;
smooth = 0;
x = 174;
y = 371;
},
{
segmentType = line;
smooth = 0;
x = 174;
y = 301;
},
{
smooth = 0;
x = 199;
y = 354;
},
{
smooth = 0;
x = 267;
y = 398;
},
{
segmentType = curve;
smooth = 1;
x = 328;
y = 398;
},
{
smooth = 0;
x = 377;
y = 398;
},
{
smooth = 0;
x = 397;
y = 379;
},
{
segmentType = curve;
smooth = 1;
x = 397;
y = 310;
},
{
segmentType = line;
smooth = 0;
x = 397;
y = 0;
},
{
segmentType = line;
smooth = 0;
x = 527;
y = 0;
},
{
segmentType = line;
smooth = 1;
x = 527;
y = 306;
}
);
}
);
lib = {
};
name = n;
unicodes = (
);
width = 597;
};
};
};
width = 555;
}
);
note = "\012    n\012  ";
unicode = 110;
},
{
glyphname = eng;
kernLeft = n;
kernRight = n;
layers = (
{
layerId = "344A0678-763D-4FBD-9EF6-1E94428A847E";
shapes = (
{
closed = 1;
nodes = (
(458,-194,o),
(491,-130,o),
(491,-53,cs),
(491,291,ls),
(491,395,o),
(481,498,o),
(343,498,cs),
(265,498,o),
(192,462,o),
(136,399,c),
(161,402,l),
(140,488,l),
(64,488,l),
(64,0,l),
(164,0,l),
(164,359,l),
(148,359,l),
(148,303,l),
(175,356,o),
(247,400,o),
(312,400,cs),
(355,400,o),
(391,381,o),
(391,312,cs),
(391,-56,ls),
(391,-86,o),
(378,-104,o),
(351,-104,cs),
(338,-104,o),
(327,-101,o),
(320,-99,c),
(320,-183,l),
(326,-186,o),
(346,-194,o),
(380,-194,cs)
);
}
);
width = 551;
},
{
layerId = "1CA3C852-39F9-4810-8045-E03244E0B506";
shapes = (
{
closed = 1;
nodes = (
(469,-196,o),
(521,-117,o),
(521,-31,cs),
(521,304,ls),
(521,408,o),
(489,504,o),
(360,504,cs),
(270,504,o),
(191,447,o),
(143,394,c),
(212,385,l),
(176,490,l),
(43,490,l),
(43,0,l),
(224,0,l),
(224,373,l),
(164,373,l),
(209,285,l),
(246,313,o),
(277,327,o),
(303,327,cs),
(330,327,o),
(340,318,o),
(340,273,cs),
(340,17,ls),
(340,-16,o),
(326,-36,o),
(303,-36,cs),
(286,-36,o),
(279,-35,o),
(271,-33,c),
(271,-186,l),
(277,-189,o),
(303,-196,o),
(339,-196,cs)
);
}
);
width = 555;
}
);
metricLeft = "=n";
metricRight = "=n";
unicode = 331;
},
{
glyphname = o;
kernLeft = o;
kernRight = o;
layers = (
{
anchors = (
{
name = bottom;
pos = (297,0);
},
{
name = ogonek;
pos = (359,0);
},
{
name = top;
pos = (284,488);
}
);
layerId = "344A0678-763D-4FBD-9EF6-1E94428A847E";
shapes = (
{
closed = 1;
nodes = (
(434,-10,o),
(534,91,o),
(534,243,cs),
(534,396,o),
(434,498,o),
(284,498,cs),
(135,498,o),
(35,396,o),
(35,243,cs),
(35,91,o),
(135,-10,o),
(284,-10,cs)
);
},
{
closed = 1;
nodes = (
(196,86,o),
(137,149,o),
(137,244,cs),
(137,339,o),
(196,402,o),
(284,402,cs),
(373,402,o),
(432,338,o),
(432,243,cs),
(432,149,o),
(373,86,o),
(284,86,cs)
);
}
);
userData = {
com.typemytype.robofont.guides = (
{
angle = 0;
isGlobal = 0;
magnetic = 5;
x = 276;
y = 244;
},
{
angle = 90;
isGlobal = 0;
magnetic = 5;
x = 344;
y = 437;
}
);
};
width = 569;
},
{
anchors = (
{
name = bottom;
pos = (278,0);
},
{
name = ogonek;
pos = (357,0);
},
{
name = top;
pos = (278,490);
}
);
layerId = "1CA3C852-39F9-4810-8045-E03244E0B506";
shapes = (
{
closed = 1;
nodes = (
(434,-14,o),
(541,95,o),
(541,245,cs),
(541,394,o),
(434,504,o),
(278,504,cs),
(122,504,o),
(15,394,o),
(15,245,cs),
(15,95,o),
(122,-14,o),
(278,-14,cs)
);
},
{
closed = 1;
nodes = (
(232,163,o),
(199,197,o),
(199,246,cs),
(199,295,o),
(232,328,o),
(278,328,cs),
(323,328,o),
(358,295,o),
(358,246,cs),
(358,197,o),
(323,163,o),
(278,163,cs)
);
}
);
userData = {
com.schriftgestaltung.Glyphs.lastChange = "2017-03-20 18:03:17 +0000";
com.typemytype.robofont.guides = (
{
angle = 0;
isGlobal = 0;
magnetic = 5;
x = 411;
y = 317;
},
{
angle = 90;
isGlobal = 0;
magnetic = 5;
x = 314;
y = 245;
}
);
};
width = 557;
}
);
note = "\012    o\012  ";
unicode = 111;
},
{
glyphname = oslash;
kernLeft = o;
kernRight = o;
layers = (
{
anchors = (
{
name = top;
pos = (296,488);
}
);
guides = (
{
angle = 142.0667;
pos = (494,506);
}
);
layerId = "344A0678-763D-4FBD-9EF6-1E94428A847E";
shapes = (
{
closed = 1;
nodes = (
(446,-10,o),
(546,91,o),
(546,243,cs),
(546,396,o),
(446,498,o),
(296,498,cs),
(147,498,o),
(47,396,o),
(47,243,cs),
(47,91,o),
(147,-10,o),
(296,-10,cs)
);
},
{
closed = 1;
nodes = (
(205,81,o),
(144,146,o),
(144,244,cs),
(144,342,o),
(205,407,o),
(296,407,cs),
(388,407,o),
(449,341,o),
(449,243,cs),
(449,146,o),
(388,81,o),
(296,81,cs)
);
},
{
closed = 1;
nodes = (
(525,482,l),
(463,529,l),
(67,18,l),
(131,-28,l)
);
}
);
userData = {
com.typemytype.robofont.mark = (
0.743,
0.775,
0.772,
1
);
};
width = 593;
},
{
anchors = (
{
name = top;
pos = (274,490);
}
);
layerId = "1CA3C852-39F9-4810-8045-E03244E0B506";
shapes = (
{
closed = 1;
nodes = (
(430,-14,o),
(538,95,o),
(538,245,cs),
(538,394,o),
(430,504,o),
(274,504,cs),
(118,504,o),
(12,394,o),
(12,245,cs),
(12,95,o),
(118,-14,o),
(274,-14,cs)
);
},
{
closed = 1;
nodes = (
(213,140,o),
(168,182,o),
(168,242,cs),
(168,307,o),
(213,350,o),
(274,350,cs),
(335,350,o),
(381,307,o),
(381,242,cs),
(381,182,o),
(335,140,o),
(274,140,cs)
);
},
{
closed = 1;
nodes = (
(513,458,l),
(422,528,l),
(39,33,l),
(132,-36,l)
);
}
);
userData = {
com.schriftgestaltung.Glyphs.lastChange = "2017-03-20 18:03:17 +0000";
com.typemytype.robofont.guides = (
{
angle = 0;
isGlobal = 0;
magnetic = 5;
x = 312;
y = 270;
},
{
angle = 90;
isGlobal = 0;
magnetic = 5;
x = 314;
y = 263;
}
);
com.typemytype.robofont.layerData = {
background = {
anchors = (
);
components = (
);
contours = (
{
points = (
{
segmentType = curve;
smooth = 1;
x = 304;
y = 533;
},
{
smooth = 0;
x = 150;
y = 533;
},
{
smooth = 0;
x = 45;
y = 422;
},
{
segmentType = curve;
smooth = 1;
x = 45;
y = 270;
},
{
smooth = 0;
x = 45;
y = 117;
},
{
smooth = 0;
x = 150;
y = 7;
},
{
segmentType = curve;
smooth = 1;
x = 304;
y = 7;
},
{
smooth = 0;
x = 458;
y = 7;
},
{
smooth = 0;
x = 564;
y = 117;
},
{
segmentType = curve;
smooth = 1;
x = 564;
y = 270;
},
{
smooth = 0;
x = 564;
y = 422;
},
{
smooth = 0;
x = 458;
y = 533;
}
);
},
{
points = (
{
segmentType = curve;
smooth = 1;
x = 304;
y = 123;
},
{
smooth = 0;
x = 225;
y = 123;
},
{
smooth = 0;
x = 177;
y = 182;
},
{
segmentType = curve;
smooth = 1;
x = 177;
y = 270;
},
{
smooth = 0;
x = 177;
y = 357;
},
{
smooth = 0;
x = 225;
y = 417;
},
{
segmentType = curve;
smooth = 1;
x = 304;
y = 417;
},
{
smooth = 0;
x = 384;
y = 417;
},
{
smooth = 0;
x = 432;
y = 357;
},
{
segmentType = curve;
smooth = 1;
x = 432;
y = 270;
},
{
smooth = 0;
x = 432;
y = 182;
},
{
smooth = 0;
x = 384;
y = 123;
}
);
},
{
points = (
{
segmentType = line;
smooth = 0;
x = 473;
y = 575;
},
{
segmentType = line;
smooth = 0;
x = 53;
y = 33;
},
{
segmentType = line;
smooth = 0;
x = 139;
y = -31;
},
{
segmentType = line;
smooth = 0;
x = 557;
y = 510;
}
);
}
);
lib = {
};
name = oslash;
unicodes = (
);
width = 609;
};
};
com.typemytype.robofont.mark = (
0.743,
0.775,
0.772,
1
);
};
width = 549;
}
);
note = "\012    oslash\012  ";
unicode = 248;
},
{
glyphname = oe;
kernLeft = o;
kernRight = e;
layers = (
{
anchors = (
{
name = bottom;
pos = (461,0);
},
{
name = top;
pos = (461,488);
}
);
layerId = "344A0678-763D-4FBD-9EF6-1E94428A847E";
shapes = (
{
closed = 1;
nodes = (
(422,-10,o),
(516,91,o),
(516,243,cs),
(516,396,o),
(422,498,o),
(281,498,cs),
(141,498,o),
(47,396,o),
(47,243,cs),
(47,91,o),
(141,-10,o),
(281,-10,cs)
);
},
{
closed = 1;
nodes = (
(204,86,o),
(149,149,o),
(149,244,cs),
(149,339,o),
(204,402,o),
(286,402,cs),
(369,402,o),
(424,338,o),
(424,243,cs),
(424,149,o),
(369,86,o),
(286,86,cs)
);
},
{
closed = 1;
nodes = (
(751,-10,o),
(822,32,o),
(865,116,c),
(790,163,l),
(762,113,o),
(726,76,o),
(658,76,cs),
(558,76,o),
(516,158,o),
(516,244,cs),
(516,336,o),
(557,417,o),
(648,417,cs),
(735,417,o),
(771,344,o),
(771,243,c),
(799,301,l),
(509,301,l),
(509,215,l),
(871,215,l),
(872,222,o),
(873,233,o),
(873,243,cs),
(873,396,o),
(786,498,o),
(648,498,cs),
(517,498,o),
(424,396,o),
(424,243,cs),
(424,91,o),
(517,-10,o),
(648,-10,cs)
);
}
);
userData = {
com.typemytype.robofont.mark = (
0.743,
0.775,
0.772,
1
);
};
width = 903;
},
{
anchors = (
{
name = bottom;
pos = (436,0);
},
{
name = top;
pos = (436,490);
}
);
layerId = "1CA3C852-39F9-4810-8045-E03244E0B506";
shapes = (
{
closed = 1;
nodes = (
(396,-14,o),
(492,95,o),
(492,245,cs),
(492,394,o),
(396,504,o),
(256,504,cs),
(111,504,o),
(12,394,o),
(12,245,cs),
(12,95,o),
(111,-14,o),
(256,-14,cs)
);
},
{
closed = 1;
nodes = (
(229,163,o),
(195,197,o),
(195,246,cs),
(195,295,o),
(229,328,o),
(274,328,cs),
(320,328,o),
(354,295,o),
(354,246,cs),
(354,197,o),
(320,163,o),
(274,163,cs)
);
},
{
closed = 1;
nodes = (
(708,-14,o),
(795,37,o),
(835,115,c),
(718,176,l),
(697,147,o),
(667,125,o),
(617,125,cs),
(550,125,o),
(504,161,o),
(504,245,cs),
(504,339,o),
(556,366,o),
(605,366,cs),
(657,366,o),
(696,336,o),
(696,279,c),
(706,301,l),
(482,301,l),
(482,183,l),
(848,183,l),
(850,196,o),
(852,221,o),
(852,248,cs),
(852,385,o),
(757,504,o),
(603,504,cs),
(452,504,o),
(354,394,o),
(354,245,cs),
(354,86,o),
(452,-14,o),
(603,-14,cs)
);
}
);
userData = {
com.typemytype.robofont.layerData = {
background = {
anchors = (
);
components = (
);
contours = (
{
points = (
{
segmentType = curve;
smooth = 1;
x = 241;
y = 103;
},
{
smooth = 0;
x = 168.22;
y = 103;
},
{
smooth = 0;
x = 124;
y = 162;
},
{
segmentType = curve;
smooth = 1;
x = 124;
y = 250;
},
{
smooth = 0;
x = 124;
y = 337;
},
{
smooth = 0;
x = 168.22;
y = 397;
},
{
segmentType = curve;
smooth = 1;
x = 241;
y = 397;
},
{
smooth = 0;
x = 327.25;
y = 397;
},
{
smooth = 0;
x = 379;
y = 337;
},
{
segmentType = curve;
smooth = 1;
x = 379;
y = 250;
},
{
smooth = 0;
x = 379;
y = 162;
},
{
smooth = 0;
x = 327.25;
y = 103;
}
);
},
{
points = (
{
segmentType = curve;
smooth = 1;
x = 241;
y = 513;
},
{
smooth = 0;
x = 92.946;
y = 513;
},
{
smooth = 0;
x = -8;
y = 402;
},
{
segmentType = curve;
smooth = 1;
x = -8;
y = 250;
},
{
smooth = 0;
x = -8;
y = 97;
},
{
smooth = 0;
x = 92.946;
y = -13;
},
{
segmentType = curve;
smooth = 1;
x = 241;
y = -13;
},
{
smooth = 0;
x = 377.083;
y = -13;
},
{
smooth = 0;
x = 471;
y = 97;
},
{
segmentType = curve;
smooth = 1;
x = 471;
y = 250;
},
{
smooth = 0;
x = 471;
y = 402;
},
{
smooth = 0;
x = 377.083;
y = 513;
}
);
},
{
points = (
{
segmentType = curve;
smooth = 1;
x = 379;
y = 250;
},
{
smooth = 0;
x = 379;
y = 97;
},
{
smooth = 0;
x = 482;
y = -13;
},
{
segmentType = curve;
smooth = 1;
x = 613;
y = -13;
},
{
smooth = 0;
x = 715;
y = -13;
},
{
smooth = 0;
x = 783;
y = 31;
},
{
segmentType = curve;
smooth = 0;
x = 833;
y = 121;
},
{
segmentType = line;
smooth = 0;
x = 729;
y = 175;
},
{
smooth = 0;
x = 700;
y = 122;
},
{
smooth = 0;
x = 655;
y = 101;
},
{
segmentType = curve;
smooth = 1;
x = 616;
y = 101;
},
{
smooth = 0;
x = 540;
y = 100;
},
{
smooth = 0;
x = 491;
y = 154;
},
{
segmentType = curve;
smooth = 1;
x = 491;
y = 252;
},
{
smooth = 0;
x = 491;
y = 364;
},
{
smooth = 0;
x = 542;
y = 411;
},
{
segmentType = curve;
smooth = 1;
x = 605;
y = 411;
},
{
smooth = 0;
x = 670;
y = 411;
},
{
smooth = 0;
x = 719;
y = 364;
},
{
segmentType = curve;
smooth = 0;
x = 717;
y = 287;
},
{
segmentType = line;
smooth = 0;
x = 744;
y = 307;
},
{
segmentType = line;
smooth = 0;
x = 468;
y = 307;
},
{
segmentType = line;
smooth = 0;
x = 464;
y = 205;
},
{
segmentType = line;
smooth = 0;
x = 833;
y = 205;
},
{
smooth = 0;
x = 837;
y = 226;
},
{
smooth = 0;
x = 838;
y = 251;
},
{
segmentType = curve;
smooth = 1;
x = 838;
y = 270;
},
{
smooth = 0;
x = 838;
y = 410;
},
{
smooth = 0;
x = 750;
y = 513;
},
{
segmentType = curve;
smooth = 1;
x = 603;
y = 513;
},
{
smooth = 0;
x = 472;
y = 513;
},
{
smooth = 0;
x = 379;
y = 408;
}
);
}
);
lib = {
};
name = oe;
unicodes = (
);
width = 955;
};
mask = {
anchors = (
{
name = top;
x = 382;
y = 600;
}
);
components = (
);
contours = (
);
lib = {
};
name = oe;
unicodes = (
);
width = 955;
};
};
com.typemytype.robofont.mark = (
0.743,
0.775,
0.772,
1
);
};
width = 864;
}
);
note = "\012    oe\012  ";
unicode = 339;
},
{
glyphname = p;
kernLeft = n;
kernRight = o;
layers = (
{
anchors = (
{
name = bottom;
pos = (285,-190);
},
{
name = top;
pos = (290,488);
}
);
layerId = "344A0678-763D-4FBD-9EF6-1E94428A847E";
shapes = (
{
closed = 1;
nodes = (
(446,-10,o),
(536,91,o),
(536,243,cs),
(536,396,o),
(446,498,o),
(311,498,cs),
(180,498,o),
(92,396,o),
(92,243,cs),
(92,91,o),
(180,-10,o),
(311,-10,cs)
);
},
{
closed = 1;
nodes = (
(164,-190,l),
(164,112,l),
(154,112,l),
(154,390,l),
(164,390,l),
(140,488,l),
(64,488,l),
(64,-190,l)
);
},
{
closed = 1;
nodes = (
(214,76,o),
(159,143,o),
(159,244,cs),
(159,345,o),
(214,412,o),
(296,412,cs),
(379,412,o),
(434,344,o),
(434,243,cs),
(434,143,o),
(379,76,o),
(296,76,cs)
);
}
);
width = 570;
},
{
anchors = (
{
name = bottom;
pos = (286,-182);
},
{
name = top;
pos = (289,490);
}
);
layerId = "1CA3C852-39F9-4810-8045-E03244E0B506";
shapes = (
{
closed = 1;
nodes = (
(460,-14,o),
(557,96,o),
(557,245,cs),
(557,394,o),
(463,504,o),
(332,504,cs),
(208,504,o),
(123,408,o),
(123,245,cs),
(123,69,o),
(204,-14,o),
(330,-14,cs)
);
},
{
closed = 1;
nodes = (
(224,-190,l),
(224,154,l),
(215,154,l),
(215,345,l),
(224,345,l),
(177,490,l),
(43,490,l),
(43,-190,l)
);
},
{
closed = 1;
nodes = (
(252,163,o),
(215,198,o),
(215,245,cs),
(215,292,o),
(252,328,o),
(295,328,cs),
(338,328,o),
(373,292,o),
(373,245,cs),
(373,198,o),
(338,163,o),
(295,163,cs)
);
}
);
userData = {
com.schriftgestaltung.Glyphs.lastChange = "2017-03-20 18:04:56 +0000";
com.typemytype.robofont.guides = (
{
angle = 90;
isGlobal = 0;
magnetic = 5;
x = 382;
y = 200;
},
{
angle = 0;
isGlobal = 0;
magnetic = 5;
x = 297;
y = 270;
},
{
angle = 90;
isGlobal = 0;
magnetic = 5;
x = 323;
y = 265;
}
);
com.typemytype.robofont.layerData = {
background = {
anchors = (
);
components = (
);
contours = (
{
points = (
{
segmentType = curve;
smooth = 1;
x = 389;
y = 555;
},
{
smooth = 0;
x = 290;
y = 555;
},
{
smooth = 0;
x = 203;
y = 492;
},
{
segmentType = curve;
smooth = 0;
x = 151;
y = 434;
},
{
segmentType = line;
smooth = 0;
x = 227;
y = 424;
},
{
segmentType = line;
smooth = 0;
x = 187;
y = 540;
},
{
segmentType = line;
smooth = 0;
x = 40;
y = 540;
},
{
segmentType = line;
smooth = 0;
x = 40;
y = 0;
},
{
segmentType = line;
smooth = 0;
x = 240;
y = 0;
},
{
segmentType = line;
smooth = 0;
x = 240;
y = 411;
},
{
segmentType = line;
smooth = 0;
x = 174;
y = 411;
},
{
segmentType = line;
smooth = 0;
x = 223;
y = 314;
},
{
smooth = 0;
x = 264;
y = 345;
},
{
smooth = 0;
x = 298;
y = 360;
},
{
segmentType = curve;
smooth = 0;
x = 327;
y = 360;
},
{
smooth = 0;
x = 356;
y = 360;
},
{
smooth = 0;
x = 367;
y = 350;
},
{
segmentType = curve;
smooth = 1;
x = 367;
y = 301;
},
{
segmentType = line;
smooth = 0;
x = 367;
y = 0;
},
{
segmentType = line;
smooth = 0;
x = 567;
y = 0;
},
{
segmentType = line;
smooth = 1;
x = 567;
y = 335;
},
{
smooth = 0;
x = 567;
y = 449;
},
{
smooth = 0;
x = 532;
y = 555;
}
);
}
);
lib = {
};
name = p;
unicodes = (
);
width = 663;
};
};
};
width = 572;
}
);
note = "\012    p\012  ";
unicode = 112;
},
{
glyphname = thorn;
kernLeft = h;
kernRight = o;
layers = (
{
background = {
shapes = (
{
closed = 1;
nodes = (
(164,-190,l),
(164,681,l),
(64,681,l),
(64,-190,l)
);
},
{
closed = 1;
nodes = (
(449,-10,o),
(541,91,o),
(541,243,cs),
(541,396,o),
(449,498,o),
(311,498,cs),
(180,498,o),
(92,396,o),
(92,243,cs),
(92,91,o),
(180,-10,o),
(311,-10,cs)
);
},
{
closed = 1;
nodes = (
(219,76,o),
(164,143,o),
(164,244,cs),
(164,345,o),
(219,412,o),
(301,412,cs),
(384,412,o),
(439,344,o),
(439,243,cs),
(439,143,o),
(384,76,o),
(301,76,cs)
);
}
);
};
layerId = "344A0678-763D-4FBD-9EF6-1E94428A847E";
shapes = (
{
closed = 1;
nodes = (
(446,-10,o),
(536,91,o),
(536,243,cs),
(536,396,o),
(446,498,o),
(311,498,cs),
(180,498,o),
(92,396,o),
(92,243,cs),
(92,91,o),
(180,-10,o),
(311,-10,cs)
);
},
{
closed = 1;
nodes = (
(164,-190,l),
(164,112,l),
(154,112,l),
(154,390,l),
(164,390,l),
(164,681,l),
(64,681,l),
(64,-190,l)
);
},
{
closed = 1;
nodes = (
(214,76,o),
(159,143,o),
(159,244,cs),
(159,345,o),
(214,412,o),
(296,412,cs),
(379,412,o),
(434,344,o),
(434,243,cs),
(434,143,o),
(379,76,o),
(296,76,cs)
);
}
);
userData = {
com.typemytype.robofont.mark = (
0.743,
0.775,
0.772,
1
);
};
width = 570;
},
{
background = {
shapes = (
{
closed = 1;
nodes = (
(212,-190,l),
(212,681,l),
(31,681,l),
(31,-190,l)
);
},
{
closed = 1;
nodes = (
(480,-14,o),
(583,96,o),
(583,245,cs),
(583,394,o),
(483,504,o),
(344,504,cs),
(206,504,o),
(112,408,o),
(112,245,cs),
(112,69,o),
(202,-14,o),
(341,-14,cs)
);
},
{
closed = 1;
nodes = (
(242,142,o),
(212,181,o),
(212,245,cs),
(212,304,o),
(242,350,o),
(307,350,cs),
(360,350,o),
(400,304,o),
(400,245,cs),
(400,181,o),
(360,142,o),
(307,142,cs)
);
}
);
};
layerId = "1CA3C852-39F9-4810-8045-E03244E0B506";
shapes = (
{
closed = 1;
nodes = (
(460,-14,o),
(557,96,o),
(557,245,cs),
(557,394,o),
(463,504,o),
(332,504,cs),
(208,504,o),
(123,408,o),
(123,245,cs),
(123,69,o),
(204,-14,o),
(330,-14,cs)
);
},
{
closed = 1;
nodes = (
(224,-190,l),
(224,154,l),
(215,154,l),
(215,345,l),
(224,345,l),
(224,681,l),
(43,681,l),
(43,-190,l)
);
},
{
closed = 1;
nodes = (
(252,163,o),
(215,198,o),
(215,245,cs),
(215,292,o),
(252,328,o),
(295,328,cs),
(338,328,o),
(373,292,o),
(373,245,cs),
(373,198,o),
(338,163,o),
(295,163,cs)
);
}
);
userData = {
com.schriftgestaltung.Glyphs.lastChange = "2017-03-20 18:04:56 +0000";
com.typemytype.robofont.guides = (
{
angle = 90;
isGlobal = 0;
magnetic = 5;
x = 382;
y = 200;
},
{
angle = 0;
isGlobal = 0;
magnetic = 5;
x = 297;
y = 270;
},
{
angle = 90;
isGlobal = 0;
magnetic = 5;
x = 323;
y = 265;
}
);
com.typemytype.robofont.layerData = {
background = {
anchors = (
);
components = (
);
contours = (
{
points = (
{
segmentType = curve;
smooth = 1;
x = 389;
y = 555;
},
{
smooth = 0;
x = 290;
y = 555;
},
{
smooth = 0;
x = 203;
y = 492;
},
{
segmentType = curve;
smooth = 0;
x = 151;
y = 434;
},
{
segmentType = line;
smooth = 0;
x = 227;
y = 424;
},
{
segmentType = line;
smooth = 0;
x = 187;
y = 540;
},
{
segmentType = line;
smooth = 0;
x = 40;
y = 540;
},
{
segmentType = line;
smooth = 0;
x = 40;
y = 0;
},
{
segmentType = line;
smooth = 0;
x = 240;
y = 0;
},
{
segmentType = line;
smooth = 0;
x = 240;
y = 411;
},
{
segmentType = line;
smooth = 0;
x = 174;
y = 411;
},
{
segmentType = line;
smooth = 0;
x = 223;
y = 314;
},
{
smooth = 0;
x = 264;
y = 345;
},
{
smooth = 0;
x = 298;
y = 360;
},
{
segmentType = curve;
smooth = 0;
x = 327;
y = 360;
},
{
smooth = 0;
x = 356;
y = 360;
},
{
smooth = 0;
x = 367;
y = 350;
},
{
segmentType = curve;
smooth = 1;
x = 367;
y = 301;
},
{
segmentType = line;
smooth = 0;
x = 367;
y = 0;
},
{
segmentType = line;
smooth = 0;
x = 567;
y = 0;
},
{
segmentType = line;
smooth = 1;
x = 567;
y = 335;
},
{
smooth = 0;
x = 567;
y = 449;
},
{
smooth = 0;
x = 532;
y = 555;
}
);
}
);
lib = {
};
name = thorn;
unicodes = (
);
width = 663;
};
};
com.typemytype.robofont.mark = (
0.743,
0.775,
0.772,
1
);
};
width = 572;
}
);
note = "\012    p\012  ";
unicode = 254;
},
{
glyphname = q;
kernLeft = o;
kernRight = u;
layers = (
{
anchors = (
{
name = bottom;
pos = (285,-190);
},
{
name = top;
pos = (280,488);
}
);
layerId = "344A0678-763D-4FBD-9EF6-1E94428A847E";
shapes = (
{
closed = 1;
nodes = (
(390,-10,o),
(478,91,o),
(478,243,cs),
(478,396,o),
(390,498,o),
(259,498,cs),
(124,498,o),
(34,396,o),
(34,243,cs),
(34,91,o),
(124,-10,o),
(259,-10,cs)
);
},
{
closed = 1;
nodes = (
(191,76,o),
(136,143,o),
(136,243,cs),
(136,344,o),
(191,412,o),
(274,412,cs),
(356,412,o),
(411,345,o),
(411,244,cs),
(411,143,o),
(356,76,o),
(274,76,cs)
);
},
{
closed = 1;
nodes = (
(506,-190,l),
(506,488,l),
(430,488,l),
(406,390,l),
(416,390,l),
(416,112,l),
(406,112,l),
(406,-190,l)
);
}
);
width = 570;
},
{
anchors = (
{
name = bottom;
pos = (286,-190);
},
{
name = top;
pos = (282,490);
}
);
layerId = "1CA3C852-39F9-4810-8045-E03244E0B506";
shapes = (
{
closed = 1;
nodes = (
(368,-14,o),
(449,69,o),
(449,245,cs),
(449,408,o),
(364,504,o),
(240,504,cs),
(109,504,o),
(15,394,o),
(15,245,cs),
(15,96,o),
(112,-14,o),
(242,-14,cs)
);
},
{
closed = 1;
nodes = (
(234,163,o),
(199,198,o),
(199,245,cs),
(199,292,o),
(234,328,o),
(277,328,cs),
(321,328,o),
(357,292,o),
(357,245,cs),
(357,198,o),
(321,163,o),
(277,163,cs)
);
},
{
closed = 1;
nodes = (
(529,-190,l),
(529,490,l),
(395,490,l),
(348,345,l),
(357,345,l),
(357,154,l),
(348,154,l),
(348,-190,l)
);
}
);
userData = {
com.schriftgestaltung.Glyphs.lastChange = "2017-03-20 16:50:55 +0000";
};
width = 572;
}
);
note = "\012    q\012  ";
unicode = 113;
},
{
glyphname = r;
kernLeft = n;
kernRight = r;
layers = (
{
anchors = (
{
name = bottom;
pos = (114,0);
},
{
name = top;
pos = (198,488);
}
);
layerId = "344A0678-763D-4FBD-9EF6-1E94428A847E";
shapes = (
{
closed = 1;
nodes = (
(64,488,l),
(64,0,l),
(164,0,l),
(164,356,l),
(140,488,l)
);
},
{
closed = 1;
nodes = (
(167,372,o),
(202,399,o),
(293,399,cs),
(324,399,l),
(324,489,l),
(314,495,o),
(295,498,o),
(275,498,cs),
(215,498,o),
(153,445,o),
(134,410,c),
(125,399,l),
(125,326,l),
(149,315,l)
);
}
);
userData = {
com.typemytype.robofont.guides = (
{
angle = 0;
isGlobal = 0;
magnetic = 5;
x = 367;
y = 394;
}
);
};
width = 345;
},
{
anchors = (
{
name = bottom;
pos = (133,0);
},
{
name = top;
pos = (208,490);
}
);
layerId = "1CA3C852-39F9-4810-8045-E03244E0B506";
shapes = (
{
closed = 1;
nodes = (
(43,490,l),
(43,0,l),
(224,0,l),
(224,352,l),
(176,490,l)
);
},
{
closed = 1;
nodes = (
(197,302,o),
(254,329,o),
(335,329,cs),
(369,329,l),
(369,494,l),
(358,500,o),
(341,504,o),
(319,504,cs),
(251,504,o),
(188,441,o),
(163,408,cs),
(153,396,l),
(153,252,l),
(179,241,l)
);
}
);
userData = {
com.schriftgestaltung.Glyphs.lastChange = "2017-03-20 16:50:55 +0000";
com.typemytype.robofont.guides = (
{
angle = 0;
isGlobal = 0;
magnetic = 5;
x = 367;
y = 394;
}
);
com.typemytype.robofont.layerData = {
background = {
anchors = (
);
components = (
);
contours = (
{
points = (
{
segmentType = line;
smooth = 0;
x = 210;
y = 0;
},
{
segmentType = line;
smooth = 0;
x = 210;
y = 368;
},
{
segmentType = line;
smooth = 0;
x = 186;
y = 500;
},
{
segmentType = line;
smooth = 0;
x = 80;
y = 500;
},
{
segmentType = line;
smooth = 0;
x = 80;
y = 0;
}
);
},
{
points = (
{
segmentType = line;
smooth = 0;
x = 185;
y = 305;
},
{
smooth = 0;
x = 204;
y = 362;
},
{
smooth = 0;
x = 252;
y = 386;
},
{
segmentType = curve;
smooth = 1;
x = 349;
y = 386;
},
{
segmentType = line;
smooth = 0;
x = 380;
y = 386;
},
{
segmentType = line;
smooth = 0;
x = 380;
y = 504;
},
{
smooth = 0;
x = 370;
y = 510;
},
{
smooth = 0;
x = 351;
y = 513;
},
{
segmentType = curve;
smooth = 1;
x = 331;
y = 513;
},
{
smooth = 0;
x = 267;
y = 513;
},
{
smooth = 0;
x = 190;
y = 460;
},
{
segmentType = curve;
smooth = 0;
x = 170;
y = 425;
},
{
segmentType = line;
smooth = 0;
x = 161;
y = 414;
},
{
segmentType = line;
smooth = 0;
x = 161;
y = 316;
}
);
}
);
lib = {
};
name = r;
unicodes = (
);
width = 419;
};
};
};
width = 384;
}
);
note = "\012    r\012  ";
unicode = 114;
},
